<svg width="78" height="32" viewBox="0 0 78 32" fill="none" xmlns="http://www.w3.org/2000/svg">
    <path
        d="M16.7303 16.0983C16.7303 20.6876 13.265 23.6575 8.97578 23.6575C4.1798 23.6575 0.555908 20.0789 0.555908 15.7727C0.555908 11.4666 4.19112 7.83984 8.87385 7.83984C10.7934 7.86816 13.013 8.68353 14.2587 9.83581L12.0391 12.8793C11.1954 12.0922 9.98933 11.5855 8.87385 11.5855C6.62591 11.5855 4.64977 13.4314 4.64977 15.7614C4.64977 17.8791 6.34562 19.9374 9.13715 19.9374C10.9632 19.9374 12.2656 19.0569 12.3222 17.6158H8.86537V14.629H16.6114C16.685 15.1357 16.7331 15.6227 16.7331 16.0983H16.7303Z"
        fill="#334155" />
    <path
        d="M19.5735 15.77C19.5735 11.2373 23.169 7.80029 27.8631 7.80029C32.5572 7.80029 36.1527 11.2373 36.1527 15.77C36.1527 20.3027 32.5572 23.6831 27.8546 23.6831C23.1521 23.6831 19.5763 20.263 19.5763 15.77H19.5735ZM32.0957 15.7417C32.0957 13.4088 30.2611 11.611 27.8631 11.611C25.4651 11.611 23.6305 13.4088 23.6305 15.7417C23.6305 18.0746 25.4651 19.8525 27.8631 19.8525C30.2611 19.8525 32.0957 18.0632 32.0957 15.7417Z"
        fill="#334155" />
    <path
        d="M38.991 15.77C38.991 11.2373 42.5865 7.80029 47.2806 7.80029C51.9747 7.80029 55.5702 11.2373 55.5702 15.77C55.5702 20.3027 51.9747 23.6831 47.2721 23.6831C42.5695 23.6831 38.9938 20.263 38.9938 15.77H38.991ZM51.5132 15.7417C51.5132 13.4088 49.6786 11.611 47.2806 11.611C44.8826 11.611 43.048 13.4088 43.048 15.7417C43.048 18.0746 44.8826 19.8525 47.2806 19.8525C49.6786 19.8525 51.5132 18.0632 51.5132 15.7417Z"
        fill="#334155" />
    <path
        d="M72.2636 15.77C72.2636 20.4528 69.1267 23.3009 63.9938 23.3009H59.0676V8.21367L63.9938 8.20518C69.1267 8.18536 72.2636 11.0533 72.2636 15.7729V15.77ZM68.2462 15.7615C68.2462 13.3919 66.5985 11.9508 63.8919 11.9508H62.9746V19.527H63.9287C66.607 19.527 68.2462 18.1029 68.2462 15.7615Z"
        fill="#334155" />
    <path
        d="M37.6686 26.5622C38.3056 25.291 39.8231 24.8295 41.1594 25.5005C41.7086 25.7864 42.1814 26.3272 42.4192 26.9472L41.3434 27.4597C41.199 27.0888 40.93 26.7547 40.6129 26.5962C39.9533 26.2649 39.1493 26.4914 38.8208 27.1482C38.4868 27.8136 38.8152 28.5921 39.4295 28.9007C39.7891 29.0819 40.1968 29.0734 40.5988 28.963L40.814 30.1549C40.2166 30.322 39.5428 30.3078 38.8888 29.9794C37.677 29.3707 36.9947 27.9098 37.6714 26.5622H37.6686Z"
        fill="#334155" />
    <path
        d="M46.2701 30.5682L46.1088 31.7545L43.0256 31.3327L43.674 26.5735L44.9367 26.7462L44.4497 30.3163L46.2701 30.5654V30.5682Z"
        fill="#334155" />
    <path
        d="M48.3156 29.996L47.6758 27.0063L48.9328 26.7374L49.5698 29.7242C49.6519 30.1149 50.0426 30.3018 50.3994 30.2254C50.7532 30.1489 51.0392 29.812 50.9571 29.427L50.3173 26.4401L51.5743 26.1711L52.2141 29.1608C52.4435 30.2395 51.7328 31.188 50.657 31.4173C49.5812 31.6466 48.5449 31.0719 48.3128 29.996H48.3156Z"
        fill="#334155" />
    <path
        d="M57.5236 26.5621C57.9256 27.2076 57.7586 28.1418 56.9404 28.6515L55.202 29.7358L52.6625 25.6618L54.0016 24.8266C54.7406 24.3651 55.5899 24.5265 55.941 25.0899C56.2014 25.5089 56.1108 25.9845 55.9438 26.0864C56.3798 25.8146 57.1385 25.9477 57.5208 26.5621H57.5236ZM54.5537 25.7863L54.2876 25.9505L54.6868 26.5904L54.9444 26.429C55.1794 26.2818 55.2841 26.0553 55.1539 25.8458C55.0322 25.6476 54.7859 25.6391 54.5537 25.7835V25.7863ZM56.4053 27.0773C56.2581 26.8395 55.9947 26.8027 55.689 26.9924L55.1454 27.3265L55.6267 28.0994L56.159 27.7681C56.4053 27.6124 56.5695 27.3435 56.4024 27.0773H56.4053Z"
        fill="#334155" />
    <path
        d="M19.4831 3.98642L19.8313 4.68006L21.1931 3.99492L21.6716 4.94902L20.3098 5.63416L21.1082 7.22244L19.9814 7.78867L17.8156 3.47965L20.5986 2.08105L21.1365 3.15123L19.4803 3.98359L19.4831 3.98642Z"
        fill="#334155" />
    <path
        d="M24.7124 2.23133L24.82 2.89383L26.3262 2.65035L26.4961 3.7007L24.9899 3.94418L25.1003 4.62366L26.9321 4.32639L27.1246 5.50698L24.05 6.00527L23.2827 1.26025L26.3573 0.761963L26.547 1.93406L24.7153 2.23133H24.7124Z"
        fill="#334155" />
    <path
        d="M30.4074 2.13781L30.3055 2.8003L31.8117 3.03246L31.6474 4.08282L30.1413 3.85066L30.0365 4.53014L31.8683 4.81325L31.6843 5.99385L28.6096 5.51821L29.3457 0.773193L32.4203 1.24883L32.2392 2.42093L30.4074 2.13781Z"
        fill="#334155" />
    <path
        d="M36.3996 6.84881L35.8504 7.91333L33.0844 6.48359L35.2898 2.21704L36.4223 2.80309L34.7661 6.00513L36.3996 6.84881Z"
        fill="#334155" />
    <path
        d="M73.1416 10.9173V8.6071H72.2639V8.20508H74.4807V8.6071H73.5946V10.9173H73.1416ZM74.7837 10.9173V8.20508H75.449L76.1341 10.3737L76.7966 8.20508H77.4478V10.9173H77.0344V8.64107L76.3351 10.9173H75.9246L75.1942 8.6071V10.9173H74.778H74.7837Z"
        fill="#334155" />
</svg>