<svg width="128" height="14" viewBox="0 0 128 14" fill="none" xmlns="http://www.w3.org/2000/svg">
<path d="M22.7629 1.6326V3.89794H17.4056V6.3946H22.4992V8.65994H17.4056V13.1906H14.8257V1.6326H22.7629Z" fill="#334155"/>
<path d="M30.3027 9.09189V4.29596H32.7993V13.1923H30.3027V12.0188C29.6858 12.8901 28.8886 13.3249 27.9124 13.3249C26.9363 13.3249 26.1174 13.0196 25.4574 12.4074C24.7958 11.7952 24.4658 10.8884 24.4658 9.68714V4.29596H26.9625V9.14124C26.9625 10.5091 27.4637 11.1922 28.4676 11.1922C28.9641 11.1922 29.3944 11.0133 29.7568 10.654C30.1222 10.2963 30.3027 9.77504 30.3027 9.09189Z" fill="#334155"/>
<path d="M37.6321 8.23144V13.1924H35.1509V4.29601H37.6321V5.28758C38.3816 4.52732 39.2251 4.14642 40.1627 4.14642C41.1003 4.14642 41.8852 4.47643 42.519 5.13799C43.1528 5.79955 43.4705 6.68163 43.4705 7.78423V13.1924H40.9893V8.16513C40.9893 6.79883 40.4881 6.11414 39.4842 6.11414C38.9876 6.11414 38.5558 6.29302 38.1857 6.65079C37.8172 7.0101 37.6321 7.53596 37.6321 8.23144Z" fill="#334155"/>
<path d="M49.2822 13.3247C48.2289 13.3247 47.2898 12.8775 46.4632 11.9846C45.6367 11.0918 45.2234 9.98299 45.2234 8.66141C45.2234 7.33829 45.6259 6.25573 46.4309 5.41221C47.2358 4.56868 48.1781 4.14769 49.2591 4.14769C50.3401 4.14769 51.2206 4.52858 51.9053 5.28884V0.923157H54.3865V13.1936H51.9053V12.0201C51.2083 12.8883 50.3354 13.3247 49.2822 13.3247ZM47.7185 8.76011C47.7185 9.47718 47.9329 10.0632 48.3631 10.5212C48.7934 10.9792 49.2945 11.2074 49.8682 11.2074C50.4419 11.2074 50.9292 10.9792 51.3317 10.5212C51.7341 10.0632 51.9346 9.47409 51.9346 8.75239C51.9346 8.03069 51.7326 7.42927 51.3317 6.94968C50.9292 6.47009 50.4357 6.23106 49.8512 6.23106C49.2668 6.23106 48.7656 6.47317 48.3461 6.95893C47.9282 7.44315 47.7185 8.04303 47.7185 8.76011Z" fill="#334155"/>
<path d="M63.43 10.4228C63.43 11.2987 63.1077 12.0019 62.4631 12.5308C61.8185 13.0598 60.9997 13.325 60.0081 13.325C59.3465 13.325 58.6572 13.2063 57.9417 12.9688C57.2246 12.7313 56.58 12.3813 56.0063 11.9186L57.0981 10.3642C58.0249 11.0813 59.0104 11.439 60.059 11.439C60.3782 11.439 60.6326 11.3758 60.8192 11.2494C61.0058 11.1229 61.0999 10.9548 61.0999 10.7451C61.0999 10.5354 60.9704 10.3426 60.7113 10.1668C60.4522 9.99101 60.0775 9.82446 59.5871 9.67025C59.0967 9.51604 58.722 9.38342 58.4629 9.27393C58.2038 9.16444 57.9093 9.00407 57.5777 8.79434C56.9054 8.37489 56.5692 7.75496 56.5692 6.93456C56.5692 6.11417 56.8992 5.44335 57.5608 4.92521C58.2223 4.40706 59.0767 4.14799 60.1237 4.14799C61.1708 4.14799 62.2179 4.50113 63.2665 5.20587L62.3413 6.859C61.5687 6.33006 60.8007 6.06482 60.0343 6.06482C59.2679 6.06482 58.8854 6.27455 58.8854 6.69246C58.8854 6.92377 59.0073 7.10574 59.2494 7.23836C59.4915 7.37098 59.894 7.52519 60.4568 7.70099C61.0197 7.87833 61.4191 8.01249 61.6551 8.10656C61.8925 8.20063 62.1763 8.34559 62.5063 8.54452C63.1216 8.92079 63.43 9.54534 63.43 10.4228Z" fill="#334155"/>
<path d="M75.0784 1.6326V3.89794H69.7196V6.3946H74.8131V8.65994H69.7196V13.1906H67.1396V1.6326H75.0784Z" fill="#334155"/>
<path d="M77.2227 3.16238C76.9421 2.88172 76.8018 2.53629 76.8018 2.12918C76.8018 1.72206 76.9421 1.37663 77.2227 1.09597C77.5034 0.815305 77.8488 0.674973 78.256 0.674973C78.6631 0.674973 79.0085 0.815305 79.2892 1.09597C79.5698 1.37663 79.7102 1.72206 79.7102 2.12918C79.7102 2.53783 79.5698 2.88172 79.2892 3.16238C79.0085 3.44304 78.6631 3.58337 78.256 3.58337C77.8473 3.58492 77.5034 3.44304 77.2227 3.16238ZM79.4958 13.1922H77.0161V4.29582H79.4958V13.1922Z" fill="#334155"/>
<path d="M84.3225 8.23144V13.1924H81.8428V4.29601H84.3225V5.28758C85.0719 4.52732 85.9155 4.14642 86.8531 4.14642C87.7906 4.14642 88.5756 4.47643 89.2094 5.13799C89.8432 5.79955 90.1609 6.68163 90.1609 7.78423V13.1924H87.6796V8.16513C87.6796 6.79883 87.1784 6.11414 86.1745 6.11414C85.678 6.11414 85.2462 6.29302 84.8761 6.65079C84.5075 7.0101 84.3225 7.53596 84.3225 8.23144Z" fill="#334155"/>
<path d="M95.9743 13.3247C94.9211 13.3247 93.9819 12.8775 93.1554 11.9846C92.3288 11.0918 91.9155 9.98299 91.9155 8.66141C91.9155 7.33829 92.318 6.25573 93.123 5.41221C93.928 4.56868 94.8702 4.14769 95.9512 4.14769C97.0322 4.14769 97.9127 4.52858 98.5974 5.28884V0.923157H101.079V13.1936H98.5974V12.0201C97.9019 12.8883 97.0276 13.3247 95.9743 13.3247ZM94.4122 8.76011C94.4122 9.47718 94.6265 10.0632 95.0568 10.5212C95.487 10.9792 95.9882 11.2074 96.5619 11.2074C97.1355 11.2074 97.6228 10.9792 98.0253 10.5212C98.4278 10.0632 98.6283 9.47409 98.6283 8.75239C98.6283 8.03069 98.4263 7.42927 98.0253 6.94968C97.6228 6.47009 97.1294 6.23106 96.5449 6.23106C95.9604 6.23106 95.4593 6.47317 95.0398 6.95893C94.6219 7.44315 94.4122 8.04303 94.4122 8.76011Z" fill="#334155"/>
<path d="M111.128 11.9032C110.124 12.8516 108.948 13.325 107.598 13.325C106.247 13.325 105.131 12.9086 104.249 12.0759C103.367 11.2432 102.926 10.1267 102.926 8.72646C102.926 7.32623 103.375 6.21284 104.274 5.38627C105.173 4.55971 106.234 4.14642 107.456 4.14642C108.681 4.14642 109.719 4.51653 110.573 5.25365C111.427 5.99231 111.855 7.00702 111.855 8.29621V9.61933H105.372C105.449 10.1051 105.702 10.5014 106.132 10.8098C106.562 11.1183 107.046 11.2725 107.588 11.2725C108.459 11.2725 109.174 10.981 109.737 10.3966L111.128 11.9032ZM108.747 6.62766C108.405 6.34083 107.988 6.19741 107.498 6.19741C107.008 6.19741 106.557 6.34546 106.15 6.64308C105.742 6.94071 105.506 7.34319 105.439 7.85054H109.342C109.287 7.3216 109.09 6.91449 108.747 6.62766Z" fill="#334155"/>
<path d="M118.324 6.47808C117.586 6.47808 117.035 6.74023 116.671 7.263C116.307 7.78732 116.125 8.47818 116.125 9.33867V13.1924H113.646V4.29601H116.125V5.46954C116.444 5.10561 116.845 4.79719 117.323 4.54274C117.803 4.28984 118.29 4.15722 118.787 4.14642L118.804 6.47808H118.324Z" fill="#334155"/>
<path d="M127.073 10.4228C127.073 11.2987 126.751 12.0019 126.106 12.5308C125.461 13.0598 124.642 13.325 123.651 13.325C122.989 13.325 122.3 13.2063 121.585 12.9688C120.867 12.7313 120.223 12.3813 119.649 11.9186L120.741 10.3642C121.668 11.0813 122.653 11.439 123.702 11.439C124.021 11.439 124.275 11.3758 124.462 11.2494C124.649 11.1229 124.743 10.9548 124.743 10.7451C124.743 10.5354 124.613 10.3426 124.354 10.1668C124.095 9.99101 123.72 9.82446 123.23 9.67025C122.74 9.51604 122.365 9.38342 122.106 9.27393C121.847 9.16444 121.552 9.00407 121.221 8.79434C120.548 8.37489 120.212 7.75496 120.212 6.93456C120.212 6.11417 120.544 5.44335 121.204 4.92521C121.865 4.40706 122.72 4.14799 123.767 4.14799C124.814 4.14799 125.861 4.50113 126.909 5.20587L125.983 6.859C125.212 6.33006 124.442 6.06482 123.676 6.06482C122.909 6.06482 122.527 6.27455 122.527 6.69246C122.527 6.92377 122.649 7.10574 122.891 7.23836C123.133 7.37098 123.535 7.52519 124.098 7.70099C124.661 7.87833 125.06 8.01249 125.296 8.10656C125.534 8.20063 125.818 8.34559 126.148 8.54452C126.764 8.92079 127.073 9.54534 127.073 10.4228Z" fill="#334155"/>
<path d="M1.96662 1.6326H11.4474C12.0211 1.6326 12.4868 2.09831 12.4868 2.67197V12.1528C12.4868 12.7265 12.0211 13.1922 11.4474 13.1922H1.96662C1.39296 13.1922 0.927246 12.7265 0.927246 12.1528V2.67197C0.927246 2.09831 1.39296 1.6326 1.96662 1.6326Z" fill="#334155"/>
<path d="M8.58625 4.45142L7.40038 5.99197H3.21204V6.76148H5.54215L4.42721 8.20488H3.21358V10.3746H1.37231V4.45142H8.58625Z" fill="white"/>
<path d="M6.22998 6.76155V10.3732H8.07125V8.20496H9.2895L10.4044 6.76155H6.22998ZM6.22998 4.45149V5.99205H10.8501L12.036 4.45149H6.22998Z" fill="white"/>
</svg>
