<?xml version="1.0" encoding="UTF-8"?>
<svg version="1.1" xmlns="http://www.w3.org/2000/svg" width="794" height="101">
<path d="M0 0 C21 0 21 0 25.83984375 3.72167969 C27.46728516 6.19549561 27.46728516 6.19549561 28.9375 8.921875 C29.52063965 9.8510675 30.1037793 10.78026001 30.70458984 11.73760986 C32.5439592 14.70345069 34.27088738 17.71883597 36 20.75 C37.18436586 22.7048038 38.37573881 24.65538003 39.57421875 26.6015625 C41.82601303 30.2736971 44.02854509 33.96765179 46.1953125 37.69042969 C51.5688925 46.60180042 57.32877125 55.27503269 63 64 C63.33 42.88 63.66 21.76 64 0 C70.6 0 77.2 0 84 0 C84 32.34 84 64.68 84 98 C63 98 63 98 58.36328125 94.12109375 C56.78320312 91.44335937 56.78320312 91.44335937 55.3125 88.4375 C54.06509315 86.26578512 52.81061852 84.09812128 51.55078125 81.93359375 C51.21644073 81.3346933 50.88210022 80.73579285 50.53762817 80.1187439 C46.41337681 72.76243668 41.65658013 65.83009716 36.94213867 58.84399414 C31.59548841 50.91789225 26.30340269 42.95510403 21 35 C20.67 55.79 20.34 76.58 20 98 C13.4 98 6.8 98 0 98 C0 65.66 0 33.32 0 0 Z " fill="#323C46" transform="translate(377,1)"/>
<path d="M0 0 C6.89084351 5.8547203 11.17472892 13.03628014 13.125 21.8125 C13.125 27.7525 13.125 33.6925 13.125 39.8125 C-5.355 40.1425 -23.835 40.4725 -42.875 40.8125 C-40.07613881 48.98573741 -40.07613881 48.98573741 -33.875 53.8125 C-28.16545484 55.89739254 -23.45939045 56.30024993 -17.76171875 54.125 C-15.57763254 52.78085523 -15.57763254 52.78085523 -13.8515625 49.7109375 C-12.08501161 47.49980856 -11.22904386 46.88261326 -8.41430664 46.32519531 C-5.44336796 46.22201821 -2.53140364 46.28933974 0.4375 46.4375 C1.46423828 46.46457031 2.49097656 46.49164063 3.54882812 46.51953125 C6.07637576 46.59006746 8.59960043 46.68856571 11.125 46.8125 C10.03342474 55.55764893 5.02789149 61.78324477 -1.6640625 67.30859375 C-11.06897363 73.70592729 -22.6147519 75.17003381 -33.6796875 73.3515625 C-44.1245067 70.83652105 -52.72093194 65.72359055 -58.875 56.8125 C-65.64559244 45.45743118 -66.23913652 31.3792908 -63.12109375 18.76171875 C-59.45653467 7.67604421 -53.24155982 1.08762837 -42.91796875 -4.1875 C-29.3606127 -10.33113847 -12.01848652 -8.59891715 0 0 Z M-39.484375 15.71875 C-41.95668172 19.44109944 -42.875 21.21236359 -42.875 25.8125 C-31.325 25.8125 -19.775 25.8125 -7.875 25.8125 C-8.67445511 18.6423034 -8.67445511 18.6423034 -12.875 13.8125 C-21.26763389 8.002215 -32.45373346 7.39119401 -39.484375 15.71875 Z " fill="#323C46" transform="translate(538.875,27.1875)"/>
<path d="M0 0 C6.93 0 13.86 0 21 0 C21.02578125 3.444375 21.0515625 6.88875 21.078125 10.4375 C21.11658772 13.79028333 21.16173452 17.14291507 21.20751953 20.49560547 C21.23566532 22.81747139 21.25691149 25.13943199 21.27099609 27.46142578 C21.29251355 30.80810799 21.33921124 34.15365949 21.390625 37.5 C21.39185364 38.5305249 21.39308228 39.5610498 21.39434814 40.62280273 C21.53931014 47.83033068 22.59062792 53.6971708 28 58.9375 C32.74780051 61.45976902 37.88114548 61.91525264 43.08984375 60.38671875 C47.89677703 58.35473764 49.798038 56.26457314 52.13606262 51.43395996 C53.75028351 46.88623567 53.60367611 42.27996906 53.609375 37.5 C53.62591125 36.42371338 53.64244751 35.34742676 53.65948486 34.23852539 C53.70778531 30.82562449 53.72929662 27.41316864 53.75 24 C53.77817458 21.67575908 53.80810407 19.35153872 53.83984375 17.02734375 C53.91681996 11.35136129 53.95750926 5.67676271 54 0 C60.93 0 67.86 0 75 0 C75 25.74 75 51.48 75 78 C68.07 78 61.14 78 54 78 C53.67 76.02 53.34 74.04 53 72 C51.453125 73.175625 51.453125 73.175625 49.875 74.375 C42.09273975 80.28951779 32.31500803 79.86430242 23 79 C15.30711001 77.44369191 9.64453882 73.2749543 5 67 C1.58356544 60.49392027 -0.13139806 54.00460206 -0.11352539 46.65893555 C-0.11344986 45.6182341 -0.11337433 44.57753265 -0.11329651 43.5052948 C-0.10813522 42.3936647 -0.10297394 41.28203461 -0.09765625 40.13671875 C-0.0962413 38.98959915 -0.09482635 37.84247955 -0.09336853 36.66059875 C-0.08777861 33.00287246 -0.07522789 29.34520775 -0.0625 25.6875 C-0.0574837 23.20507901 -0.05292102 20.72265706 -0.04882812 18.24023438 C-0.03781246 12.16013258 -0.02055469 6.08007673 0 0 Z " fill="#323C46" transform="translate(640,21)"/>
<path d="M0 0 C9.36171154 7.45367942 16.76694596 18.38198431 18.7890625 30.40234375 C20.17901856 47.51939521 18.29603116 62.70064842 6.8125 76.25 C-1.47641732 85.03542485 -12.5356496 90.77007538 -24.66015625 91.23828125 C-40.49971547 91.56375164 -52.60071434 89.5249335 -64.6875 78.5625 C-65.450625 77.716875 -66.21375 76.87125 -67 76 C-67.48082031 75.52304688 -67.96164063 75.04609375 -68.45703125 74.5546875 C-76.79678249 65.81378367 -79.88855736 53.38380049 -80.25 41.5625 C-79.76847418 27.26878624 -75.27610032 14.39908776 -65.23046875 3.96484375 C-47.0170026 -12.07959316 -20.09215146 -13.87595797 0 0 Z M-58 16 C-65.2876258 24.9693856 -66.56974749 36.44140181 -65.8203125 47.69921875 C-64.29736037 57.34976232 -59.81496654 66.52229121 -52.08984375 72.6015625 C-41.96539976 79.37642409 -30.90321412 80.72020325 -19.0078125 78.421875 C-10.42935529 75.40708173 -3.20985809 68.94981056 1 60.9375 C5.74410281 49.99085995 7.09122366 37.81796394 3.03125 26.37109375 C-1.21782012 16.60145147 -6.89602597 9.61188578 -16.75 5.125 C-32.27706832 -0.24975442 -47.0100897 3.90685547 -58 16 Z " fill="#323C46" transform="translate(80,9)"/>
<path d="M0 0 C4.9315687 3.89096246 8.11632102 8.36800743 9.69140625 14.4921875 C9.74859382 16.49136973 9.76023203 18.4933721 9.69140625 20.4921875 C6.60879169 20.6668272 3.52744792 20.77312817 0.44140625 20.8671875 C-0.43128906 20.91746094 -1.30398438 20.96773437 -2.203125 21.01953125 C-4.70365923 21.07679539 -6.87024005 21.05824402 -9.30859375 20.4921875 C-11.72265625 17.59375 -11.72265625 17.59375 -13.30859375 14.4921875 C-17.90137751 11.55280589 -20.40512842 11.25462501 -25.74609375 12.3046875 C-27.27213471 12.67994347 -28.79516758 13.06891539 -30.30859375 13.4921875 C-30.63859375 15.8021875 -30.96859375 18.1121875 -31.30859375 20.4921875 C-28.38280876 22.92440012 -25.89877397 24.10864713 -22.23828125 25.10546875 C-21.25859375 25.38455078 -20.27890625 25.66363281 -19.26953125 25.95117188 C-17.23701663 26.5133294 -15.20318343 27.07074445 -13.16796875 27.62304688 C-5.41253021 29.84539512 3.45799662 32.7419257 8.25390625 39.6796875 C11.44579462 45.92468648 11.94627146 53.10374459 10.0078125 59.8828125 C6.64966527 67.18434424 1.04638136 70.74213131 -6.16015625 73.7109375 C-16.08241786 77.31903263 -27.55872469 76.04364049 -37.30859375 72.4921875 C-45.71158054 68.18263754 -51.18614574 62.53085279 -54.30859375 53.4921875 C-54.30859375 51.8421875 -54.30859375 50.1921875 -54.30859375 48.4921875 C-47.37859375 48.4921875 -40.44859375 48.4921875 -33.30859375 48.4921875 C-32.31859375 50.4721875 -31.32859375 52.4521875 -30.30859375 54.4921875 C-26.38112362 58.17419075 -22.0405874 57.84809324 -16.9296875 57.890625 C-13.87723292 57.42661551 -12.48263494 56.66622869 -10.30859375 54.4921875 C-9.97461588 51.36631875 -9.97461588 51.36631875 -10.30859375 48.4921875 C-15.90590334 45.48999418 -21.15805114 43.51407944 -27.30859375 41.9921875 C-35.20142223 40.03918386 -42.90484165 37.95229889 -48.24609375 31.4296875 C-49.09494141 30.42228516 -49.09494141 30.42228516 -49.9609375 29.39453125 C-53.45549421 24.46163526 -52.82176771 18.26172904 -52.30859375 12.4921875 C-50.58688954 6.2380451 -46.6121253 2.05011223 -41.30859375 -1.5078125 C-28.98821573 -8.23279496 -11.6853674 -7.63206737 0 0 Z " fill="#323C46" transform="translate(783.30859375,25.5078125)"/>
<path d="M0 0 C20.34284885 -1.78950996 20.34284885 -1.78950996 26.0625 2.0625 C28.09590105 4.94861762 29.54665151 7.78525634 31 11 C32.30761361 13.07890132 33.64013743 15.14239418 35 17.1875 C36.00368514 18.78936355 37.00512267 20.39265132 38 22 C38.83686355 20.77323411 39.66913165 19.54333424 40.5 18.3125 C41.0671875 17.50554688 41.634375 16.69859375 42.21875 15.8671875 C44.12096824 12.98888117 44.12096824 12.98888117 45.40625 9.5078125 C47.23755364 5.40533327 48.55634583 2.92888112 52 0 C59.16578224 -1.64378364 66.75679259 -0.78953951 74 0 C72.40274778 4.74834064 69.77004314 8.47040735 66.921875 12.53125 C65.91585494 13.9955364 64.9106712 15.46039766 63.90625 16.92578125 C62.32538735 19.2226643 60.73933935 21.51520596 59.13867188 23.79833984 C57.59127202 26.01074191 56.06756415 28.23793573 54.546875 30.46875 C54.06160339 31.14909302 53.57633179 31.82943604 53.07635498 32.53039551 C50.52959598 36.19713238 50.52959598 36.19713238 50.40283203 40.4934082 C50.92989746 41.3205835 51.45696289 42.14775879 52 43 C52.34667725 43.5559787 52.69335449 44.1119574 53.05053711 44.68478394 C54.33059843 46.6972747 55.6630242 48.66693275 57.0078125 50.63671875 C57.49329559 51.35737015 57.97877869 52.07802155 58.47897339 52.82051086 C60.02322401 55.11253315 61.57336925 57.40046844 63.125 59.6875 C65.17450917 62.70874288 67.21798958 65.73393028 69.2578125 68.76171875 C69.97023605 69.80545906 69.97023605 69.80545906 70.697052 70.87028503 C74 75.77442895 74 75.77442895 74 78 C53.60563234 79.79404194 53.60563234 79.79404194 47.90234375 75.8671875 C45.89371325 72.99999724 44.43807828 70.18753534 43 67 C41.86143959 65.29341055 40.69678647 63.60377414 39.5 61.9375 C37 58.2606383 37 58.2606383 37 56 C36.34 56 35.68 56 35 56 C34.61908203 56.96486328 34.61908203 56.96486328 34.23046875 57.94921875 C33.82441406 58.95597656 33.41835938 59.96273437 33 61 C32.75846191 61.66209473 32.51692383 62.32418945 32.26806641 63.00634766 C30.13594828 68.57704703 27.80764778 74.25521663 23 78 C15.58226606 80.13417852 7.54303274 79.04214193 0 78 C4.94752642 69.13289948 10.43884065 60.71726895 16.11181641 52.30004883 C16.69882324 51.42888428 17.28583008 50.55771973 17.890625 49.66015625 C18.41688477 48.88293213 18.94314453 48.10570801 19.48535156 47.30493164 C19.98518555 46.5443042 20.48501953 45.78367676 21 45 C21.60038086 44.18200928 22.20076172 43.36401855 22.81933594 42.52124023 C24.26584613 40.09329311 24.26584613 40.09329311 23.50048828 37.66479492 C21.49739131 34.10739118 19.29338904 30.73397875 16.9921875 27.36328125 C16.50670441 26.64262985 16.02122131 25.92197845 15.52102661 25.17948914 C13.97677599 22.88746685 12.42663075 20.59953156 10.875 18.3125 C8.82549083 15.29125712 6.78201042 12.26606972 4.7421875 9.23828125 C4.26723846 8.54245438 3.79228943 7.8466275 3.302948 7.12971497 C0 2.22557105 0 2.22557105 0 0 Z " fill="#323C46" transform="translate(557,21)"/>
<path d="M0 0 C7.62784814 6.23954858 12.55473384 13.47527958 14.6875 23.1875 C15.84941301 36.47177163 15.12766911 48.66549369 6.375 59.34375 C-1.5085725 67.95728292 -9.94951382 72.58343638 -21.734375 73.34375 C-32.71504085 73.71597596 -42.58010582 71.01247703 -51.3125 64.1875 C-59.91925022 55.58074978 -63.41366914 44.96848137 -63.5625 33 C-63.54303691 21.55153439 -60.24949099 11.73823056 -52.4609375 3.14453125 C-38.47845009 -9.91878866 -15.51142083 -10.87548866 0 0 Z M-45.12890625 15.2578125 C-49.68316589 22.68290907 -50.23643023 30.63860706 -49.3125 39.1875 C-47.30329904 47.36855418 -44.42545692 53.45076085 -37.125 57.9375 C-30.36587326 61.44428098 -23.87287832 61.95049998 -16.515625 60.046875 C-9.22314223 57.20228952 -4.09967046 51.63418588 -0.5625 44.8125 C2.09912205 37.1201198 2.28352513 26.42564202 -1.21484375 18.95703125 C-5.4684059 12.09986523 -10.3283636 7.1835341 -18.3125 5.1875 C-28.94484854 3.67885595 -38.48910401 6.49252116 -45.12890625 15.2578125 Z " fill="#323C46" transform="translate(347.3125,27.8125)"/>
<path d="M0 0 C6.1790075 4.85735507 9.16149022 10.88187731 10.76171875 18.4921875 C10.84733785 20.29426256 10.87945933 22.09921738 10.87524414 23.90332031 C10.87513084 25.52454803 10.87513084 25.52454803 10.87501526 27.17852783 C10.86985397 28.33906677 10.86469269 29.49960571 10.859375 30.6953125 C10.85796005 31.88823914 10.8565451 33.08116577 10.85508728 34.3102417 C10.84948913 38.12091579 10.83693694 41.93153116 10.82421875 45.7421875 C10.81920351 48.32551998 10.81464065 50.90885339 10.81054688 53.4921875 C10.7995203 59.82554346 10.78225689 66.15885553 10.76171875 72.4921875 C6.47171875 72.4921875 2.18171875 72.4921875 -2.23828125 72.4921875 C-2.25286377 71.12078613 -2.26744629 69.74938477 -2.2824707 68.33642578 C-2.34077928 63.21100796 -2.41800896 58.08601459 -2.50073242 52.9609375 C-2.53382927 50.74974496 -2.56190781 48.53847103 -2.5847168 46.32714844 C-2.61854422 43.13441532 -2.67087334 39.94241792 -2.7265625 36.75 C-2.73295242 35.77354523 -2.73934235 34.79709045 -2.7459259 33.79104614 C-2.90645929 26.16573058 -3.7197659 18.69138267 -8.55078125 12.5546875 C-15.27061745 7.3976039 -20.88030904 6.50502543 -29.23828125 7.4921875 C-34.60285927 9.10676923 -38.20909717 11.71539722 -41.23828125 16.4921875 C-44.69425078 23.40412656 -44.41837424 31.24539622 -44.5546875 38.80078125 C-44.5754686 39.76750259 -44.59624969 40.73422394 -44.61766052 41.73023987 C-44.68267116 44.79665508 -44.74181402 47.86315072 -44.80078125 50.9296875 C-44.84401265 53.0175862 -44.88762837 55.10547699 -44.93164062 57.19335938 C-45.0383024 62.29288783 -45.13970434 67.39249661 -45.23828125 72.4921875 C-49.52828125 72.4921875 -53.81828125 72.4921875 -58.23828125 72.4921875 C-58.23828125 47.0821875 -58.23828125 21.6721875 -58.23828125 -4.5078125 C-53.94828125 -4.5078125 -49.65828125 -4.5078125 -45.23828125 -4.5078125 C-44.90828125 -1.8678125 -44.57828125 0.7721875 -44.23828125 3.4921875 C-43.82578125 3.09386719 -43.41328125 2.69554687 -42.98828125 2.28515625 C-31.23733227 -8.49529024 -13.10551766 -8.82849881 0 0 Z " fill="#323C46" transform="translate(173.23828125,26.5078125)"/>
<path d="M0 0 C7.59794742 5.14355429 12.26510346 11.2195427 15 20 C15 20.99 15 21.98 15 23 C10.05 23 5.1 23 0 23 C-0.556875 21.7625 -1.11375 20.525 -1.6875 19.25 C-3.98268209 14.67579907 -6.59137605 12.17050673 -11.2265625 9.91796875 C-14.57476331 8.80976144 -17.41359108 8.69897853 -20.9375 8.6875 C-22.12214844 8.67074219 -23.30679688 8.65398438 -24.52734375 8.63671875 C-30.91840362 9.30529982 -34.83278516 12.26964802 -39 17 C-44.32481554 23.90253866 -44.76981005 33.85236198 -43.72265625 42.21484375 C-42.47969758 49.13989922 -39.60030876 54.46636582 -34.5625 59.375 C-28.13785635 63.44916426 -21.13296989 64.14264373 -13.75390625 62.5 C-9.11804591 60.95763437 -6.12897181 58.84416537 -3 55 C-2.01 53.02 -1.02 51.04 0 49 C4.95 49 9.9 49 15 49 C12.11931632 58.50625615 8.24347431 65.19433946 0 71 C-11.3265206 76.72359945 -22.86702256 77.48981151 -35.07421875 74.1015625 C-43.17568076 71.05134583 -49.7900313 65.57530417 -54 58 C-59.43143508 45.73997612 -60.78542671 32.98636818 -57 20 C-53.00912775 10.55196058 -47.53426567 3.27601878 -38.1875 -1.17578125 C-26.22776925 -5.68203694 -11.51019592 -6.11892599 0 0 Z " fill="#323C46" transform="translate(258,25)"/>
</svg>
