<svg width="94" height="30" viewBox="0 0 94 30" fill="none" xmlns="http://www.w3.org/2000/svg">
<path d="M27.6888 15.5974C27.683 15.1773 27.6773 14.7571 27.696 14.2919C27.7898 13.291 27.5761 12.3808 27.2567 11.4925C27.0531 10.9263 26.8166 10.3718 26.5951 9.81272C26.7243 9.81884 26.8682 9.83105 27.0123 9.83157C27.6255 9.83376 28.239 9.82483 28.8518 9.84013C28.9527 9.84265 29.1168 9.9264 29.1404 10.0058C29.382 10.8158 29.6247 11.6269 29.8196 12.449C30.0721 13.5148 30.1473 14.5968 30.0611 15.6951C29.9843 16.6745 29.928 17.6517 29.585 18.5854C29.3236 19.2971 29.0952 20.0224 28.8015 20.7204C28.3505 21.7926 27.6973 22.7459 26.9661 23.6476C26.854 23.7859 26.7798 23.9548 26.688 24.1095C26.688 24.1095 26.6763 24.0978 26.6617 24.0976C26.5398 24.1789 26.427 24.254 26.3263 24.3429C25.6568 24.9344 25.0203 25.5685 24.3127 26.11C23.719 26.5643 23.0579 26.9382 22.3994 27.298C21.89 27.5763 21.33 27.7602 20.8091 28.0196C20.4913 28.1779 20.1604 28.2106 19.8238 28.2763C19.41 28.357 19.0227 28.566 18.6116 28.6715C18.3399 28.7412 18.0294 28.6738 17.7662 28.7598C17.1492 28.9613 16.5155 28.9977 15.8818 29.0094C15.1921 29.0221 14.4994 29.0039 13.8118 28.9499C13.1718 28.8995 12.5362 28.7886 11.9004 28.6927C11.8051 28.6783 11.7208 28.5974 11.6288 28.5525C11.5709 28.5243 11.51 28.4978 11.4474 28.4843C11.0167 28.3912 10.5628 28.3584 10.1585 28.1991C9.37304 27.8895 8.60885 27.5227 7.84928 27.1521C7.56727 27.0145 7.32995 26.7881 7.05932 26.6234C6.8467 26.4941 6.59592 26.4233 6.39448 26.2807C6.02234 26.0172 5.67439 25.7197 5.31546 25.4375C5.11647 25.281 5.1331 25.1001 5.3597 24.9724C5.51778 24.8834 5.6742 24.7913 5.83347 24.7045C6.1557 24.5288 6.5067 24.391 6.79301 24.1693C6.9893 24.0173 7.10345 24.0324 7.27185 24.1597C7.59092 24.4007 7.90561 24.6501 8.24179 24.8653C8.68913 25.1517 9.14 25.4406 9.61777 25.669C10.0637 25.8822 10.5431 26.0292 11.0147 26.1839C11.4185 26.3164 11.8315 26.4209 12.2417 26.5331C12.4123 26.5798 12.6115 26.5737 12.7539 26.6621C13.1471 26.9062 13.5683 26.8677 13.9943 26.8595C14.2365 26.8548 14.4869 26.8413 14.7197 26.8937C15.052 26.9684 15.3638 27.0083 15.7041 26.911C15.9522 26.8401 16.2265 26.8568 16.4895 26.8431C16.6637 26.8341 16.8386 26.8401 17.0132 26.8397C17.2961 26.839 17.5499 26.7567 17.8146 26.6471C18.1319 26.5157 18.499 26.5102 18.8285 26.4017C19.514 26.1761 20.2129 25.9687 20.8617 25.6601C21.5121 25.3509 22.126 24.9537 22.7224 24.5459C23.1917 24.2252 23.6388 23.8592 24.0432 23.4599C24.5182 22.991 24.9349 22.4633 25.3794 21.9633C25.967 21.3025 26.4124 20.5456 26.7701 19.7478C27.2501 18.6771 27.63 17.5664 27.728 16.3841C27.7495 16.1247 27.7036 15.8598 27.6888 15.5974Z" fill="#334155"/>
<path d="M18.0721 7.39382C17.992 7.34826 17.9111 7.2618 17.8317 7.26321C16.4387 7.28797 15.0337 7.12911 13.6561 7.41375C10.8715 7.98914 8.80395 9.51152 7.65617 12.1558C6.89423 13.9111 6.90498 15.7062 7.50823 17.512C7.5969 17.7774 7.69529 17.7425 7.88742 17.6253C9.72648 16.5043 11.574 15.3971 13.4092 14.2698C13.7846 14.0393 14.1545 13.9086 14.6028 13.9371C15.1352 13.9708 15.6716 13.9541 16.2057 13.94C16.4348 13.9339 16.5202 13.9993 16.5198 14.2399C16.5142 17.7437 16.5136 21.2476 16.5227 24.7515C16.5234 25.0204 16.4313 25.0943 16.1804 25.0898C15.5385 25.0782 14.8935 25.1238 14.2548 25.077C12.9867 24.9838 11.7735 24.6448 10.6168 24.118C9.22213 23.4828 8.00676 22.5989 7.00256 21.4368C6.82763 21.2343 6.68214 21.2081 6.44776 21.354C5.4246 21.9908 4.38759 22.6053 3.36203 23.2382C3.19249 23.3429 3.1006 23.3085 2.99465 23.163C2.12756 21.9724 1.44954 20.6862 0.967999 19.2914C0.508346 17.9599 0.253157 16.5817 0.255881 15.1896C0.258048 14.0817 0.430942 12.9618 0.644293 11.8699C0.899293 10.5649 1.43426 9.34651 2.10456 8.19433C2.95324 6.73551 4.03334 5.47047 5.32488 4.38693C6.95964 3.01544 8.81091 2.04046 10.8565 1.44757C12.2817 1.03449 13.7386 0.821943 15.2299 0.824193C21.4757 0.83362 27.7215 0.829242 33.9674 0.822709C34.2134 0.822451 34.2666 0.906922 34.2604 1.13348C34.2449 1.69728 34.2518 2.26174 34.2534 2.82593C34.2545 3.21569 34.2457 3.22787 33.8584 3.22786C29.9387 3.2277 26.0189 3.22484 22.0992 3.22801C19.4663 3.23014 16.8327 3.20411 14.201 3.2625C12.8149 3.29325 11.4828 3.68079 10.2003 4.22011C8.48667 4.94077 7.00846 5.98983 5.76512 7.36924C4.61014 8.65064 3.77443 10.1193 3.2774 11.7689C2.80067 13.351 2.67904 14.9718 2.92377 16.607C3.08181 17.6631 3.3808 18.6853 3.83003 19.6587C3.96859 19.959 4.011 19.9708 4.29149 19.8003C4.61271 19.605 4.932 19.4064 5.25554 19.2151C5.39654 19.1317 5.4471 19.0408 5.37025 18.8769C5.02081 18.1315 4.75721 17.3529 4.69146 16.5322C4.62075 15.6494 4.52973 14.7537 4.60612 13.8774C4.70375 12.7575 5.0389 11.6786 5.55843 10.6637C6.73311 8.36896 8.52474 6.74857 10.8789 5.72976C11.8531 5.30813 12.8615 5.01854 13.9248 4.94734C14.5826 4.90328 15.2413 4.84102 15.8997 4.84017C21.9079 4.83237 27.9162 4.8376 33.9245 4.8323C34.184 4.83207 34.294 4.88059 34.2811 5.17508C34.2551 5.76782 34.2656 6.36271 34.2785 6.95633C34.2836 7.18788 34.2131 7.26328 33.9737 7.2629C29.6383 7.25598 25.3028 7.25761 20.9673 7.25722C20.5843 7.25718 20.5824 7.26119 20.5824 7.6294C20.5831 13.3308 20.5822 19.0322 20.5863 24.7336C20.5865 24.9383 20.5223 25.0179 20.314 25.0156C19.6312 25.0081 18.9481 25.0086 18.2652 25.0168C18.1076 25.0188 18.0475 24.9568 18.0455 24.8127C18.0434 24.6544 18.0413 24.4961 18.0413 24.3378C18.0438 18.7454 18.0466 13.1531 18.074 7.53733C18.0986 7.51397 18.1249 7.51435 18.1228 7.54239C18.1382 10.2466 18.1576 12.9228 18.1725 15.599C18.1781 16.6268 18.1734 17.6546 18.1734 18.7103C18.1734 20.7674 18.1734 22.7967 18.1734 24.8594C18.8167 24.8594 19.4776 24.8491 20.1379 24.8649C20.3781 24.8706 20.4367 24.7913 20.4357 24.5609C20.4272 22.6014 20.4304 20.6418 20.4303 18.6545C20.4311 14.8443 20.4315 11.0619 20.4521 7.26846C20.6113 7.22418 20.7503 7.16203 20.8894 7.16186C25.1735 7.15675 29.4577 7.15481 33.7418 7.16414C34.032 7.16477 34.1091 7.08083 34.0996 6.79874C34.0787 6.17916 34.0931 5.55839 34.0931 4.90641C34.0022 4.90641 33.8958 4.90641 33.7894 4.90641C27.6254 4.90631 21.4614 4.90536 15.2974 4.90852C14.9731 4.90868 14.6482 4.93788 14.3248 4.9673C14.2584 4.97334 14.1975 5.04083 14.1082 5.08003C13.9765 5.09184 13.87 5.09934 13.7649 5.11615C13.3536 5.18198 12.9427 5.25074 12.509 5.32087C12.1847 5.40277 11.8831 5.48221 11.5602 5.56252C11.4143 5.62018 11.2897 5.67698 11.1476 5.74144C11.0826 5.76576 11.0351 5.78243 10.9675 5.79991C10.9007 5.85738 10.854 5.91403 10.7853 5.97066C10.7192 5.97116 10.6751 5.97168 10.6138 5.98026C10.3012 6.14082 10.008 6.29776 9.70998 6.44501C8.66937 6.9592 7.91968 7.82744 7.09091 8.59857C7.01829 8.66614 6.99424 8.78589 6.94807 8.88176C6.94851 8.8821 6.94781 8.88126 6.92764 8.88437C6.71052 9.1261 6.48024 9.34485 6.32369 9.60754C6.01534 10.1249 5.74791 10.6667 5.44654 11.2069C5.40199 11.2692 5.37445 11.323 5.34433 11.3972C5.32278 11.483 5.3038 11.5485 5.26864 11.6288C5.14192 12.065 5.00217 12.4813 4.92754 12.9089C4.80735 13.5976 4.68366 14.2914 4.64789 14.9875C4.61254 15.6755 4.70925 16.3656 4.92044 17.0305C5.12614 17.678 5.33789 18.3236 5.53431 18.9739C5.55474 19.0416 5.4892 19.1353 5.44538 19.2259C5.00061 19.4955 4.57734 19.7619 4.14383 20.0104C4.07944 20.0473 3.90772 20.0303 3.88566 19.9872C3.66742 19.56 3.43846 19.1336 3.27652 18.6839C3.12898 18.2741 3.04933 17.8382 2.96011 17.4096C2.83456 16.8064 2.72781 16.1994 2.62748 15.584C2.65125 15.5409 2.66056 15.5079 2.67029 15.4472C2.67024 15.1411 2.66979 14.8625 2.67014 14.5578C2.70936 14.1531 2.74777 13.7747 2.78723 13.3712C2.90277 12.8729 3.02361 12.4011 3.13038 11.9262C3.34508 10.9711 3.76864 10.1086 4.25083 9.26391C5.06548 7.83679 6.15234 6.65446 7.45263 5.66955C7.97457 5.2742 8.53304 4.9106 9.11801 4.61908C9.85697 4.25081 10.6306 3.9452 11.4076 3.66297C11.843 3.50482 12.3131 3.43594 12.7718 3.34977C13.2544 3.25911 13.742 3.13139 14.2277 3.13029C20.69 3.1157 27.1523 3.12053 33.6146 3.12052C33.6839 3.12052 33.754 3.11364 33.8223 3.12175C34.0248 3.14579 34.1031 3.07062 34.0967 2.85761C34.0829 2.3929 34.0924 1.92749 34.0924 1.46236C34.0923 1.04139 34.0923 1.04124 33.6837 1.04124C30.2496 1.04119 26.8153 1.01337 23.3817 1.04904C19.9482 1.08472 16.5111 0.881543 13.0821 1.16977C12.3489 1.2314 11.6155 1.37277 10.9014 1.55345C10.3339 1.69706 9.78666 1.93597 9.24681 2.17032C8.62974 2.43819 8.00393 2.70348 7.43097 3.05082C6.75221 3.46231 6.11098 3.94084 5.48028 4.42522C4.59168 5.10767 3.83403 5.92605 3.16034 6.81956C2.51464 7.67595 1.93969 8.58015 1.54319 9.57875C1.26773 10.2725 1.04727 10.9896 0.83239 11.7053C0.731605 12.0409 0.698802 12.3975 0.640857 12.7455C0.562603 13.2155 0.4381 13.685 0.425121 14.1572C0.395429 15.2375 0.366006 16.3215 0.647167 17.385C0.81606 18.0239 0.89411 18.6913 1.10991 19.3121C1.36175 20.0366 1.68531 20.7422 2.04093 21.4229C2.36493 22.0432 2.77346 22.6192 3.14631 23.2173C3.48349 23.0162 3.76052 22.8498 4.03871 22.6853C4.59496 22.3564 5.15623 22.0357 5.70681 21.6975C6.03053 21.4987 6.33768 21.2729 6.67387 21.0593C6.79196 21.1207 6.90126 21.1685 6.98288 21.2457C7.50477 21.7389 7.97773 22.2963 8.54974 22.7209C9.19644 23.2009 9.9064 23.6132 10.6335 23.962C11.2674 24.2661 11.9554 24.468 12.6344 24.6638C13.1434 24.8106 13.6722 24.9233 14.1991 24.9655C14.8382 25.0167 15.4846 24.9704 16.1275 24.982C16.3376 24.9858 16.3988 24.915 16.3956 24.7098C16.3848 24.0075 16.3909 23.3048 16.391 22.5745C16.3912 21.5754 16.3909 20.6041 16.3911 19.605C16.3916 17.8361 16.3913 16.0951 16.3922 14.3541C16.3923 14.193 16.4192 14.0405 16.1641 14.0455C15.4917 14.0585 14.8171 14.0222 14.1473 14.0661C13.9387 14.0798 13.7427 14.287 13.5189 14.4061C13.003 14.6868 12.5049 14.9601 12.016 15.249C11.2736 15.6877 10.5347 16.1322 9.79988 16.5833C9.12262 16.9992 8.45277 17.4271 7.75881 17.8521C7.60729 17.918 7.51033 17.8945 7.46256 17.7468C7.39715 17.5445 7.31762 17.3454 7.27019 17.139C7.15509 16.6381 6.98667 16.1365 6.96569 15.63C6.93742 14.9473 7.02736 14.2598 7.06684 13.5545C7.06705 13.5083 7.06699 13.4819 7.07597 13.4353C7.15774 13.1909 7.23048 12.9668 7.30414 12.7197C7.59028 11.7007 8.20329 10.8786 8.73071 10.011C8.73037 10.0106 8.7311 10.0115 8.75099 10.0085C8.93572 9.82921 9.10056 9.65283 9.26517 9.47625C9.26493 9.47605 9.26532 9.47664 9.28597 9.47432C9.56985 9.25513 9.83309 9.03824 10.1153 8.81914C10.1615 8.77927 10.1887 8.74163 10.2284 8.6876C10.7548 8.32412 11.2999 8.03634 11.898 7.81038C11.9838 7.77075 12.05 7.7327 12.1373 7.69225C12.3234 7.61168 12.4884 7.5335 12.6644 7.47082C12.7271 7.45688 12.7787 7.42746 12.8553 7.39814C13.0413 7.37684 13.2023 7.35544 13.3866 7.33439C13.5728 7.27701 13.7357 7.21928 13.9207 7.16118C13.9872 7.16056 14.0316 7.1603 14.1014 7.16014C14.2287 7.16003 14.3305 7.15983 14.4587 7.15975C14.6259 7.1579 14.7668 7.15592 14.9323 7.15535C15.0394 7.15524 15.1218 7.15371 15.2297 7.15365C15.3571 7.1541 15.4591 7.1531 15.5847 7.15404C15.6717 7.15472 15.7349 7.15346 15.8205 7.15356C15.8875 7.15404 15.9322 7.15315 16.0046 7.1542C16.6472 7.15505 17.2621 7.15396 17.8988 7.15424C17.9857 7.17676 18.0509 7.19789 18.1164 7.24151C18.1193 7.30902 18.1219 7.35406 18.1113 7.39918C18.0981 7.39928 18.0721 7.39382 18.0721 7.39382Z" fill="#334155"/>
<path d="M27.6781 15.6184C27.7036 15.8598 27.7495 16.1247 27.728 16.3841C27.63 17.5664 27.2501 18.6771 26.7701 19.7478C26.4124 20.5456 25.967 21.3025 25.3794 21.9633C24.9349 22.4633 24.5182 22.991 24.0432 23.4599C23.6388 23.8592 23.1917 24.2252 22.7224 24.5459C22.126 24.9537 21.5121 25.3509 20.8617 25.6601C20.2129 25.9687 19.514 26.1761 18.8285 26.4017C18.499 26.5102 18.1319 26.5157 17.8146 26.6471C17.5499 26.7567 17.2961 26.839 17.0132 26.8397C16.8386 26.8401 16.6637 26.8341 16.4895 26.8431C16.2265 26.8568 15.9522 26.8401 15.7041 26.911C15.3638 27.0083 15.052 26.9684 14.7197 26.8937C14.4869 26.8413 14.2365 26.8548 13.9943 26.8595C13.5683 26.8677 13.1471 26.9062 12.7539 26.6621C12.6115 26.5737 12.4123 26.5798 12.2417 26.5331C11.8315 26.4209 11.4185 26.3164 11.0147 26.1839C10.5431 26.0292 10.0637 25.8822 9.61777 25.669C9.14 25.4406 8.68913 25.1517 8.24179 24.8653C7.90561 24.6501 7.59092 24.4007 7.27185 24.1597C7.10345 24.0324 6.9893 24.0173 6.79301 24.1693C6.5067 24.391 6.1557 24.5288 5.83347 24.7045C5.6742 24.7913 5.51778 24.8834 5.3597 24.9724C5.1331 25.1001 5.11647 25.281 5.31546 25.4375C5.67439 25.7197 6.02234 26.0172 6.39448 26.2807C6.59592 26.4233 6.8467 26.4941 7.05932 26.6234C7.32995 26.7881 7.56727 27.0145 7.84928 27.1521C8.60885 27.5227 9.37304 27.8895 10.1585 28.1991C10.5628 28.3584 11.0167 28.3912 11.4474 28.4843C11.51 28.4978 11.5709 28.5243 11.6288 28.5525C11.7208 28.5974 11.8051 28.6783 11.9004 28.6927C12.5362 28.7886 13.1718 28.8995 13.8118 28.9499C14.4994 29.0039 15.1921 29.0221 15.8818 29.0094C16.5155 28.9977 17.1492 28.9613 17.7662 28.7598C18.0294 28.6738 18.3399 28.7412 18.6116 28.6715C19.0227 28.566 19.41 28.357 19.8238 28.2763C20.1604 28.2106 20.4913 28.1779 20.8091 28.0196C21.33 27.7602 21.89 27.5763 22.3994 27.298C23.0579 26.9382 23.719 26.5643 24.3127 26.11C25.0203 25.5685 25.6568 24.9344 26.3263 24.3429C26.427 24.254 26.5398 24.1789 26.6687 24.102C26.0772 24.8922 25.3203 25.5261 24.5308 26.1205C22.6004 27.5737 20.4297 28.4994 18.0618 28.9314C16.3596 29.242 14.641 29.2506 12.9223 28.9997C10.778 28.6865 8.78657 27.9559 6.96108 26.7996C6.27095 26.3625 5.645 25.8239 4.99227 25.3282C4.94124 25.2895 4.90978 25.225 4.848 25.1449C5.2576 24.8925 5.64806 24.6496 6.04087 24.4106C6.28565 24.2617 6.54253 24.1309 6.77792 23.9687C6.95827 23.8445 7.08566 23.8711 7.24992 24.0021C8.61847 25.0942 10.153 25.8694 11.8446 26.3117C12.6602 26.525 13.4865 26.7157 14.3428 26.7044C14.5562 26.7016 14.7713 26.7885 14.9839 26.7818C15.9465 26.7514 16.9008 26.6671 17.8529 26.4868C19.0281 26.2642 20.1358 25.8763 21.1907 25.3323C23.2408 24.275 24.8775 22.7663 26.0741 20.7878C26.6816 19.7834 27.1341 18.7119 27.3853 17.5674C27.5242 16.9346 27.5762 16.2827 27.6781 15.6184Z" fill="#334155"/>
<path d="M26.7067 24.103C26.7798 23.9548 26.854 23.7859 26.9661 23.6476C27.6973 22.7459 28.3505 21.7926 28.8015 20.7204C29.0952 20.0224 29.3236 19.2971 29.585 18.5854C29.928 17.6517 29.9843 16.6745 30.0611 15.6951C30.1473 14.5968 30.0721 13.5148 29.8196 12.449C29.6247 11.6269 29.382 10.8158 29.1404 10.0058C29.1168 9.9264 28.9527 9.84265 28.8518 9.84013C28.239 9.82483 27.6255 9.83376 27.0123 9.83157C26.8682 9.83105 26.7243 9.81884 26.5951 9.81272C26.8166 10.3718 27.0531 10.9263 27.2567 11.4925C27.5761 12.3808 27.7898 13.291 27.7045 14.2649C27.5806 13.3213 27.4351 12.3654 27.1073 11.4509C26.9248 10.9416 26.7026 10.4459 26.4818 9.95133C26.3924 9.75099 26.393 9.66238 26.6472 9.66556C27.3792 9.6747 28.1115 9.67788 28.8434 9.66699C29.0702 9.66362 29.1784 9.75504 29.2585 9.95759C30.0121 11.862 30.3344 13.8324 30.1983 15.8782C30.0486 18.1287 29.3914 20.2192 28.1834 22.1214C27.7458 22.8105 27.2142 23.4399 26.7067 24.103Z" fill="#334155"/>
<path d="M18.0649 7.41438C18.0721 7.39382 18.0981 7.39928 18.1225 7.40818C18.1396 7.44951 18.1323 7.48193 18.1249 7.51435C18.1249 7.51435 18.0986 7.51397 18.0858 7.5167C18.0678 7.49127 18.0627 7.46311 18.0649 7.41438Z" fill="#334155"/>
<path d="M2.66933 14.584C2.66979 14.8625 2.67024 15.1411 2.65319 15.4492C2.62813 15.5172 2.62057 15.5556 2.61302 15.594C2.72781 16.1994 2.83456 16.8064 2.96011 17.4096C3.04933 17.8382 3.12898 18.2741 3.27652 18.6839C3.43846 19.1336 3.66742 19.56 3.88566 19.9872C3.90772 20.0303 4.07944 20.0473 4.14383 20.0104C4.57734 19.7619 5.00061 19.4955 5.46356 19.2352C5.88403 19.8434 6.26815 20.4514 6.65228 21.0593C6.33768 21.2729 6.03053 21.4987 5.70681 21.6975C5.15623 22.0357 4.59496 22.3564 4.03871 22.6853C3.76052 22.8498 3.48349 23.0162 3.14631 23.2173C2.77346 22.6192 2.36493 22.0432 2.04093 21.4229C1.68531 20.7422 1.36175 20.0366 1.10991 19.3121C0.89411 18.6913 0.81606 18.0239 0.647167 17.385C0.366006 16.3215 0.395429 15.2375 0.425121 14.1572C0.4381 13.685 0.562603 13.2155 0.640857 12.7455C0.698802 12.3975 0.731605 12.0409 0.83239 11.7053C1.04727 10.9896 1.26773 10.2725 1.54319 9.57875C1.93969 8.58015 2.51464 7.67595 3.16034 6.81956C3.83403 5.92605 4.59168 5.10767 5.48028 4.42522C6.11098 3.94084 6.75221 3.46231 7.43097 3.05082C8.00393 2.70348 8.62974 2.43819 9.24681 2.17032C9.78666 1.93597 10.3339 1.69706 10.9014 1.55345C11.6155 1.37277 12.3489 1.2314 13.0821 1.16977C16.5111 0.881543 19.9482 1.08472 23.3817 1.04904C26.8153 1.01337 30.2496 1.04119 33.6837 1.04124C34.0923 1.04124 34.0923 1.04139 34.0924 1.46236C34.0924 1.92749 34.0829 2.3929 34.0967 2.85761C34.1031 3.07062 34.0248 3.14579 33.8223 3.12175C33.754 3.11364 33.6839 3.12052 33.6146 3.12052C27.1523 3.12053 20.69 3.1157 14.2277 3.13029C13.742 3.13139 13.2544 3.25911 12.7718 3.34977C12.3131 3.43594 11.843 3.50482 11.4076 3.66297C10.6306 3.9452 9.85697 4.25081 9.11801 4.61908C8.53304 4.9106 7.97457 5.2742 7.45263 5.66955C6.15234 6.65446 5.06548 7.83679 4.25083 9.26391C3.76864 10.1086 3.34508 10.9711 3.13038 11.9262C3.02361 12.4011 2.90277 12.8729 2.76503 13.3766C2.67893 13.6938 2.60116 13.9783 2.56152 14.2681C2.54804 14.3667 2.63064 14.4783 2.66933 14.584Z" fill="#334155"/>
<path d="M18.1228 7.54239C18.1323 7.48193 18.1396 7.44951 18.1358 7.40809C18.1219 7.35406 18.1193 7.30902 18.1382 7.241C18.1846 7.16342 18.2095 7.10883 18.2344 7.05424C18.0534 6.99038 17.8735 6.87504 17.6913 6.87133C16.7671 6.85251 15.8424 6.86582 14.9179 6.86045C14.6856 6.85911 14.5321 6.95913 14.4323 7.15963C14.3305 7.15983 14.2287 7.16003 14.0987 7.14086C14.013 7.1144 13.9554 7.10732 13.8755 7.10024C13.8087 7.10024 13.7641 7.10024 13.705 7.08391C13.589 7.08029 13.4855 7.08397 13.3868 7.10757C13.171 7.15917 12.9579 7.22237 12.7429 7.27758C12.6775 7.29439 12.6029 7.28671 12.5434 7.31397C12.2387 7.45347 11.9358 7.59699 11.6357 7.74623C11.2743 7.92603 10.9082 8.09898 10.5605 8.30278C10.387 8.40444 10.25 8.56823 10.0757 8.70606C9.90074 8.82491 9.73421 8.92884 9.59599 9.06211C9.46983 9.18376 9.37433 9.33721 9.26532 9.47664C9.26532 9.47664 9.26493 9.47605 9.24337 9.47636C8.95902 9.56392 8.7956 9.74233 8.7311 10.0115C8.7311 10.0115 8.73037 10.0106 8.70843 10.011C8.56319 10.1094 8.43427 10.2012 8.31854 10.3073C8.23748 10.3817 8.17442 10.4757 8.07288 10.5974C7.91698 10.2295 7.72508 10.1281 7.42133 10.2325C7.30649 10.272 7.13007 10.2937 7.04682 10.2336C6.79043 10.0482 6.5849 10.2232 6.36136 10.2776C6.29111 10.2947 6.22405 10.3249 6.15553 10.3491C6.13604 10.3307 6.11654 10.3123 6.09705 10.294C6.29755 9.97601 6.50099 9.65986 6.69724 9.33931C6.788 9.19106 6.86472 9.03421 6.94781 8.88126C6.94781 8.88126 6.94851 8.8821 6.96871 8.87982C7.23787 8.64462 7.47827 8.40166 7.73761 8.18095C8.23573 7.75702 8.72763 7.32254 9.25464 6.93689C9.63846 6.65603 10.0776 6.45161 10.4842 6.20028C10.5536 6.15737 10.5831 6.04986 10.631 5.9722C10.6751 5.97168 10.7192 5.97116 10.8054 5.97104C10.8744 5.97153 10.9012 5.97163 10.9394 5.98613C11.0422 5.93153 11.1336 5.86253 11.2448 5.79354C11.291 5.79354 11.3174 5.79354 11.3571 5.80934C11.4265 5.8222 11.4858 5.83005 11.5381 5.8145C11.8249 5.72918 12.114 5.64845 12.3928 5.54137C12.458 5.51633 12.4864 5.39528 12.5317 5.31841C12.9427 5.25074 13.3536 5.18198 13.7649 5.11615C13.87 5.09934 13.9765 5.09184 14.1351 5.08032C14.4919 5.10045 14.796 5.13748 15.1001 5.13765C21.2237 5.14104 27.3473 5.14019 33.4709 5.14019C33.5401 5.14019 33.6099 5.1457 33.6785 5.13921C33.8941 5.11879 33.9837 5.20778 33.9765 5.4292C33.965 5.78497 33.9736 6.14138 33.9734 6.49751C33.9732 6.92166 33.973 6.92199 33.5471 6.922C29.4219 6.92209 25.2966 6.92197 21.1714 6.92249C21.0628 6.92251 20.9471 6.90625 20.8473 6.93764C20.6689 6.99382 20.4405 7.00948 20.4319 7.27949C20.4315 11.0619 20.4311 14.8443 20.407 18.6601C20.3597 18.8027 20.3158 18.9117 20.3155 19.0209C20.3112 20.7512 20.3127 22.4816 20.312 24.2119C20.3119 24.3104 20.3297 24.4199 20.2929 24.5041C20.2614 24.576 20.1654 24.6643 20.0947 24.6672C19.6736 24.6845 19.2516 24.6801 18.8298 24.681C18.4121 24.6819 18.4119 24.6808 18.4119 24.2488C18.4118 22.6668 18.4149 21.0847 18.4085 19.5027C18.4076 19.264 18.3698 19.0242 18.3309 18.7878C18.3239 18.7452 18.2282 18.7172 18.1734 18.6825C18.1734 17.6546 18.1781 16.6268 18.1725 15.599C18.1576 12.9228 18.1382 10.2466 18.1228 7.54239Z" fill="#334155"/>
<path d="M6.67387 21.0593C6.26815 20.4514 5.88403 19.8434 5.48173 19.2262C5.4892 19.1353 5.55474 19.0416 5.53431 18.9739C5.33789 18.3236 5.12614 17.678 4.92044 17.0305C4.70925 16.3656 4.61254 15.6755 4.64789 14.9875C4.68366 14.2914 4.80735 13.5976 4.92754 12.9089C5.00217 12.4813 5.14192 12.065 5.2852 11.6436C5.26456 12.0482 5.26751 12.4709 5.14574 12.8539C4.91165 13.5902 4.98814 14.3435 4.93548 15.0889C4.91563 15.37 4.99966 15.6582 4.98116 15.9396C4.95145 16.3912 5.06606 16.7962 5.2486 17.2003C5.34114 17.4052 5.44636 17.4165 5.61185 17.3164C5.75837 17.2278 5.85816 17.2385 5.98548 17.3883C6.25506 17.7054 6.63274 17.7794 7.05783 17.7796C7.02622 17.4418 7.00914 17.1321 6.96561 16.8262C6.91204 16.4498 6.78759 16.0772 6.78159 15.7016C6.77223 15.1161 6.85376 14.5297 6.86024 13.9432C6.86233 13.7539 6.83952 13.6113 7.06657 13.5743C7.02736 14.2598 6.93742 14.9473 6.96569 15.63C6.98667 16.1365 7.15509 16.6381 7.27019 17.139C7.31762 17.3454 7.39715 17.5445 7.46256 17.7468C7.51033 17.8945 7.60729 17.918 7.75895 17.8771C7.80957 18.0415 7.80769 18.2008 7.87478 18.3218C8.07446 18.6821 8.29016 19.0349 8.52264 19.3748C8.62229 19.5206 8.77885 19.6274 8.90678 19.7733C8.78192 20.0513 8.93681 20.1271 9.14653 20.167C9.14614 20.1672 9.1466 20.1665 9.14543 20.1889C9.22424 20.2758 9.30422 20.3402 9.40166 20.4077C9.44753 20.4469 9.47593 20.4829 9.50446 20.5404C9.63532 20.6626 9.76605 20.7635 9.9045 20.8651C9.91222 20.8659 9.91827 20.8802 9.91924 20.9014C10.0192 20.9872 10.1183 21.0518 10.2163 21.117C10.2153 21.1177 10.2164 21.1155 10.2168 21.1365C10.2912 21.2322 10.3554 21.3213 10.4409 21.3792C11.3896 22.0224 12.4271 22.4663 13.5469 22.7018C13.7276 22.7398 13.9375 22.6388 14.1587 22.6053C14.9191 22.6065 15.6548 22.6044 16.3905 22.6023C16.3909 23.3048 16.3848 24.0075 16.3956 24.7098C16.3988 24.915 16.3376 24.9858 16.1275 24.982C15.4846 24.9704 14.8382 25.0167 14.1991 24.9655C13.6722 24.9233 13.1434 24.8106 12.6344 24.6638C11.9554 24.468 11.2674 24.2661 10.6335 23.962C9.9064 23.6132 9.19644 23.2009 8.54974 22.7209C7.97773 22.2963 7.50477 21.7389 6.98288 21.2457C6.90126 21.1685 6.79196 21.1207 6.67387 21.0593Z" fill="#334155"/>
<path d="M7.06684 13.5545C6.83952 13.6113 6.86233 13.7539 6.86024 13.9432C6.85376 14.5297 6.77223 15.1161 6.78159 15.7016C6.78759 16.0772 6.91204 16.4498 6.96561 16.8262C7.00914 17.1321 7.02622 17.4418 7.05783 17.7796C6.63274 17.7794 6.25506 17.7054 5.98548 17.3883C5.85816 17.2385 5.75837 17.2278 5.61185 17.3164C5.44636 17.4165 5.34114 17.4052 5.2486 17.2003C5.06606 16.7962 4.95145 16.3912 4.98116 15.9396C4.99966 15.6582 4.91563 15.37 4.93548 15.0889C4.98814 14.3435 4.91165 13.5902 5.14574 12.8539C5.26751 12.4709 5.26456 12.0482 5.30138 11.6287C5.3038 11.5485 5.32278 11.483 5.3645 11.3938C5.41268 11.3128 5.43811 11.2556 5.46355 11.1984C5.74791 10.6667 6.01534 10.1249 6.32369 9.60754C6.48024 9.34485 6.71052 9.1261 6.92764 8.88437C6.86472 9.03421 6.788 9.19106 6.69724 9.33931C6.50099 9.65986 6.29755 9.97601 6.09705 10.294C6.11654 10.3123 6.13604 10.3307 6.15553 10.3491C6.22405 10.3249 6.29111 10.2947 6.36136 10.2776C6.5849 10.2232 6.79043 10.0482 7.04682 10.2336C7.13007 10.2937 7.30649 10.272 7.42133 10.2325C7.72508 10.1281 7.91698 10.2295 8.07288 10.5974C8.17442 10.4757 8.23748 10.3817 8.31854 10.3073C8.43427 10.2012 8.56319 10.1094 8.70877 10.0114C8.20329 10.8786 7.59028 11.7007 7.2806 12.7198C7.17542 12.8092 7.01573 12.9003 7.02742 12.9374C7.08226 13.1113 6.79792 13.3102 7.06694 13.4555C7.06699 13.4819 7.06705 13.5083 7.06684 13.5545ZM6.0122 10.6015C6.04335 10.6576 6.0745 10.7137 6.10565 10.7698C6.15198 10.7272 6.19831 10.6847 6.24464 10.6422C6.17558 10.6191 6.10651 10.596 6.0122 10.6015Z" fill="#334155"/>
<path d="M8.90956 19.7519C8.77885 19.6274 8.62229 19.5206 8.52264 19.3748C8.29016 19.0349 8.07446 18.6821 7.87478 18.3218C7.80769 18.2008 7.80957 18.0415 7.77979 17.8747C8.45277 17.4271 9.12262 16.9992 9.79988 16.5833C10.5347 16.1322 11.2736 15.6877 12.016 15.249C12.5049 14.9601 13.003 14.6868 13.5424 14.4057C13.6796 14.3903 13.7713 14.3757 13.846 14.3638C13.8627 14.7254 13.8933 15.0624 13.8904 15.3992C13.8863 15.8597 13.8568 16.3199 13.8201 16.7896C13.4541 17.0127 13.1031 17.2217 12.7603 17.4433C12.6712 17.501 12.6075 17.598 12.5283 17.683C12.5245 17.6892 12.51 17.6887 12.4859 17.6834C12.2874 17.7954 12.1128 17.9126 11.938 18.0294C11.9377 18.029 11.9386 18.0295 11.9156 18.028C11.8108 18.0528 11.7202 18.0647 11.6485 18.1077C11.2384 18.3539 10.8305 18.6039 10.4278 18.8619C10.3541 18.9091 10.3078 18.9992 10.246 19.0685C10.2432 19.0675 10.2427 19.0735 10.2208 19.0643C10.0972 19.0894 9.98661 19.1083 9.89536 19.1608C9.56327 19.3517 9.23763 19.5539 8.90956 19.7519Z" fill="#334155"/>
<path d="M16.391 22.5745C15.6548 22.6044 14.9191 22.6065 14.1589 22.5775C14.1346 21.5752 14.1348 20.6039 14.1568 19.6283C14.2951 19.4916 14.3183 19.371 14.1349 19.254C14.1349 19.1872 14.1349 19.1426 14.1585 19.0926C14.2061 18.8205 14.2279 18.5536 14.255 18.2873C14.2692 18.1482 14.2925 18.01 14.3057 17.915C14.5008 17.915 14.6489 17.9469 14.7756 17.9084C15.0434 17.8268 15.3021 17.7773 15.5788 17.8607C15.6654 17.8868 15.786 17.9043 15.8556 17.8642C16.1045 17.721 16.1541 17.8431 16.1545 18.0582C16.1553 18.4729 16.1525 18.8877 16.156 19.3024C16.1573 19.4627 16.1563 19.6337 16.3905 19.6328C16.3909 20.6041 16.3912 21.5754 16.391 22.5745Z" fill="#334155"/>
<path d="M16.3911 19.605C16.1563 19.6337 16.1573 19.4627 16.156 19.3024C16.1525 18.8877 16.1553 18.4729 16.1545 18.0582C16.1541 17.8431 16.1045 17.721 15.8556 17.8642C15.786 17.9043 15.6654 17.8868 15.5788 17.8607C15.3021 17.7773 15.0434 17.8268 14.7756 17.9084C14.6489 17.9469 14.5008 17.915 14.3057 17.915C14.2925 18.01 14.2692 18.1482 14.255 18.2873C14.2279 18.5536 14.2061 18.8205 14.1584 19.0648C14.1348 18.3928 14.1282 17.7432 14.1385 17.0938C14.142 16.8704 14.0765 16.7528 13.8382 16.7802C13.8568 16.3199 13.8863 15.8597 13.8904 15.3992C13.8933 15.0624 13.8627 14.7254 13.846 14.3638C13.7713 14.3757 13.6796 14.3903 13.5644 14.4053C13.7427 14.287 13.9387 14.0798 14.1473 14.0661C14.8171 14.0222 15.4917 14.0585 16.1641 14.0455C16.4192 14.0405 16.3923 14.193 16.3922 14.3541C16.3913 16.0951 16.3916 17.8361 16.3911 19.605Z" fill="#334155"/>
<path d="M20.4521 7.26846C20.4405 7.00948 20.6689 6.99382 20.8473 6.93764C20.9471 6.90625 21.0628 6.92251 21.1714 6.92249C25.2966 6.92197 29.4219 6.92209 33.5471 6.922C33.973 6.92199 33.9732 6.92166 33.9734 6.49751C33.9736 6.14138 33.965 5.78497 33.9765 5.4292C33.9837 5.20778 33.8941 5.11879 33.6785 5.13921C33.6099 5.1457 33.5401 5.14019 33.4709 5.14019C27.3473 5.14019 21.2237 5.14104 15.1001 5.13765C14.796 5.13748 14.4919 5.10045 14.1609 5.08029C14.1975 5.04083 14.2584 4.97334 14.3248 4.9673C14.6482 4.93788 14.9731 4.90868 15.2974 4.90852C21.4614 4.90536 27.6254 4.90631 33.7894 4.90641C33.8958 4.90641 34.0022 4.90641 34.0931 4.90641C34.0931 5.55839 34.0787 6.17916 34.0996 6.79874C34.1091 7.08083 34.032 7.16477 33.7418 7.16414C29.4577 7.15481 25.1735 7.15675 20.8894 7.16186C20.7503 7.16203 20.6113 7.22418 20.4521 7.26846Z" fill="#334155"/>
<path d="M18.1734 18.7103C18.2282 18.7172 18.3239 18.7452 18.3309 18.7878C18.3698 19.0242 18.4076 19.264 18.4085 19.5027C18.4149 21.0847 18.4118 22.6668 18.4119 24.2488C18.4119 24.6808 18.4121 24.6819 18.8298 24.681C19.2516 24.6801 19.6736 24.6845 20.0947 24.6672C20.1654 24.6643 20.2614 24.576 20.2929 24.5041C20.3297 24.4199 20.3119 24.3104 20.312 24.2119C20.3127 22.4816 20.3112 20.7512 20.3155 19.0209C20.3158 18.9117 20.3597 18.8027 20.4067 18.6879C20.4304 20.6418 20.4272 22.6014 20.4357 24.5609C20.4367 24.7913 20.3781 24.8706 20.1379 24.8649C19.4776 24.8491 18.8167 24.8594 18.1734 24.8594C18.1734 22.7967 18.1734 20.7674 18.1734 18.7103Z" fill="#334155"/>
<path d="M14.4587 7.15975C14.5321 6.95913 14.6856 6.85911 14.9179 6.86045C15.8424 6.86582 16.7671 6.85251 17.6913 6.87133C17.8735 6.87504 18.0534 6.99038 18.2344 7.05424C18.2095 7.10883 18.1846 7.16342 18.1379 7.21851C18.0509 7.19789 17.9857 7.17676 17.8927 7.13157C17.8342 7.08665 17.8037 7.04785 17.7728 7.04758C17.2228 7.04281 16.6728 7.03992 16.1229 7.04645C16.0738 7.04703 16.0256 7.11538 15.9769 7.15226C15.9322 7.15315 15.8875 7.15404 15.8164 7.13403C15.7137 7.12611 15.6374 7.1391 15.561 7.1521C15.4591 7.1531 15.3571 7.1541 15.2251 7.13324C15.0806 6.99956 14.9812 6.9892 14.9076 7.15394C14.7668 7.15592 14.6259 7.1579 14.4587 7.15975Z" fill="#334155"/>
<path d="M10.6138 5.98026C10.5831 6.04986 10.5536 6.15737 10.4842 6.20028C10.0776 6.45161 9.63846 6.65603 9.25464 6.93689C8.72763 7.32254 8.23573 7.75702 7.73761 8.18095C7.47827 8.40166 7.23787 8.64462 6.96828 8.87947C6.99424 8.78589 7.01829 8.66614 7.09091 8.59857C7.91968 7.82744 8.66937 6.9592 9.70998 6.44501C10.008 6.29776 10.3012 6.14082 10.6138 5.98026Z" fill="#334155"/>
<path d="M10.0965 8.70391C10.25 8.56823 10.387 8.40444 10.5605 8.30278C10.9082 8.09898 11.2743 7.92603 11.6357 7.74623C11.9358 7.59699 12.2387 7.45347 12.5434 7.31397C12.6029 7.28671 12.6775 7.29439 12.7429 7.27758C12.9579 7.22237 13.171 7.15917 13.3868 7.10757C13.4855 7.08397 13.589 7.08029 13.6918 7.09984C13.5832 7.19942 13.4732 7.26673 13.3632 7.33404C13.2023 7.35544 13.0413 7.37684 12.8364 7.39921C12.7461 7.41856 12.6997 7.43695 12.6533 7.45533C12.4884 7.5335 12.3234 7.61168 12.125 7.6768C12.0204 7.71315 11.9493 7.76256 11.8783 7.81196C11.2999 8.03634 10.7548 8.32412 10.2084 8.68757C10.1496 8.70392 10.123 8.70392 10.0965 8.70391Z" fill="#334155"/>
<path d="M16.0046 7.1542C16.0256 7.11538 16.0738 7.04703 16.1229 7.04645C16.6728 7.03992 17.2228 7.04281 17.7728 7.04758C17.8037 7.04785 17.8342 7.08665 17.8709 7.13019C17.2621 7.15396 16.6472 7.15505 16.0046 7.1542Z" fill="#334155"/>
<path d="M12.509 5.32087C12.4864 5.39528 12.458 5.51633 12.3928 5.54137C12.114 5.64845 11.8249 5.72918 11.5381 5.8145C11.4858 5.83005 11.4265 5.8222 11.3695 5.79382C11.4395 5.69554 11.5105 5.6286 11.5815 5.56166C11.8831 5.48222 12.1847 5.40277 12.509 5.32087Z" fill="#334155"/>
<path d="M2.67014 14.5578C2.63064 14.4783 2.54804 14.3667 2.56152 14.2681C2.60116 13.9783 2.67893 13.6938 2.76397 13.4017C2.74777 13.7747 2.70936 14.1531 2.67014 14.5578Z" fill="#334155"/>
<path d="M9.28597 9.47432C9.37433 9.33721 9.46983 9.18376 9.59599 9.06211C9.73421 8.92884 9.90074 8.82491 10.0757 8.72564C10.0964 8.76917 10.0964 8.79527 10.0963 8.82136C9.83309 9.03824 9.56985 9.25513 9.28597 9.47432Z" fill="#334155"/>
<path d="M7.07597 13.4353C6.79792 13.3102 7.08226 13.1113 7.02742 12.9374C7.01573 12.9003 7.17542 12.8092 7.27969 12.7428C7.23048 12.9668 7.15774 13.1909 7.07597 13.4353Z" fill="#334155"/>
<path d="M8.75099 10.0085C8.7956 9.74233 8.95902 9.56392 9.2436 9.47656C9.10056 9.65283 8.93572 9.82921 8.75099 10.0085Z" fill="#334155"/>
<path d="M13.3866 7.33439C13.4732 7.26673 13.5832 7.19942 13.7064 7.11617C13.7641 7.10024 13.8087 7.10024 13.8756 7.11557C13.8982 7.14112 13.8984 7.15133 13.8986 7.16155C13.7357 7.21928 13.5728 7.27701 13.3866 7.33439Z" fill="#334155"/>
<path d="M11.225 5.79354C11.1336 5.86253 11.0422 5.93153 10.9467 5.96904C10.9575 5.8914 10.9726 5.84525 10.9876 5.7991C11.0351 5.78243 11.0826 5.76577 11.1607 5.74798C11.2075 5.75876 11.2188 5.77432 11.225 5.79354Z" fill="#334155"/>
<path d="M11.2448 5.79354C11.2188 5.77432 11.2075 5.75876 11.1781 5.74033C11.2897 5.67698 11.4143 5.62018 11.5602 5.56252C11.5105 5.6286 11.4395 5.69554 11.3561 5.77801C11.3174 5.79354 11.291 5.79354 11.2448 5.79354Z" fill="#334155"/>
<path d="M14.9323 7.15535C14.9812 6.9892 15.0806 6.99956 15.1997 7.13179C15.1218 7.15371 15.0394 7.15524 14.9323 7.15535Z" fill="#334155"/>
<path d="M11.898 7.81038C11.9493 7.76256 12.0204 7.71315 12.1038 7.6792C12.05 7.7327 11.9838 7.77075 11.898 7.81038Z" fill="#334155"/>
<path d="M10.9675 5.79991C10.9726 5.84525 10.9575 5.8914 10.9353 5.95464C10.9012 5.97163 10.8744 5.97153 10.8275 5.97106C10.854 5.91403 10.9007 5.85738 10.9675 5.79991Z" fill="#334155"/>
<path d="M13.9207 7.16118C13.8984 7.15133 13.8982 7.14112 13.8979 7.11557C13.9554 7.10732 14.013 7.1144 14.0733 7.14077C14.0316 7.1603 13.9872 7.16056 13.9207 7.16118Z" fill="#334155"/>
<path d="M5.44654 11.2069C5.43811 11.2556 5.41268 11.3128 5.36707 11.3734C5.37445 11.323 5.40199 11.2692 5.44654 11.2069Z" fill="#334155"/>
<path d="M10.1153 8.81914C10.0964 8.79527 10.0964 8.76917 10.0965 8.7235C10.123 8.70392 10.1496 8.70392 10.196 8.70395C10.1887 8.74163 10.1615 8.77927 10.1153 8.81914Z" fill="#334155"/>
<path d="M2.62748 15.584C2.62057 15.5556 2.62812 15.5172 2.65278 15.4769C2.66056 15.5079 2.65125 15.5409 2.62748 15.584Z" fill="#334155"/>
<path d="M10.2168 21.1365C10.8773 21.4656 11.522 21.8521 12.2046 22.1531C12.669 22.3578 13.1864 22.4422 13.6798 22.5815C13.8679 22.6346 13.9599 22.5767 13.9601 22.3703C13.9621 20.5808 13.9676 18.7914 13.9705 17.002C13.9706 16.9764 13.9507 16.9508 13.9202 16.877C13.4645 17.1477 13.0198 17.4119 12.5536 17.6765C12.6075 17.598 12.6712 17.501 12.7603 17.4433C13.1031 17.2217 13.4541 17.0127 13.8201 16.7896C14.0765 16.7528 14.142 16.8704 14.1385 17.0938C14.1282 17.7432 14.1348 18.3928 14.1349 19.0702C14.1349 19.1426 14.1349 19.1872 14.1348 19.2795C14.1349 19.429 14.1349 19.5308 14.135 19.6327C14.1348 20.6039 14.1346 21.5752 14.1342 22.5743C13.9375 22.6388 13.7276 22.7398 13.5469 22.7018C12.4271 22.4663 11.3896 22.0224 10.4409 21.3792C10.3554 21.3213 10.2912 21.2322 10.2168 21.1365Z" fill="#334155"/>
<path d="M10.2208 19.0643C9.81836 19.3421 9.39398 19.6108 8.9509 19.8914C9.03031 19.99 9.08374 20.0564 9.14205 20.1448C8.93681 20.1271 8.78192 20.0513 8.90678 19.7733C9.23763 19.5539 9.56327 19.3517 9.89536 19.1608C9.98661 19.1083 10.0972 19.0894 10.2208 19.0643Z" fill="#334155"/>
<path d="M6.02482 10.5872C6.10651 10.596 6.17558 10.6191 6.24464 10.6422C6.19831 10.6847 6.15198 10.7272 6.10565 10.7698C6.0745 10.7137 6.04335 10.6576 6.02482 10.5872Z" fill="#334155"/>
<path d="M11.9156 18.028C11.4726 18.3237 11.0068 18.6182 10.5404 18.9117C10.4579 18.9636 10.3729 19.0116 10.2689 19.0654C10.3078 18.9992 10.3541 18.9091 10.4278 18.8619C10.8305 18.6039 11.2384 18.3539 11.6485 18.1077C11.7202 18.0647 11.8108 18.0528 11.9156 18.028Z" fill="#334155"/>
<path d="M39.8472 26.5692C38.3759 25.0287 37.7574 23.2097 38.024 21.125C38.2358 19.4685 39.0948 18.1551 40.3812 17.1129C42.2235 15.6202 44.3608 15.2822 46.6401 15.5464C48.3493 15.7445 49.8537 16.4045 51.0999 17.6128C51.1699 17.6807 51.2548 17.7333 51.3619 17.8154C50.94 18.1981 50.5654 18.5439 50.1838 18.882C49.963 19.0775 49.743 19.3884 49.5008 19.4108C49.29 19.4302 49.0465 19.1202 48.8209 18.9512C47.3865 17.8764 45.7804 17.5408 44.053 17.9541C42.5244 18.3199 41.3403 19.2102 40.8334 20.7294C40.2852 22.3723 40.6767 23.8593 41.979 25.0439C43.2695 26.2177 44.8087 26.5379 46.5017 26.2945C47.656 26.1285 48.5564 25.5769 49.1848 24.5903C49.2113 24.5486 49.2365 24.5059 49.2583 24.4617C49.2661 24.4459 49.2618 24.4243 49.2659 24.3631C49.1544 24.3562 49.0428 24.3435 48.9312 24.3434C47.8423 24.3418 46.7534 24.3371 45.6647 24.3463C45.4253 24.3484 45.3347 24.2885 45.3445 24.0282C45.3664 23.445 45.3608 22.8602 45.3472 22.2766C45.3426 22.0826 45.3963 22.0073 45.5917 22.0075C47.7595 22.0104 49.9272 22.0112 52.095 22.0055C52.3101 22.005 52.2974 22.1249 52.3025 22.2736C52.3745 24.3745 51.4737 26.0157 49.8866 27.3122C48.8944 28.1227 47.718 28.5235 46.4565 28.6452C44.4979 28.8341 42.6265 28.5512 40.9441 27.4567C40.5577 27.2053 40.2209 26.8775 39.8472 26.5692Z" fill="#334155"/>
<path d="M62.6078 17.5345C62.6659 17.4729 62.7239 17.4114 62.8225 17.3479C63.0152 17.2134 63.1673 17.0808 63.3194 16.9481C63.3194 16.9481 63.3254 16.9271 63.3596 16.9284C63.8905 16.6768 64.3868 16.423 64.8841 16.171C65.6579 15.7789 66.5033 15.6569 67.3474 15.5808C68.1127 15.5117 68.8717 15.6284 69.6286 15.7889C70.3078 15.9329 70.9165 16.2187 71.5251 16.5246C71.6871 16.606 71.8556 16.6744 72.0211 16.7488C72.0477 16.7633 72.0743 16.7778 72.1072 16.8283C72.2046 16.95 72.2894 17.0442 72.3884 17.1198C72.6027 17.2832 72.8242 17.437 73.0427 17.5947C73.0698 17.6126 73.0968 17.6305 73.1248 17.6875C73.2594 17.9057 73.382 18.0946 73.5286 18.2624C74.217 19.0508 74.5944 19.9874 74.7695 20.9983C74.8577 21.5077 74.8507 22.0396 74.8346 22.5598C74.8108 23.3263 74.6309 24.0653 74.2959 24.7593C73.9364 25.5043 73.4333 26.1425 72.829 26.7052C72.732 26.7955 72.6654 26.9185 72.5848 27.0264C72.5848 27.0264 72.5797 27.0432 72.5479 27.0419C72.0564 27.3135 71.6103 27.6135 71.1338 27.8528C70.4982 28.172 69.8327 28.4117 69.1086 28.4678C68.8185 28.4903 68.535 28.5984 68.2485 28.6675C67.9889 28.6741 67.7294 28.6807 67.4359 28.6571C66.742 28.493 66.0761 28.3824 65.4236 28.2183C64.7596 28.0513 64.1515 27.7458 63.5929 27.343C63.3984 27.2027 63.1811 27.0939 62.9742 26.9707C62.9542 26.9605 62.9342 26.9503 62.9073 26.9031C62.5 26.3725 62.088 25.8876 61.7022 25.3828C61.2171 24.7478 60.9672 23.9999 60.8366 23.2292C60.6496 22.1256 60.6785 21.0039 61.0974 19.9611C61.3636 19.2986 61.8219 18.7134 62.1915 18.092C62.2396 18.0111 62.2723 17.921 62.3121 17.8352C62.3219 17.8158 62.3317 17.7965 62.3781 17.771C62.479 17.6881 62.5434 17.6113 62.6078 17.5345ZM72.337 22.13C72.2221 21.5627 72.1915 20.9608 71.9753 20.4352C71.4755 19.2202 70.5364 18.4392 69.2863 18.0294C68.1797 17.6666 67.0673 17.6889 66.0052 18.1213C64.4637 18.7489 63.5139 19.8891 63.3193 21.585C63.1953 22.6656 63.3886 23.6784 64.0571 24.5554C64.7891 25.5157 65.7764 26.0598 66.9613 26.2909C69.5507 26.7958 72.2665 25.0198 72.337 22.13Z" fill="#334155"/>
<path d="M42.7619 3.57107C42.7638 3.59862 42.7657 3.62616 42.7458 3.69161C42.7182 3.83767 42.7075 3.94584 42.7074 4.05401C42.7062 6.96416 42.706 9.87431 42.7057 12.7845C42.7056 12.91 42.7057 13.0355 42.7057 13.1773C41.9223 13.1773 41.1766 13.1773 40.3952 13.1773C40.3952 13.0334 40.3952 12.9073 40.3952 12.7812C40.3948 9.79191 40.3945 6.80257 40.394 3.81324C40.3939 3.41529 40.3792 3.40037 39.9722 3.39953C39.4575 3.39847 38.9427 3.39329 38.4281 3.40236C38.2459 3.40558 38.1835 3.34124 38.1898 3.16134C38.2005 2.85487 38.1924 2.54774 38.1924 2.24089C38.1923 1.95882 38.1923 1.67674 38.1923 1.38923C38.3242 1.38273 38.4025 1.37441 38.4806 1.37566C42.0892 1.43358 45.7004 1.24841 49.3075 1.48927C49.5986 1.50871 49.8438 1.6571 50.1305 1.70258C50.4277 1.74972 50.6885 2.02618 50.9654 2.22469C50.9841 2.30041 50.9881 2.36736 51.0234 2.40495C51.248 2.64414 51.4795 2.87686 51.7112 3.1143C51.7172 3.09755 51.7296 3.06281 51.7601 3.03955C52.1321 3.67445 52.2418 4.35042 52.1893 5.05304C52.1309 4.84592 52.0932 4.64262 52.0504 4.41155C51.9058 4.76671 51.951 5.06354 52.1575 5.26206C52.097 5.46872 52.0377 5.65087 51.9771 5.80732C51.9666 5.66917 51.9573 5.55672 51.948 5.44426C51.9072 5.456 51.8663 5.46775 51.8255 5.47949C51.8764 5.59747 51.9273 5.71546 51.9791 5.85675C51.9768 5.94212 51.9737 6.00419 51.9512 6.06321C51.8843 6.03076 51.8368 6.00136 51.7871 5.97058C51.5485 6.61259 51.1419 7.05232 50.4865 7.27536C50.1977 7.37363 49.9416 7.57437 49.6798 7.74285C49.5223 7.84428 49.5051 7.99319 49.6027 8.15633C49.7293 8.36773 49.8578 8.57844 49.9732 8.79596C50.0651 8.96926 50.1386 9.15232 50.2441 9.38322C49.8119 9.38322 49.4656 9.40948 49.1252 9.37559C48.8059 9.34378 48.4217 9.36701 48.2899 8.96191C48.1406 8.50265 47.8166 8.17075 47.5 7.83675C47.4351 7.76824 47.2196 7.74195 47.1508 7.7955C46.896 7.99399 46.646 8.21326 46.7423 8.60831C46.7763 8.74807 46.7761 8.91316 46.7337 9.0486C46.7054 9.13911 46.5825 9.24739 46.4891 9.26123C46.2133 9.30209 45.9292 9.28477 45.6519 9.31898C45.3877 9.35158 45.2725 9.28256 45.264 9.02072C45.2225 7.74194 45.1839 6.46308 45.1442 5.18425C45.1421 5.11514 45.1431 5.04566 45.1356 4.97714C45.1331 4.95515 45.1076 4.93572 45.0445 4.84879C45.0356 5.00693 45.0263 5.09746 45.0261 5.18801C45.0248 5.8112 45.0301 6.43447 45.02 7.05751C45.0186 7.14398 44.9441 7.22927 44.9029 7.28722C44.9024 6.09665 44.8975 4.93393 44.9061 3.7713C44.9079 3.53856 44.8274 3.40562 44.5956 3.40275C44.0439 3.39591 43.4919 3.39565 42.9405 3.40859C42.8797 3.41002 42.8214 3.51443 42.7619 3.57107ZM49.7163 5.53112C49.7163 5.53112 49.7111 5.52816 49.7547 5.529C49.8502 5.38783 49.9662 5.25618 50.0371 5.10355C50.1969 4.75941 50.0571 4.23882 49.7612 4.04186C49.7612 4.04186 49.7593 4.02814 49.7688 3.97987C49.7042 3.93086 49.6396 3.88185 49.5969 3.81275C49.59 3.81982 49.583 3.82689 49.5868 3.79072C49.4465 3.69757 49.3132 3.53842 49.1647 3.52278C48.5415 3.45712 47.914 3.43096 47.2875 3.40377C47.2458 3.40196 47.1993 3.51183 47.1676 3.60986C47.1616 3.63662 47.1556 3.66339 47.1045 3.70277C47.0924 4.42427 47.0788 5.14575 47.075 5.86729C47.0749 5.89384 47.1716 5.9209 47.2787 5.94283C47.6956 5.94414 48.1124 5.94546 48.559 5.98206C48.7479 6.01188 48.9442 6.06954 49.1007 5.82429C49.1279 5.82517 49.1551 5.82605 49.2063 5.86018C49.4341 5.83787 49.6473 5.79348 49.7163 5.53112ZM43.0951 1.49352C41.5153 1.49352 39.9354 1.49352 38.3556 1.49352C38.3559 1.51954 38.3563 1.54555 38.3567 1.57156C41.5949 1.57156 44.8331 1.57156 48.0713 1.57156C48.0713 1.54555 48.0713 1.51954 48.0713 1.49352C46.4324 1.49352 44.7934 1.49352 43.0951 1.49352ZM40.5164 10.3733C40.5164 11.2596 40.5164 12.1458 40.5164 13.032C40.5415 13.0313 40.5665 13.0306 40.5916 13.0299C40.5916 11.8334 40.5916 10.6368 40.5916 9.4403C40.5665 9.44014 40.5415 9.43998 40.5165 9.43982C40.5165 9.73125 40.5165 10.0227 40.5164 10.3733ZM42.4775 9.76344C42.4775 10.8536 42.4775 11.9437 42.4775 13.0338C42.5135 13.0335 42.5494 13.0331 42.5854 13.0327C42.5854 12.3449 42.5854 11.6571 42.5854 10.9692C42.5853 10.5836 42.5877 10.198 42.5807 9.81247C42.5801 9.7797 42.5169 9.74806 42.4775 9.76344ZM40.9427 12.9631C40.9153 12.9719 40.888 12.9808 40.8606 12.9896C40.8977 13.0165 40.9343 13.0661 40.9718 13.0667C41.3442 13.0727 41.7168 13.0723 42.0893 13.0689C42.1445 13.0684 42.1995 13.0433 42.2547 13.0296C42.2519 13.0071 42.2492 12.9846 42.2466 12.9621C41.8286 12.9621 41.4106 12.9621 40.9427 12.9631ZM47.3055 6.13513C47.2986 6.16418 47.2917 6.19323 47.2848 6.22229C47.7058 6.22229 48.1267 6.22229 48.5477 6.22229C48.5474 6.191 48.5472 6.15972 48.547 6.12844C48.1495 6.12844 47.752 6.12844 47.3055 6.13513ZM49.1401 1.62225C49.1845 1.76507 49.3185 1.77445 49.5418 1.61436C49.3934 1.61436 49.2896 1.61436 49.1401 1.62225ZM49.2133 6.01696C49.1956 6.04186 49.1779 6.06676 49.1602 6.09166C49.1864 6.09828 49.2126 6.10491 49.2388 6.11153C49.2419 6.08239 49.2451 6.05325 49.2133 6.01696ZM50.2706 4.67062C50.2508 4.70259 50.2311 4.73457 50.2113 4.76654C50.2273 4.77445 50.2433 4.78236 50.2593 4.79028C50.2712 4.75896 50.2832 4.72765 50.2706 4.67062Z" fill="#334155"/>
<path d="M52.7478 15.7749C52.9721 15.7645 53.1965 15.7451 53.4209 15.7451C54.347 15.7447 55.2731 15.7502 56.2331 15.7852C56.2819 15.8293 56.2956 15.8507 56.3118 15.8529C56.9521 15.9376 57.5928 16.0189 58.233 16.1043C58.7735 16.1764 59.2356 16.4229 59.6298 16.7859C60.1915 17.3032 60.5761 17.9025 60.6735 18.7013C60.7316 19.1778 60.8138 19.6287 60.6599 20.096C60.6329 20.1778 60.6791 20.2837 60.6988 20.3993C60.6961 20.4468 60.686 20.4734 60.6566 20.5044C60.601 20.5524 60.5503 20.5904 60.531 20.6406C60.2445 21.3813 59.7389 21.9199 59.0295 22.2672C58.7376 22.4101 58.4376 22.5362 58.1278 22.6761C58.2105 22.8424 58.2653 22.9667 58.3319 23.0842C58.9822 24.2312 59.6346 25.377 60.2859 26.5234C60.5847 27.0495 60.8823 27.5762 61.1581 28.1002C61.1076 28.0887 61.0795 28.072 61.0514 28.0719C60.2872 28.0669 59.5229 28.0619 58.7587 28.0644C58.7147 28.0645 58.6709 28.1281 58.6109 28.1504C58.5315 28.0385 58.4644 27.9407 58.4058 27.838C57.517 26.28 56.6336 24.7189 55.7333 23.1675C55.6583 23.0384 55.4679 22.8923 55.337 22.8977C55.0907 22.9078 55.1862 23.1552 55.1856 23.3043C55.1791 24.8881 55.1778 26.472 55.186 28.0558C55.1871 28.2738 55.13 28.3536 54.9033 28.3446C54.4882 28.3281 54.072 28.34 53.6562 28.34C53.3638 28.34 53.0713 28.34 52.8063 28.34C52.8063 28.1269 52.8063 27.9604 52.8063 27.7939C52.8063 24.0125 52.8073 20.2311 52.8038 16.4496C52.8036 16.2247 52.7673 15.9998 52.7478 15.7749ZM57.4178 20.514C58.0368 20.326 58.3302 19.9315 58.3063 19.3191C58.2848 18.7689 57.9047 18.2715 57.3463 18.1943C56.7234 18.1081 56.0892 18.0996 55.4592 18.0749C55.397 18.0725 55.2747 18.1926 55.2737 18.2573C55.2606 19.037 55.2652 19.8169 55.2652 20.6387C55.9838 20.6529 56.6805 20.6882 57.4178 20.514Z" fill="#334155"/>
<path d="M76.971 2.962C77.175 2.45702 77.3589 1.96808 77.5701 1.49118C77.6093 1.4027 77.757 1.31078 77.8564 1.30871C78.5783 1.29368 79.3008 1.29535 80.0227 1.30958C80.1085 1.31127 80.2369 1.40218 80.2703 1.48286C80.8728 2.9403 81.4643 4.40229 82.0569 5.86382C82.7197 7.4987 83.3804 9.13445 84.0438 10.7691C84.3661 11.5634 84.6928 12.356 85.0157 13.15C85.0257 13.1745 85.017 13.2066 85.017 13.2588C84.9536 13.2699 84.8903 13.2905 84.827 13.2907C84.1444 13.2926 83.4617 13.2863 82.7792 13.2941C82.5865 13.2963 82.489 13.2459 82.4131 13.0465C82.1433 12.3379 81.8337 11.6445 81.5582 10.9379C81.4917 10.7674 81.4059 10.7086 81.2345 10.7089C79.6912 10.7122 78.1478 10.716 76.6045 10.7053C76.3914 10.7038 76.3629 10.8452 76.3088 10.972C76.027 11.6338 75.7454 12.2959 75.4799 12.9643C75.3849 13.2033 75.2688 13.3133 74.9849 13.2999C74.363 13.2706 73.7387 13.2908 73.1155 13.2908C73.0201 13.2908 72.9247 13.2908 72.7796 13.2908C74.1872 9.81994 75.5738 6.40106 76.971 2.962ZM79.5867 6.04119C79.3819 5.54828 79.1771 5.05538 78.9724 4.56247C78.9461 4.56828 78.9199 4.57408 78.8937 4.57988C78.3706 5.87653 77.8475 7.17318 77.3135 8.49681C78.4125 8.49681 79.4646 8.49681 80.5648 8.49681C80.234 7.66928 79.9174 6.87709 79.5867 6.04119Z" fill="#334155"/>
<path d="M89.0216 22.9586C88.6867 22.9645 88.379 22.9863 88.0735 22.9691C87.8417 22.9561 87.7714 23.0137 87.7732 23.2605C87.7851 24.8837 87.7728 26.507 87.7822 28.1302C87.7836 28.3631 87.7322 28.4391 87.4882 28.433C86.8057 28.4159 86.1225 28.4282 85.4395 28.4272C85.3433 28.4271 85.247 28.4177 85.1247 28.4113C85.1247 28.2993 85.1247 28.2127 85.1247 28.126C85.1244 24.0975 85.1264 20.069 85.1176 16.0405C85.1171 15.8011 85.1774 15.7364 85.4131 15.7393C86.571 15.7535 87.7295 15.7338 88.887 15.76C89.7477 15.7796 90.6102 15.851 91.4107 16.2103C92.8698 16.865 93.4627 18.2962 93.3279 19.7646C93.1512 21.6912 91.5727 22.6298 90.1711 22.8398C89.7997 22.8954 89.4236 22.9192 89.0216 22.9586ZM90.7922 19.4937C90.8112 18.7562 90.4743 18.2948 89.7448 18.1878C89.1517 18.1008 88.546 18.0974 87.9452 18.0705C87.8913 18.068 87.7845 18.1642 87.7838 18.2157C87.7734 19.0147 87.7765 19.8139 87.7765 20.6871C88.4643 20.6427 89.1246 20.6316 89.7758 20.5487C90.3408 20.4768 90.6953 20.1251 90.7922 19.4937Z" fill="#334155"/>
<path d="M72.2347 6.19823C71.7674 7.41684 71.3097 8.61445 70.8504 9.81144C70.4298 10.9075 70.0114 12.0044 69.5785 13.0956C69.5442 13.1821 69.4051 13.2797 69.3124 13.2821C68.6694 13.2982 68.0257 13.2865 67.3823 13.2933C67.2191 13.295 67.1491 13.2423 67.0894 13.0804C66.37 11.1271 65.6401 9.17758 64.9103 7.22807C64.2429 5.44534 63.5719 3.66397 62.9039 1.88149C62.8393 1.70909 62.7841 1.53314 62.716 1.3336C62.8052 1.32028 62.869 1.30269 62.9327 1.30251C63.596 1.30064 64.2595 1.31203 64.9223 1.2961C65.1563 1.29048 65.2449 1.38353 65.3213 1.59087C65.9826 3.38627 66.6575 5.17669 67.3257 6.96959C67.6595 7.8652 67.9876 8.7629 68.3549 9.75886C68.477 9.47209 68.5728 9.26587 68.6537 9.05396C69.4596 6.94377 70.2636 4.83285 71.0667 2.7216C71.2175 2.3252 71.3523 1.92229 71.5167 1.53177C71.5571 1.43566 71.6835 1.3124 71.773 1.31027C72.505 1.29286 73.2376 1.30084 73.97 1.30314C73.996 1.30322 74.0219 1.3244 74.0746 1.34741C73.4633 2.95982 72.8535 4.56839 72.2347 6.19823Z" fill="#334155"/>
<path d="M72.6044 27.024C72.6654 26.9185 72.732 26.7955 72.829 26.7052C73.4333 26.1425 73.9364 25.5043 74.2959 24.7593C74.6309 24.0653 74.8108 23.3263 74.8346 22.5598C74.8507 22.0396 74.8577 21.5077 74.7695 20.9983C74.5944 19.9874 74.217 19.0508 73.5286 18.2624C73.382 18.0946 73.2593 17.9058 73.127 17.7043C73.8057 18.2993 74.2825 19.0545 74.5882 19.9091C74.7366 20.324 74.801 20.7688 74.9051 21.1996C74.9285 21.2965 74.9588 21.3916 74.9859 21.4876C75.0133 21.4851 75.0407 21.4825 75.0681 21.48C75.0787 21.3613 75.0983 21.2425 75.0984 21.1237C75.1009 19.4319 75.1 17.74 75.1035 16.0481C75.1037 15.9565 75.1364 15.8649 75.1782 15.7981C75.2208 15.9686 75.2551 16.1143 75.2553 16.26C75.2587 18.8225 75.2576 21.385 75.2589 23.9475C75.259 24.0537 75.2729 24.1599 75.2804 24.2661C75.3148 24.264 75.3492 24.262 75.3836 24.26C75.3836 23.1986 75.3836 22.1373 75.3836 21.076C75.4156 21.075 75.4475 21.0739 75.4794 21.0729C75.4846 21.1731 75.4941 21.2733 75.4943 21.3735C75.4955 22.2441 75.4947 23.1148 75.4959 23.9854C75.496 24.0739 75.4965 24.1639 75.5116 24.2507C75.5825 24.6591 75.6834 25.064 75.7263 25.4751C75.7768 25.9582 75.9399 26.1428 76.4078 26.1428C76.7244 26.1428 77.041 26.1428 77.3576 26.1428C77.5197 26.1428 77.6817 26.1428 77.9098 26.1428C77.7596 25.9241 77.6418 25.7802 77.5544 25.6198C77.316 25.1822 77.2263 24.7228 77.2672 24.2137C77.3272 23.4675 77.2493 22.7053 77.3588 21.9691C77.4901 21.0865 77.3406 20.2075 77.529 19.309C77.7298 18.3518 77.5751 17.3199 77.5719 16.3206C77.5717 16.2569 77.5495 16.1432 77.5207 16.1374C77.2883 16.0912 77.3397 15.9176 77.3359 15.7666C77.7275 15.7151 77.7326 15.7204 77.733 16.0821C77.7359 18.7745 77.7347 21.467 77.7484 24.1594C77.7502 24.5127 77.7846 24.8782 77.8814 25.2158C78.0743 25.8887 78.6057 26.2048 79.2542 26.3282C79.933 26.4573 80.576 26.3392 81.1402 25.9238C81.5518 25.6208 81.7137 25.1773 81.7457 24.6856C81.7734 24.2611 81.7895 23.8352 81.7903 23.4098C81.7946 20.945 81.7964 18.4801 81.7867 16.0153C81.7859 15.7984 81.8465 15.7383 82.0494 15.7402C82.7719 15.7468 83.4946 15.744 84.2172 15.7404C84.3687 15.7397 84.454 15.769 84.4528 15.9533C84.4334 18.893 84.4382 21.833 84.3975 24.7723C84.3759 26.3292 83.5759 27.4502 82.2251 28.1625C81.0557 28.7792 79.7954 28.817 78.5236 28.5663C77.406 28.3461 76.4786 27.7953 75.7992 26.8665C75.3435 26.2435 75.2251 25.5077 75.1627 24.7664C75.1154 24.2051 75.1204 23.6394 75.0992 23.0758C75.0955 22.9773 75.0777 22.8794 75.0104 22.7662C74.772 24.5105 73.9599 25.9142 72.6044 27.024Z" fill="#334155"/>
<path d="M85.4352 4.1503C84.9253 3.2143 84.4268 2.29696 83.906 1.33855C84.0135 1.32366 84.0938 1.30319 84.1741 1.30289C84.8667 1.30027 85.5593 1.30712 86.2517 1.29735C86.4371 1.29473 86.5276 1.36477 86.6143 1.52553C87.3163 2.82713 88.0295 4.12266 88.7396 5.4199C88.7577 5.45288 88.7787 5.4842 88.8327 5.57228C88.9876 5.30306 89.1255 5.07283 89.2544 4.83771C89.8567 3.73969 90.4604 2.64243 91.053 1.53924C91.1444 1.36901 91.2432 1.29358 91.4418 1.29705C92.1044 1.30863 92.7674 1.30075 93.4302 1.30203C93.5171 1.30219 93.6039 1.31227 93.7442 1.32114C93.4629 1.83653 93.2011 2.31732 92.9384 2.79759C91.9964 4.51951 91.0523 6.24028 90.1162 7.9654C90.0591 8.07066 90.044 8.20967 90.0436 8.3331C90.0383 9.88634 90.0344 11.4396 90.0439 12.9928C90.0453 13.2215 89.9994 13.3041 89.7529 13.2965C89.1401 13.2778 88.526 13.2795 87.9131 13.2958C87.6715 13.3023 87.5931 13.245 87.5952 12.9872C87.6078 11.444 87.604 9.90054 87.5945 8.35723C87.5936 8.19842 87.5492 8.0238 87.4739 7.88403C86.8047 6.64215 86.124 5.40648 85.4352 4.1503Z" fill="#334155"/>
<path d="M77.3095 15.7575C77.3398 15.9176 77.2884 16.0912 77.5208 16.1374C77.5496 16.1432 77.5718 16.2569 77.572 16.3206C77.5752 17.3199 77.7299 18.3518 77.5292 19.3089C77.3407 20.2075 77.4902 21.0865 77.3589 21.9691C77.2494 22.7053 77.3273 23.4674 77.2673 24.2137C77.2264 24.7228 77.3161 25.1822 77.5545 25.6198C77.6419 25.7802 77.7598 25.9241 77.91 26.1428C77.6818 26.1428 77.5198 26.1428 77.3578 26.1428C77.0412 26.1428 76.7246 26.1428 76.408 26.1428C75.94 26.1428 75.7769 25.9582 75.7264 25.4751C75.6835 25.064 75.5826 24.6591 75.5117 24.2507C75.4966 24.1639 75.4961 24.0739 75.496 23.9854C75.4948 23.1148 75.4957 22.2441 75.4944 21.3735C75.4943 21.2733 75.4847 21.1731 75.4795 21.0729C75.4476 21.0739 75.4157 21.075 75.3838 21.076C75.3838 22.1373 75.3838 23.1986 75.3838 24.26C75.3493 24.262 75.3149 24.264 75.2805 24.2661C75.273 24.1599 75.2591 24.0537 75.259 23.9475C75.2577 21.385 75.2588 18.8225 75.2554 16.26C75.2553 16.1143 75.221 15.9686 75.2009 15.7996C75.8938 15.7671 76.5884 15.7577 77.3095 15.7575ZM76.3575 16.0454C76.6223 16.0454 76.8871 16.0454 77.1519 16.0454C77.1516 16.0315 77.1514 16.0175 77.1511 16.0035C76.6617 16.0035 76.1723 16.0035 75.6829 16.0035C75.6827 16.0175 75.6824 16.0315 75.6821 16.0454C75.8878 16.0454 76.0934 16.0454 76.3575 16.0454ZM75.3901 16.074C75.4227 16.0553 75.4553 16.0367 75.488 16.0181C75.4656 15.9942 75.4431 15.9703 75.4207 15.9465C75.4017 15.9809 75.3828 16.0153 75.3901 16.074Z" fill="#334155"/>
<path d="M51.9706 6.06627C51.9737 6.0042 51.9768 5.94213 51.9774 5.8548C51.9747 5.82954 51.9783 5.83303 51.9783 5.83303C52.0377 5.65088 52.097 5.46873 52.1715 5.24849C52.1944 5.15922 52.2022 5.10804 52.21 5.05687C52.2418 4.35044 52.1321 3.67446 51.759 3.01878C51.5709 2.63687 51.3664 2.3225 50.9653 2.20235C50.6885 2.02619 50.4277 1.74972 50.1305 1.70258C49.8438 1.6571 49.5986 1.50871 49.3075 1.48927C45.7004 1.24841 42.0892 1.43358 38.4806 1.37566C38.4025 1.37441 38.3242 1.38273 38.1923 1.38923C38.1923 1.67674 38.1923 1.95882 38.1924 2.24089C38.1924 2.54774 38.2005 2.85487 38.1898 3.16134C38.1835 3.34124 38.2459 3.40558 38.4281 3.40236C38.9427 3.39329 39.4575 3.39847 39.9722 3.39953C40.3792 3.40037 40.3939 3.41529 40.394 3.81324C40.3945 6.80257 40.3948 9.79191 40.3952 12.7812C40.3952 12.9073 40.3952 13.0334 40.3952 13.1773C41.1766 13.1773 41.9223 13.1773 42.7057 13.1773C42.7057 13.0355 42.7056 12.91 42.7057 12.7845C42.706 9.87431 42.7062 6.96416 42.7074 4.05401C42.7075 3.94584 42.7182 3.83768 42.7409 3.71179C42.7653 3.77161 42.7793 3.84915 42.7793 3.9267C42.7801 6.9555 42.7796 9.9843 42.7786 13.0131C42.7786 13.0995 42.7712 13.186 42.7658 13.3019C41.9837 13.3019 41.2237 13.3059 40.464 13.2933C40.411 13.2925 40.3221 13.173 40.3153 13.1024C40.2956 12.8965 40.3095 12.6874 40.3095 12.4795C40.3094 9.6091 40.3091 6.73867 40.3089 3.86824C40.3089 3.76188 40.3089 3.65553 40.3089 3.51078C39.7384 3.51078 39.1973 3.51074 38.6562 3.51079C38.0478 3.51083 38.0479 3.51086 38.0482 2.8972C38.0485 2.45179 38.0619 2.00583 38.0434 1.5612C38.0343 1.34124 38.1171 1.28907 38.3154 1.29043C39.1567 1.29619 39.9981 1.29087 40.8394 1.29165C43.304 1.29392 45.7686 1.28865 48.2331 1.30503C49.0159 1.31024 49.8063 1.37952 50.5216 1.72484C51.5611 2.22674 52.1435 3.09472 52.2872 4.22994C52.5021 5.92775 51.7876 7.12354 50.2109 7.78191C50.1305 7.81549 50.0555 7.86215 49.9411 7.92201C50.6763 9.24871 51.4024 10.5591 52.1708 11.9457C52.3116 11.6215 52.4236 11.3772 52.5248 11.1284C53.5982 8.48959 54.6703 5.85024 55.7415 3.21051C55.9713 2.64426 56.1875 2.07221 56.4312 1.51212C56.4736 1.41479 56.6213 1.3038 56.7228 1.30128C57.4449 1.28336 58.1679 1.2851 58.8901 1.30063C58.9841 1.30265 59.1247 1.39878 59.1609 1.4858C59.7146 2.81484 60.2563 4.14885 60.7971 5.48324C61.4675 7.1375 62.133 8.7937 62.8032 10.448C63.1661 11.3437 63.5345 12.2371 63.8985 13.1323C63.9121 13.1656 63.906 13.2068 63.9108 13.2651C63.8358 13.2783 63.772 13.2991 63.7081 13.2993C63.0152 13.3013 62.3223 13.2963 61.6295 13.3024C61.4486 13.304 61.354 13.2538 61.2824 13.0671C61.0107 12.3585 60.7034 11.6636 60.4293 10.9558C60.3583 10.7724 60.2629 10.718 60.0803 10.7185C58.556 10.7232 57.0317 10.7186 55.5075 10.7287C55.4193 10.7293 55.2866 10.8134 55.2512 10.8927C54.9459 11.5771 54.6494 12.2659 54.3699 12.9612C54.2744 13.1989 54.1668 13.3135 53.8811 13.3081C52.763 13.2872 51.6442 13.2919 50.5259 13.3057C50.3107 13.3084 50.2022 13.2274 50.1078 13.056C49.2474 11.4924 48.383 9.93103 47.5189 8.36951C47.4856 8.30935 47.452 8.21766 47.4029 8.20596C47.3414 8.19129 47.2321 8.22417 47.2013 8.273C47.1655 8.32983 47.1922 8.42613 47.1921 8.5053C47.1916 9.99991 47.1849 11.4946 47.1968 12.9891C47.1988 13.2427 47.1239 13.311 46.8788 13.3047C46.2754 13.2891 45.6712 13.2915 45.0677 13.304C44.8302 13.3089 44.7453 13.2499 44.7461 12.9891C44.7553 9.94054 44.748 6.89193 44.7549 3.84335C44.7555 3.59128 44.7004 3.49089 44.4285 3.50514C43.8872 3.53352 43.3443 3.52938 42.782 3.55488C42.8214 3.51444 42.8797 3.41002 42.9405 3.40859C43.4919 3.39565 44.0439 3.39591 44.5956 3.40275C44.8274 3.40562 44.9079 3.53856 44.9061 3.7713C44.8975 4.93393 44.9024 6.09666 44.9026 7.31497C44.9027 9.30526 44.9027 11.2399 44.9027 13.1678C45.6358 13.1678 46.3597 13.1678 47.1 13.1678C47.1 12.4076 47.1 11.6763 47.1 10.945C47.1001 10.0747 47.0975 9.20438 47.1051 8.33414C47.1059 8.25209 47.1687 8.10353 47.2078 8.10182C47.3126 8.09724 47.4237 8.14776 47.5248 8.19316C47.5616 8.20968 47.5783 8.27293 47.6021 8.31597C48.4247 9.80043 49.2458 11.2857 50.0717 12.7683C50.1343 12.8807 50.2312 12.974 50.3119 13.0759C50.3117 13.0757 50.3111 13.0752 50.3151 13.0995C50.4176 13.1481 50.5162 13.1931 50.615 13.1935C51.6841 13.1986 52.7534 13.1852 53.8221 13.2051C54.0778 13.2099 54.198 13.1094 54.2815 12.9034C54.5463 12.2492 54.8002 11.5903 55.0842 10.9445C55.1403 10.8168 55.3101 10.6534 55.4293 10.6519C57.0227 10.6326 58.6166 10.6364 60.2102 10.6468C60.2973 10.6474 60.4287 10.7382 60.4635 10.8195C60.7759 11.5504 61.0679 12.2899 61.3766 13.0224C61.4075 13.0955 61.5085 13.1872 61.5782 13.1883C62.3225 13.2004 63.0671 13.1958 63.7951 13.1958C63.7466 13.0612 63.7067 12.9376 63.6581 12.8174C63.2274 11.7505 62.7951 10.6842 62.3635 9.61761C61.8227 8.28077 61.285 6.94266 60.7399 5.60755C60.5819 5.22038 60.4033 4.84158 60.2332 4.43724C60.1934 4.35107 60.1544 4.28662 60.1137 4.22395C60.1119 4.22573 60.1155 4.22194 60.1157 4.19856C60.109 4.11337 60.1021 4.05155 60.0927 3.97354C60.0601 3.92741 60.03 3.89746 59.9979 3.84796C59.9772 3.78167 59.9584 3.73493 59.9374 3.67111C59.9173 3.62627 59.8994 3.59851 59.8776 3.55014C59.8361 3.44183 59.7983 3.35415 59.7581 3.24977C59.7372 3.20587 59.7187 3.17865 59.6996 3.12927C59.641 2.96152 59.5829 2.81593 59.5204 2.64914C59.3996 2.36616 59.2834 2.10439 59.1666 1.81987C59.0593 1.64981 59.1299 1.36937 58.8213 1.37292C58.1493 1.38067 57.4771 1.37206 56.8051 1.38036C56.7377 1.38119 56.6712 1.4521 56.6059 1.49197C56.6075 1.49346 56.6041 1.49028 56.5825 1.49373C56.3989 1.89196 56.2368 2.28673 56.0642 2.70003C55.9796 2.94323 55.9054 3.1679 55.8126 3.40317C55.6662 3.72271 55.5384 4.03164 55.3929 4.35228C55.1494 4.9127 54.9226 5.46109 54.6976 6.01018C54.2705 7.05227 53.8373 8.09193 53.42 9.13791C53.0616 10.0361 52.724 10.9427 52.3691 11.8423C52.3426 11.9096 52.2526 11.9912 52.1894 11.9936C52.126 11.9959 52.0337 11.9215 51.9977 11.8565C51.3114 10.6187 50.6445 9.36985 49.9403 8.14244C49.7811 7.865 49.9117 7.76853 50.0991 7.7038C50.9487 7.41035 51.5969 6.89816 51.9706 6.06627Z" fill="#334155"/>
<path d="M52.7248 15.7734C52.7673 15.9998 52.8036 16.2247 52.8038 16.4496C52.8073 20.2311 52.8063 24.0125 52.8063 27.7939C52.8063 27.9604 52.8063 28.1269 52.8063 28.34C53.0713 28.34 53.3638 28.34 53.6562 28.34C54.072 28.34 54.4882 28.3281 54.9033 28.3446C55.13 28.3536 55.1871 28.2738 55.186 28.0558C55.1778 26.472 55.1791 24.8881 55.1856 23.3043C55.1862 23.1552 55.0907 22.9078 55.337 22.8977C55.4679 22.8923 55.6583 23.0384 55.7333 23.1675C56.6336 24.7189 57.517 26.28 58.4058 27.838C58.4644 27.9407 58.5315 28.0385 58.6122 28.168C58.6486 28.2252 58.6675 28.2531 58.704 28.2984C59.584 28.3159 60.4464 28.3159 61.3505 28.3159C61.2759 28.2482 61.2285 28.2052 61.1809 28.1474C61.1807 28.1225 61.1806 28.1126 61.1805 28.1027C60.8823 27.5762 60.5847 27.0495 60.2859 26.5234C59.6346 25.377 58.9822 24.2312 58.3319 23.0842C58.2653 22.9667 58.2105 22.8424 58.1278 22.6761C58.4376 22.5362 58.7376 22.4101 59.0295 22.2672C59.7389 21.9199 60.2445 21.3813 60.531 20.6406C60.5503 20.5904 60.601 20.5524 60.6713 20.5291C60.8686 20.5218 60.8744 20.504 60.7922 20.2291C60.7518 20.289 60.7216 20.3337 60.6914 20.3784C60.6791 20.2837 60.6329 20.1778 60.6599 20.096C60.8138 19.6287 60.7316 19.1778 60.6735 18.7013C60.5761 17.9025 60.1915 17.3032 59.6298 16.7859C59.2356 16.4229 58.7735 16.1764 58.233 16.1043C57.5928 16.0189 56.9521 15.9376 56.3118 15.8529C56.2956 15.8507 56.2819 15.8293 56.259 15.7962C57.2451 15.7585 58.2274 15.8378 59.126 16.3055C60.3122 16.9228 60.9849 18.3073 60.841 19.7533C60.8291 19.8725 60.8394 19.994 60.878 20.1289C61.2281 19.2901 61.6586 18.5102 62.2931 17.8401C62.2723 17.921 62.2396 18.0111 62.1915 18.092C61.8219 18.7134 61.3636 19.2986 61.0975 19.9611C60.6785 21.0039 60.6496 22.1256 60.8367 23.2292C60.9672 23.9999 61.2171 24.7478 61.7023 25.3828C62.088 25.8876 62.5001 26.3725 62.9034 26.886C62.1921 26.3653 61.6772 25.6607 61.2753 24.8735C60.6522 23.6531 60.4958 22.3581 60.7114 21.0115C60.7271 20.9134 60.726 20.8126 60.6878 20.6847C60.2214 21.7732 59.3188 22.3312 58.2539 22.7226C59.341 24.6303 60.4011 26.4908 61.4886 28.3992C61.3494 28.4121 61.2572 28.4277 61.1649 28.4279C60.403 28.4297 59.6409 28.4189 58.8792 28.4347C58.6743 28.439 58.5729 28.3549 58.4837 28.1973C57.6396 26.7053 56.793 25.2148 55.9472 23.7238C55.8401 23.535 55.7442 23.3387 55.6216 23.1606C55.5681 23.0829 55.4604 23.0424 55.3773 22.985C55.3422 23.0759 55.2769 23.1667 55.2765 23.2578C55.2696 24.8806 55.266 26.5034 55.2749 28.1262C55.2762 28.3525 55.2362 28.4413 54.9854 28.4348C54.3031 28.417 53.6199 28.4215 52.9373 28.4337C52.702 28.438 52.6404 28.3621 52.6408 28.1258C52.648 24.0885 52.6447 20.0512 52.6467 16.014C52.6467 15.9332 52.6826 15.8525 52.7248 15.7734Z" fill="#334155"/>
<path d="M72.0114 16.7302C71.8555 16.6744 71.687 16.606 71.5251 16.5246C70.9164 16.2187 70.3077 15.9329 69.6285 15.7889C68.8716 15.6284 68.1126 15.5117 67.3474 15.5808C66.5032 15.6569 65.6579 15.7789 64.884 16.1711C64.3868 16.423 63.8904 16.6768 63.3705 16.9282C63.912 16.4307 64.5868 16.1329 65.2828 15.8878C66.6385 15.4105 68.0299 15.34 69.4339 15.6195C70.3617 15.8042 71.2228 16.1667 72.0114 16.7302Z" fill="#334155"/>
<path d="M62.9784 26.9899C63.181 27.0939 63.3983 27.2027 63.5929 27.343C64.1515 27.7458 64.7595 28.0513 65.4235 28.2183C66.076 28.3824 66.742 28.493 67.41 28.647C66.4762 28.6872 65.5695 28.4852 64.7303 28.0882C64.1152 27.7972 63.5629 27.3736 62.9784 26.9899Z" fill="#334155"/>
<path d="M68.2743 28.6762C68.5349 28.5984 68.8184 28.4903 69.1085 28.4678C69.8327 28.4117 70.4981 28.172 71.1337 27.8528C71.6103 27.6135 72.0563 27.3136 72.539 27.0428C71.9766 27.6055 71.2715 27.9722 70.5232 28.2487C69.8095 28.5124 69.0661 28.6666 68.2743 28.6762Z" fill="#334155"/>
<path d="M73.0382 17.5759C72.8243 17.437 72.6027 17.2832 72.3885 17.1198C72.2895 17.0443 72.2047 16.95 72.1107 16.8441C72.4164 17.0683 72.725 17.3127 73.0382 17.5759Z" fill="#334155"/>
<path d="M63.2992 16.9481C63.1672 17.0808 63.015 17.2134 62.8406 17.3448C62.9718 17.2117 63.1254 17.0798 63.2992 16.9481Z" fill="#334155"/>
<path d="M62.5888 17.5372C62.5435 17.6113 62.4791 17.6881 62.3949 17.7674C62.44 17.6932 62.5049 17.6166 62.5888 17.5372Z" fill="#334155"/>
<path d="M50.3121 13.0762C50.2311 12.974 50.1343 12.8807 50.0717 12.7683C49.2458 11.2857 48.4247 9.80043 47.6021 8.31597C47.5783 8.27293 47.5616 8.20968 47.5248 8.19316C47.4237 8.14776 47.3126 8.09724 47.2078 8.10182C47.1687 8.10353 47.1059 8.25209 47.1051 8.33414C47.0975 9.20438 47.1001 10.0747 47.1 10.945C47.1 11.6763 47.1 12.4076 47.1 13.1678C46.3597 13.1678 45.6358 13.1678 44.9027 13.1678C44.9027 11.2399 44.9027 9.30524 44.903 7.34284C44.9441 7.22927 45.0186 7.14398 45.02 7.05751C45.0301 6.43447 45.0248 5.8112 45.0261 5.18801C45.0263 5.09746 45.0356 5.00693 45.0445 4.84879C45.1076 4.93572 45.1331 4.95515 45.1356 4.97714C45.1431 5.04566 45.1421 5.11514 45.1442 5.18425C45.1839 6.46308 45.2225 7.74194 45.264 9.02072C45.2725 9.28256 45.3877 9.35158 45.6519 9.31898C45.9292 9.28477 46.2133 9.30209 46.4891 9.26123C46.5825 9.24739 46.7054 9.13911 46.7337 9.0486C46.7761 8.91316 46.7763 8.74807 46.7423 8.60831C46.646 8.21326 46.896 7.99399 47.1508 7.7955C47.2196 7.74195 47.4351 7.76824 47.5 7.83675C47.8166 8.17075 48.1406 8.50265 48.2899 8.96191C48.4217 9.36701 48.8059 9.34378 49.1252 9.37559C49.4656 9.40948 49.8119 9.38322 50.2441 9.38322C50.1386 9.15232 50.0651 8.96926 49.9732 8.79596C49.8578 8.57844 49.7293 8.36773 49.6027 8.15633C49.5051 7.99319 49.5223 7.84428 49.6798 7.74285C49.9416 7.57437 50.1977 7.37363 50.4865 7.27536C51.1419 7.05232 51.5485 6.61259 51.7871 5.97058C51.8368 6.00136 51.8843 6.03076 51.9512 6.06321C51.5969 6.89815 50.9487 7.41035 50.0991 7.7038C49.9117 7.76853 49.7811 7.865 49.9403 8.14244C50.6445 9.36985 51.3114 10.6187 51.9977 11.8565C52.0337 11.9215 52.126 11.9959 52.1894 11.9936C52.2526 11.9912 52.3426 11.9096 52.3691 11.8423C52.724 10.9427 53.0616 10.0361 53.42 9.13791C53.8373 8.09193 54.2705 7.05227 54.6976 6.01018C54.9226 5.46109 55.1493 4.91268 55.414 4.3562C55.4767 4.38458 55.5288 4.43004 55.5203 4.45538C55.4533 4.65686 55.3743 4.85431 55.3001 5.05339C55.1929 5.34046 55.0873 5.62807 54.9799 5.91505C54.8195 6.3438 54.6488 6.76898 54.5008 7.20195C54.4138 7.45643 54.3793 7.7289 54.2911 7.98288C54.1457 8.40209 53.976 8.81288 53.7939 9.28617C56.4817 9.28617 59.114 9.28617 61.7991 9.28617C61.7274 9.10782 61.6519 8.94553 61.5961 8.77673C61.3996 8.18257 61.2267 7.58005 61.013 6.9923C60.787 6.37101 60.4995 5.77127 60.2925 5.14442C60.2257 4.94219 59.9582 4.70752 60.2341 4.45893C60.4033 4.84157 60.5819 5.22038 60.7399 5.60755C61.285 6.94266 61.8227 8.28077 62.3635 9.61761C62.7951 10.6842 63.2274 11.7505 63.6581 12.8174C63.7067 12.9376 63.7466 13.0612 63.7951 13.1958C63.0671 13.1958 62.3225 13.2004 61.5782 13.1883C61.5085 13.1872 61.4075 13.0955 61.3766 13.0224C61.0679 12.2899 60.7759 11.5504 60.4635 10.8195C60.4287 10.7382 60.2973 10.6474 60.2102 10.6468C58.6166 10.6364 57.0227 10.6326 55.4293 10.6519C55.3101 10.6534 55.1403 10.8168 55.0842 10.9445C54.8002 11.5903 54.5463 12.2492 54.2815 12.9034C54.198 13.1094 54.0778 13.2099 53.8221 13.2051C52.7534 13.1852 51.6841 13.1986 50.615 13.1935C50.5162 13.1931 50.4176 13.1481 50.3312 13.0965C50.3623 13.0523 50.3812 13.0353 50.4 13.0184C50.3882 13.0082 50.3764 12.9981 50.3645 12.9879C50.347 13.0174 50.3296 13.0468 50.3121 13.0762Z" fill="#334155"/>
<path d="M43.1247 1.49354C44.7933 1.49354 46.4323 1.49354 48.0712 1.49354C48.0712 1.51955 48.0712 1.54556 48.0712 1.57158C44.833 1.57158 41.5948 1.57158 38.3566 1.57158C38.3562 1.54556 38.3559 1.51955 38.3555 1.49354C39.9353 1.49354 41.5152 1.49354 43.1247 1.49354Z" fill="#334155"/>
<path d="M40.5165 10.3437C40.5165 10.0227 40.5165 9.73125 40.5165 9.43982C40.5415 9.43998 40.5665 9.44014 40.5916 9.4403C40.5916 10.6368 40.5916 11.8334 40.5916 13.0299C40.5665 13.0306 40.5415 13.0313 40.5164 13.032C40.5164 12.1458 40.5165 11.2596 40.5165 10.3437Z" fill="#334155"/>
<path d="M42.4801 9.73967C42.5168 9.74806 42.58 9.7797 42.5806 9.81247C42.5876 10.198 42.5853 10.5836 42.5853 10.9692C42.5853 11.6571 42.5853 12.3449 42.5853 13.0327C42.5493 13.0331 42.5134 13.0335 42.4774 13.0339C42.4774 11.9437 42.4774 10.8536 42.4801 9.73967Z" fill="#334155"/>
<path d="M49.5813 3.81235C48.8255 3.39615 48.0113 3.48328 47.1776 3.55756C47.1992 3.51185 47.2457 3.40198 47.2874 3.40378C47.9139 3.43097 48.5415 3.45713 49.1646 3.52279C49.3131 3.53843 49.4464 3.69758 49.5813 3.81235Z" fill="#334155"/>
<path d="M47.127 3.69647C47.1598 4.35045 47.1694 5.01074 47.1811 5.67099C47.1825 5.74832 47.1951 5.82545 47.2129 5.9252C47.1717 5.92091 47.0749 5.89384 47.075 5.86729C47.0788 5.14575 47.0925 4.42428 47.127 3.69647Z" fill="#334155"/>
<path d="M50.9654 2.22469C51.3664 2.32248 51.5709 2.63687 51.7408 3.00729C51.7296 3.06282 51.7172 3.09755 51.7112 3.1143C51.4795 2.87686 51.248 2.64414 51.0234 2.40495C50.9881 2.36736 50.9841 2.30041 50.9654 2.22469Z" fill="#334155"/>
<path d="M49.7327 5.52858C49.9869 5.06145 50.0694 4.5857 49.7758 4.07022C50.057 4.23882 50.1967 4.75941 50.037 5.10355C49.9661 5.25618 49.8501 5.38783 49.7327 5.52858Z" fill="#334155"/>
<path d="M40.9676 12.9626C41.4105 12.9621 41.8285 12.9621 42.2465 12.9621C42.2492 12.9846 42.2519 13.0071 42.2546 13.0296C42.1995 13.0433 42.1445 13.0684 42.0892 13.0689C41.7167 13.0723 41.3441 13.0727 40.9717 13.0667C40.9343 13.0661 40.8976 13.0165 40.8605 12.9896C40.8879 12.9808 40.9152 12.9719 40.9676 12.9626Z" fill="#334155"/>
<path d="M47.3299 6.13178C47.7519 6.12844 48.1495 6.12844 48.547 6.12844C48.5472 6.15972 48.5474 6.191 48.5477 6.22229C48.1267 6.22229 47.7058 6.22229 47.2848 6.22229C47.2917 6.19323 47.2985 6.16418 47.3299 6.13178Z" fill="#334155"/>
<path d="M52.1893 5.05304C52.2022 5.10803 52.1944 5.15922 52.1726 5.22398C51.951 5.06355 51.9058 4.76671 52.0504 4.41155C52.0932 4.64262 52.1309 4.84592 52.1893 5.05304Z" fill="#334155"/>
<path d="M49.1942 5.84356C49.3457 5.72879 49.5091 5.63064 49.6929 5.52918C49.6472 5.79349 49.434 5.83788 49.1942 5.84356Z" fill="#334155"/>
<path d="M48.5441 5.96443C48.6929 5.90946 48.8565 5.87214 49.0429 5.84092C48.9441 6.06956 48.7479 6.01189 48.5441 5.96443Z" fill="#334155"/>
<path d="M49.1629 1.6183C49.2896 1.61436 49.3934 1.61436 49.5418 1.61436C49.3185 1.77445 49.1844 1.76506 49.1629 1.6183Z" fill="#334155"/>
<path d="M51.9765 5.83149C51.9273 5.71546 51.8764 5.59747 51.8255 5.47949C51.8663 5.46775 51.9072 5.456 51.948 5.44426C51.9573 5.55672 51.9666 5.66917 51.9771 5.80732C51.9783 5.83302 51.9747 5.82953 51.9765 5.83149Z" fill="#334155"/>
<path d="M49.7641 4.004C49.7013 3.97566 49.6432 3.92319 49.5801 3.85178C49.6396 3.88185 49.7043 3.93086 49.7641 4.004Z" fill="#334155"/>
<path d="M49.2307 6.02055C49.245 6.05327 49.2419 6.08239 49.2388 6.11153C49.2126 6.10491 49.1864 6.09828 49.1602 6.09166C49.1779 6.06676 49.1956 6.04188 49.2307 6.02055Z" fill="#334155"/>
<path d="M50.2827 4.68349C50.283 4.72766 50.2711 4.75897 50.2591 4.79029C50.2431 4.78238 50.2271 4.77447 50.2112 4.76655C50.2309 4.73458 50.2507 4.70261 50.2827 4.68349Z" fill="#334155"/>
<path d="M58.6865 28.2809C58.6675 28.2531 58.6486 28.2252 58.6284 28.1798C58.6709 28.1281 58.7147 28.0645 58.7587 28.0644C59.5229 28.0619 60.2872 28.0669 61.0514 28.0719C61.0795 28.072 61.1076 28.0887 61.1581 28.1002C61.1806 28.1126 61.1807 28.1225 61.1633 28.1648C60.4282 28.2053 59.7106 28.2112 58.993 28.224C58.8905 28.2258 58.7886 28.2611 58.6865 28.2809Z" fill="#334155"/>
<path d="M60.6986 20.3993C60.7215 20.3337 60.7516 20.289 60.7921 20.2291C60.8742 20.504 60.8684 20.5218 60.6906 20.5247C60.6859 20.4734 60.6959 20.4468 60.6986 20.3993Z" fill="black"/>
<path d="M76.3282 16.0455C76.0934 16.0455 75.8878 16.0454 75.6821 16.0454C75.6824 16.0315 75.6827 16.0175 75.6829 16.0035C76.1723 16.0035 76.6617 16.0035 77.1511 16.0035C77.1514 16.0175 77.1516 16.0315 77.1519 16.0454C76.8871 16.0454 76.6222 16.0455 76.3282 16.0455Z" fill="#334155"/>
<path d="M75.377 16.0619C75.3828 16.0153 75.4017 15.9809 75.4207 15.9465C75.4431 15.9703 75.4656 15.9942 75.488 16.0181C75.4553 16.0367 75.4227 16.0554 75.377 16.0619Z" fill="#334155"/>
<path d="M60.2332 4.43724C59.9582 4.70753 60.2257 4.94219 60.2925 5.14442C60.4995 5.77127 60.787 6.37101 61.013 6.9923C61.2267 7.58005 61.3996 8.18257 61.5961 8.77673C61.6519 8.94553 61.7274 9.10782 61.7991 9.28617C59.114 9.28617 56.4817 9.28617 53.7939 9.28617C53.976 8.81288 54.1457 8.40209 54.2911 7.98288C54.3793 7.7289 54.4138 7.45643 54.5008 7.20195C54.6488 6.76898 54.8195 6.3438 54.9799 5.91505C55.0873 5.62807 55.1929 5.34046 55.3001 5.05339C55.3743 4.85431 55.4533 4.65686 55.5203 4.45538C55.5288 4.43004 55.4767 4.38459 55.4316 4.34451C55.5384 4.03164 55.6662 3.72271 55.8345 3.40154C55.9978 3.20639 56.1253 3.02611 56.235 2.83559C56.2439 2.82012 56.131 2.73451 56.0747 2.68149C56.2368 2.28673 56.3988 1.89196 56.5887 1.51751C56.6458 1.56082 56.675 1.60387 56.7042 1.60385C57.4218 1.60327 58.1394 1.59828 58.857 1.59188C58.8653 1.59181 58.8733 1.56291 58.9114 1.49048C58.123 1.49048 57.3636 1.49048 56.6042 1.49049C56.6712 1.4521 56.7377 1.38119 56.8051 1.38036C57.4771 1.37206 58.1493 1.38067 58.8213 1.37292C59.1299 1.36937 59.0593 1.64981 59.1565 1.8413C59.2073 2.20679 59.2676 2.5281 59.328 2.84941C59.3586 2.84595 59.3893 2.84249 59.4199 2.83903C59.4549 2.7828 59.4899 2.72657 59.5249 2.67034C59.5829 2.81593 59.641 2.96152 59.6909 3.14667C59.6523 3.24 59.6217 3.29376 59.5912 3.34753C59.6058 3.35983 59.6204 3.37213 59.635 3.38443C59.6769 3.34511 59.7187 3.30578 59.7606 3.26646C59.7983 3.35414 59.836 3.44183 59.8572 3.55239C59.7964 3.61362 59.7521 3.65199 59.7078 3.69036C59.7207 3.70433 59.7337 3.71829 59.7466 3.73226C59.8109 3.71757 59.8753 3.70288 59.9396 3.68819C59.9584 3.73493 59.9772 3.78167 59.9787 3.85098C59.9438 3.89985 59.9261 3.92615 59.9084 3.95245C59.9707 3.96488 60.0329 3.9773 60.0951 3.98972C60.1021 4.05155 60.109 4.11337 60.0958 4.20262C60.0503 4.27107 60.0251 4.31209 59.9999 4.35312C60.0223 4.36366 60.0446 4.3742 60.067 4.38474C60.0832 4.33055 60.0993 4.27635 60.1154 4.22216C60.1544 4.28662 60.1934 4.35107 60.2332 4.43724ZM57.8626 4.5956C57.8435 4.58731 57.8378 4.57351 57.8475 4.50927C57.8075 4.48025 57.7354 4.42259 57.7321 4.42632C57.5704 4.6074 57.3632 4.77068 57.2675 4.98375C56.9489 5.69381 56.684 6.42791 56.3711 7.14076C56.1997 7.53128 55.9691 7.89553 55.7751 8.27666C55.7385 8.34863 55.707 8.48344 55.7439 8.52246C55.9267 8.716 56.0727 8.97682 56.3921 8.97705C57.3415 8.97775 58.2909 8.98135 59.2402 8.97555C59.6817 8.97286 59.9873 8.48609 59.7864 8.09739C59.6253 7.78572 59.4148 7.49923 59.2595 7.18508C59.0933 6.84873 58.9691 6.49184 58.8212 6.14623C58.6817 5.82045 58.4865 5.50926 58.406 5.17024C58.3308 4.85362 58.2371 4.62764 57.8626 4.5956Z" fill="#334155"/>
<path d="M59.5203 2.64914C59.4898 2.72658 59.4548 2.78281 59.4198 2.83904C59.3891 2.8425 59.3585 2.84596 59.3278 2.84942C59.2675 2.52811 59.2071 2.2068 59.1569 1.86406C59.2832 2.1044 59.3995 2.36617 59.5203 2.64914Z" fill="#334155"/>
<path d="M56.0642 2.70003C56.131 2.73451 56.2439 2.82012 56.235 2.83559C56.1253 3.02611 55.9978 3.20639 55.853 3.39094C55.9053 3.1679 55.9796 2.94323 56.0642 2.70003Z" fill="#334155"/>
<path d="M59.9373 3.67111C59.8752 3.70289 59.8109 3.71757 59.7465 3.73226C59.7336 3.7183 59.7206 3.70433 59.7077 3.69037C59.752 3.652 59.7963 3.61363 59.861 3.57301C59.8993 3.59852 59.9172 3.62627 59.9373 3.67111Z" fill="#334155"/>
<path d="M59.7581 3.24977C59.7187 3.30578 59.6769 3.34511 59.635 3.38443C59.6204 3.37213 59.6058 3.35983 59.5912 3.34753C59.6217 3.29376 59.6523 3.23999 59.6916 3.16882C59.7188 3.17863 59.7372 3.20587 59.7581 3.24977Z" fill="#334155"/>
<path d="M60.0926 3.97355C60.0328 3.97731 59.9707 3.96488 59.9084 3.95245C59.9261 3.92615 59.9437 3.89986 59.9806 3.87054C60.0299 3.89747 60.06 3.92742 60.0926 3.97355Z" fill="#334155"/>
<path d="M58.704 28.2984C58.7886 28.2611 58.8905 28.2258 58.993 28.224C59.7106 28.2112 60.4282 28.2053 61.1634 28.1798C61.2284 28.2052 61.2759 28.2482 61.3505 28.3159C60.4464 28.3159 59.584 28.3159 58.704 28.2984Z" fill="#334155"/>
<path d="M50.3119 13.0759C50.3296 13.0468 50.347 13.0174 50.3645 12.9879C50.3764 12.9981 50.3882 13.0082 50.4 13.0184C50.3812 13.0353 50.3623 13.0523 50.3273 13.0722C50.3112 13.0752 50.3117 13.0757 50.3119 13.0759Z" fill="#334155"/>
<path d="M57.8463 4.53174C57.7205 4.80143 57.5783 5.04155 57.474 5.29714C57.047 6.34323 56.6316 7.39403 56.1964 8.48215C57.274 8.48215 58.3348 8.48215 59.4419 8.48215C58.918 7.18424 58.4037 5.91 57.8881 4.61338C58.237 4.62765 58.3307 4.85363 58.4059 5.17024C58.4864 5.50926 58.6816 5.82046 58.8211 6.14623C58.969 6.49184 59.0932 6.84874 59.2594 7.18508C59.4146 7.49924 59.6252 7.78572 59.7863 8.0974C59.9872 8.4861 59.6816 8.97286 59.2401 8.97556C58.2908 8.98136 57.3414 8.97776 56.392 8.97706C56.0726 8.97682 55.9266 8.71601 55.7437 8.52247C55.7069 8.48344 55.7383 8.34864 55.775 8.27666C55.969 7.89553 56.1996 7.53128 56.371 7.14077C56.6839 6.42792 56.9487 5.69382 57.2674 4.98376C57.3631 4.77069 57.5702 4.6074 57.7319 4.42633C57.7353 4.4226 57.8074 4.48025 57.8463 4.53174Z" fill="#334155"/>
<path d="M56.6059 1.49197C57.3636 1.49049 58.123 1.49048 58.9114 1.49048C58.8733 1.56291 58.8653 1.59181 58.857 1.59188C58.1394 1.59828 57.4218 1.60327 56.7042 1.60385C56.675 1.60387 56.6458 1.56082 56.6103 1.51406C56.6041 1.49028 56.6075 1.49346 56.6059 1.49197Z" fill="#334155"/>
<path d="M60.1136 4.22393C60.0992 4.27634 60.0831 4.33053 60.067 4.38473C60.0446 4.37418 60.0222 4.36364 59.9998 4.3531C60.025 4.31208 60.0502 4.27105 60.0954 4.22597C60.1154 4.22192 60.1118 4.22571 60.1136 4.22393Z" fill="#334155"/>
</svg>
