<svg width="18" height="18" viewBox="0 0 18 18" fill="none" xmlns="http://www.w3.org/2000/svg">
    <path
        d="M0 1.28942C0 0.577668 0.595817 0 1.33037 0H16.6696C17.4044 0 18 0.577668 18 1.28942V16.7108C18 17.4228 17.4044 18 16.6696 18H1.33037C0.595817 18 0 17.4228 0 16.711V1.28919V1.28942Z"
        fill="#323232" />
    <path
        d="M5.4572 15.0677V6.93975H2.73848V15.0677H5.45743H5.4572ZM4.09832 5.83021C5.04621 5.83021 5.63632 5.20604 5.63632 4.42606C5.6185 3.62837 5.0462 3.02167 4.11637 3.02167C3.18582 3.02167 2.57812 3.62837 2.57812 4.42606C2.57812 5.20604 3.168 5.83021 4.08049 5.83021H4.09808H4.09832ZM6.96194 15.0677H9.68042V10.5292C9.68042 10.2865 9.69824 10.0434 9.76998 9.87011C9.96645 9.38451 10.4138 8.88191 11.165 8.88191C12.1485 8.88191 12.5421 9.62719 12.5421 10.72V15.0677H15.2606V10.4074C15.2606 7.91095 13.9196 6.74924 12.1309 6.74924C10.6644 6.74924 10.0204 7.56369 9.6626 8.11846H9.68066V6.93999H6.96218C6.99758 7.7025 6.96194 15.0679 6.96194 15.0679V15.0677Z"
        fill="white" />
</svg>