<svg width="17" height="17" viewBox="0 0 17 17" fill="none" xmlns="http://www.w3.org/2000/svg">
    <path
        d="M0.919006 1.97922C0.919006 1.34935 1.44296 0.838135 2.08892 0.838135H15.578C16.2242 0.838135 16.7479 1.34935 16.7479 1.97922V15.6265C16.7479 16.2566 16.2242 16.7674 15.578 16.7674H2.08892C1.44296 16.7674 0.919006 16.2566 0.919006 15.6267V1.97901V1.97922Z"
        fill="#B5B5B5" />
    <path
        d="M5.7173 14.1726V6.97966H3.3265V14.1726H5.7175H5.7173ZM4.52232 5.99777C5.35588 5.99777 5.87481 5.4454 5.87481 4.75515C5.85915 4.04924 5.35587 3.51233 4.53819 3.51233C3.71988 3.51233 3.18549 4.04924 3.18549 4.75515C3.18549 5.4454 3.70421 5.99777 4.50665 5.99777H4.52211H4.52232ZM7.04055 14.1726H9.43113V10.1562C9.43113 9.94143 9.4468 9.72625 9.50989 9.57291C9.68266 9.14317 10.076 8.69839 10.7366 8.69839C11.6015 8.69839 11.9477 9.35793 11.9477 10.325V14.1726H14.3383V10.0484C14.3383 7.83913 13.159 6.81107 11.5861 6.81107C10.2964 6.81107 9.73008 7.53182 9.41546 8.02277H9.43134V6.97987H7.04075C7.07188 7.65466 7.04055 14.1728 7.04055 14.1728V14.1726Z"
        fill="white" />
</svg>