<svg width="16" height="16" viewBox="0 0 16 16" fill="none" xmlns="http://www.w3.org/2000/svg">
    <path
        d="M13.619 12.8154C13.619 13.0495 13.567 13.2901 13.4564 13.5242C13.3459 13.7583 13.2028 13.9794 13.0142 14.1875C12.6955 14.5387 12.3444 14.7923 11.9477 14.9549C11.5575 15.1175 11.1348 15.202 10.6796 15.202C10.0163 15.202 9.30742 15.046 8.55956 14.7273C7.8117 14.4087 7.06385 13.9794 6.32249 13.4397C5.57463 12.8934 4.86579 12.2886 4.18947 11.6188C3.51965 10.9425 2.91486 10.2337 2.3751 9.4923C1.84184 8.75094 1.41264 8.00959 1.10049 7.27474C0.788338 6.53338 0.632263 5.82454 0.632263 5.14822C0.632263 4.706 0.710301 4.2833 0.866375 3.89311C1.02245 3.49642 1.26957 3.13225 1.61423 2.80709C2.03043 2.3974 2.48565 2.1958 2.96688 2.1958C3.14897 2.1958 3.33106 2.23482 3.49363 2.31286C3.66272 2.39089 3.81229 2.50795 3.92934 2.67703L5.43807 4.80355C5.55512 4.96613 5.63966 5.1157 5.69819 5.25877C5.75672 5.39533 5.78923 5.5319 5.78923 5.65546C5.78923 5.81153 5.74371 5.96761 5.65267 6.11718C5.56813 6.26675 5.44457 6.42283 5.28849 6.5789L4.79426 7.09265C4.72272 7.16418 4.69021 7.24872 4.69021 7.35277C4.69021 7.4048 4.69671 7.45032 4.70972 7.50234C4.72923 7.55437 4.74874 7.59339 4.76174 7.63241C4.8788 7.84701 5.08039 8.12664 5.36653 8.46481C5.65917 8.80297 5.97132 9.14763 6.30948 9.4923C6.66065 9.83696 6.99881 10.1556 7.34348 10.4483C7.68164 10.7344 7.96128 10.9295 8.18238 11.0465C8.2149 11.0595 8.25392 11.0791 8.29944 11.0986C8.35146 11.1181 8.40349 11.1246 8.46202 11.1246C8.57257 11.1246 8.65711 11.0856 8.72864 11.014L9.22288 10.5263C9.38546 10.3637 9.54153 10.2402 9.6911 10.1621C9.84068 10.0711 9.99025 10.0256 10.1528 10.0256C10.2764 10.0256 10.4064 10.0516 10.5495 10.1101C10.6926 10.1686 10.8422 10.2532 11.0047 10.3637L13.1573 11.8919C13.3263 12.009 13.4434 12.1456 13.5149 12.3081C13.58 12.4707 13.619 12.6333 13.619 12.8154Z"
        stroke="black" stroke-width="0.936449" stroke-miterlimit="10" />
    <path
        d="M11.3625 6.74808C11.3625 6.35789 11.0568 5.7596 10.6016 5.27187C10.1854 4.82315 9.63263 4.47198 9.08636 4.47198"
        stroke="black" stroke-width="0.936449" stroke-linecap="round" stroke-linejoin="round" />
    <path d="M13.6385 6.74798C13.6385 4.23128 11.6031 2.1958 9.08636 2.1958" stroke="black"
        stroke-width="0.936449" stroke-linecap="round" stroke-linejoin="round" />
</svg>
    