<svg width="131" height="28" viewBox="0 0 131 28" fill="none" xmlns="http://www.w3.org/2000/svg">
    <path fill-rule="evenodd" clip-rule="evenodd"
        d="M20.9706 11.8591C20.9844 11.6431 20.9913 11.4253 20.9913 11.2059C20.9913 10.9864 20.9844 10.7686 20.9706 10.5526V10.3941L20.9601 10.4051C20.546 5.11138 16.0604 0.943115 10.5878 0.943115C4.84214 0.943115 0.184326 5.53791 0.184326 11.2059C0.184326 15.2441 2.54865 18.7376 5.98624 20.4127C5.6709 22.3 6.25672 24.3076 7.7423 25.7671C10.187 28.1688 14.1424 28.1768 16.5771 25.7849C16.6138 25.7489 16.6499 25.7125 16.6854 25.6758L20.971 21.4656L20.9706 21.4652V11.8591ZM24.6271 13.6074L22.6435 17.511C23.3927 3.41896 18.6034 1.84559 17.4943 1.48126C17.3924 1.44778 17.3216 1.42451 17.289 1.40268C18.3413 1.07778 20.1379 1.11853 20.9696 1.13739C21.112 1.14063 21.2261 1.14321 21.3034 1.14321C24.4374 1.33349 25.7403 3.49567 26.0396 4.15297C26.8662 5.85098 26.7508 7.48958 26.6993 8.22086V8.22088C26.6905 8.34628 26.6835 8.44499 26.6835 8.51275C26.3643 10.5734 25.5922 11.9678 24.9229 13.0046C26.9307 10.5365 29.0182 9.26575 29.811 8.93892C29.768 9.07427 29.6646 9.38557 29.5958 9.54799C28.3627 9.85253 25.7695 12.3812 24.6271 13.6074Z"
        fill="#334155" />
    <path
        d="M34.2785 6.86678C36.0541 3.04797 40.481 1.85611 43.5215 2.07502C46.2457 2.26961 50.9888 4.94521 50.3321 8.78834C49.8699 11.4883 46.7079 13.9936 42.4026 15.4773C43.862 15.8422 45.1512 16.4503 45.8809 17.5205C46.9025 18.9799 45.6376 20.5853 44.1539 21.1447C42.0377 21.9231 39.8486 21.8501 37.7324 21.1204C35.8839 20.4637 34.2055 19.0529 34.3758 16.9611C34.4488 16.0854 35.8839 14.0666 36.6136 12.9963C33.8407 11.1477 33.3785 8.90996 34.2785 6.86678ZM37.2946 16.3043C37.1973 16.4746 37.1 16.6449 37.0027 16.8151C34.3758 20.9745 42.8647 21.242 43.9106 18.2259C44.5674 16.353 39.654 16.353 37.2946 16.3043ZM38.2189 14.8206C42.4026 14.2368 48.4835 11.0018 47.7781 6.76948C47.1214 2.78041 42.1837 2.975 39.2892 4.7263C37.4892 5.84519 33.9136 9.76129 37.173 12.145C38.4865 10.0532 40.8945 6.16139 41.2107 5.67492C41.6729 4.89656 43.1809 6.81813 42.6945 7.59649C41.0161 10.1991 39.727 12.3882 38.2189 14.8206ZM56.816 13.6287C56.2323 14.5044 53.9215 17.8367 54.8945 18.5178C55.5512 18.9799 58.0809 16.0854 59.3214 14.2855C59.6376 13.8477 60.7808 15.0152 59.8808 16.353C57.6187 19.734 55.3566 20.2934 54.2134 19.4664C53.6783 19.0772 53.3621 18.6151 53.1675 18.08C51.7567 19.5394 50.127 20.488 48.6676 19.1016C47.2082 17.7638 47.8406 15.453 49.7135 12.7044C51.027 10.7342 51.6108 10.0288 52.0729 9.59102C52.8026 8.90996 54.1404 10.4424 53.7756 11.0018C53.1189 11.9018 51.1486 14.6017 51.1486 14.6017C50.127 16.0611 49.1055 17.934 49.373 18.2989C49.5919 18.5908 50.8081 18.007 53.2405 14.9665L56.962 9.5667C57.6187 9.10455 59.1268 10.418 58.8106 10.8559C58.689 11.0261 57.7403 12.2423 56.816 13.6287ZM65.5378 9.51805C67.0215 9.5667 68.5053 11.1721 66.8999 11.1721C66.5107 11.1721 65.2702 11.2207 64.2973 11.2207C63.2514 12.6315 62.2298 14.0666 61.9622 14.4071C60.9406 15.8179 59.992 17.8611 60.4785 18.2989C61.1595 18.907 63.5432 18.7854 66.7053 14.4557C67.0215 14.0179 68.2863 14.9909 67.2891 16.426C64.9297 19.8069 61.0136 20.3421 59.992 19.3691C57.2434 16.7908 58.9461 14.7476 60.5028 12.5342C60.746 12.1937 61.1352 11.6829 61.573 11.0748C59.7731 11.0748 59.8217 9.42076 60.4055 9.42076C61.2082 9.42076 61.1838 9.37211 62.8379 9.39643C63.9081 7.96134 64.954 6.59922 65.027 6.50192C65.5864 5.86951 66.9485 7.42622 66.681 7.88837C66.535 8.13161 66.0972 8.7397 65.5378 9.51805ZM73.0439 9.51805C74.5276 9.5667 76.0114 11.1721 74.406 11.1721C74.0168 11.1721 72.7763 11.2207 71.8034 11.2207C70.7575 12.6315 69.7359 14.0666 69.4683 14.4071C68.4467 15.8179 67.4981 17.8611 67.9846 18.2989C68.6656 18.907 71.0494 18.7854 74.2114 14.4557C74.5276 14.0179 75.7925 14.9909 74.7952 16.426C72.4358 19.8069 68.5197 20.3421 67.4981 19.3691C64.7495 16.7908 66.4522 14.7476 68.0089 12.5342C68.2521 12.1937 68.6413 11.6829 69.0791 11.0748C67.2792 11.0748 67.3278 9.42076 67.9116 9.42076C68.7143 9.42076 68.69 9.37211 70.344 9.39643C71.4142 7.96134 72.4601 6.59922 72.5331 6.50192C73.0925 5.86951 74.4547 7.42622 74.1871 7.88837C74.0412 8.13161 73.6033 8.7397 73.0439 9.51805ZM78.896 8.81267C79.2852 8.71537 79.8933 8.66673 80.4041 9.0559C82.277 10.3937 82.35 11.0504 81.7419 12.6315C80.8905 14.772 79.3095 16.2557 77.5825 16.6206C76.9501 16.7422 76.2447 16.1827 75.8312 15.7935C75.4664 16.8638 75.4907 17.9584 75.9528 18.2746C77.2177 19.1259 80.6716 17.6908 83.2499 13.8963C83.4932 13.5315 84.758 14.4801 83.7851 15.9881C82.204 18.4691 78.069 21.0475 75.1015 19.0772C74.1529 18.4691 73.6178 17.8854 73.6178 16.4503C73.6178 13.872 76.6826 9.42076 78.896 8.81267ZM77.1934 13.5071C76.5609 14.3828 76.1718 15.1368 76.3907 15.2584C76.7555 15.453 77.7771 14.5774 78.6771 13.5071C79.869 12.0964 80.3797 10.7586 80.1852 10.6126C79.9662 10.4424 78.6528 11.4396 77.1934 13.5071ZM92.5773 14.2125C92.8692 13.7747 94.0367 14.9422 93.1611 16.28C90.899 19.6853 87.8099 20.3421 86.5207 19.3691C84.5748 17.8611 86.6423 14.5044 88.2477 12.072C87.7612 12.0234 87.2504 11.8531 86.7639 11.4153C85.9613 12.899 84.2343 15.4044 83.4802 16.4016C83.164 16.8395 81.2668 16.4746 81.9235 15.6719C83.991 13.1423 84.6235 11.4639 85.0613 10.3937C84.7451 10.0532 84.5748 9.66399 84.7208 9.10455C85.2316 7.11001 86.8856 5.6506 87.6639 5.89383C88.6369 6.18572 88.9287 7.32893 88.345 8.98293C88.2477 9.27482 88.0774 9.71264 87.5666 10.6126C88.199 10.8072 89.099 10.2234 89.9747 9.59102C90.0476 9.51805 90.1206 9.51805 90.1936 9.51805C90.3638 9.51805 90.5098 9.61535 90.6314 9.76129C91.507 10.6126 91.5557 11.7072 91.4098 11.9504C90.826 12.8017 86.7639 17.6178 87.3964 18.6151C88.0288 19.6124 91.4341 16.0854 92.5773 14.2125ZM101.324 14.9422C102.175 15.0395 101.299 16.6692 100.642 16.7178C99.5966 16.7908 97.0426 16.4746 95.8264 16.4746C98.8912 18.5178 95.9967 24.0393 93.6616 25.7176C91.8373 27.0311 90.6698 26.3014 89.7455 25.6933C89.3563 25.4257 88.8942 25.2068 88.6023 24.4528C88.3347 23.8203 88.4077 22.6528 88.7482 21.6555C89.0887 20.415 89.9887 18.6151 91.1319 16.6206C91.059 16.4746 90.986 16.3287 90.913 16.2071C90.6941 15.7935 91.3508 15.4773 91.9346 15.2584C94.6589 10.7342 98.2588 5.6506 99.5966 4.02091C100.156 3.2912 101.08 3.94794 101.348 4.45874C101.615 4.92089 102.029 5.79654 100.764 7.52352C99.6695 9.03158 96.921 12.6801 95.194 14.7963C97.1399 14.6747 100.205 14.8206 101.324 14.9422ZM94.7562 20.561C95.3156 19.2718 95.6804 17.4232 94.8291 17.1313C94.2697 16.9368 93.6859 17.2286 93.1751 17.5205C91.6184 20.0745 89.7941 23.9176 90.6698 24.8176C91.4238 25.6203 93.5156 23.3825 94.7562 20.561ZM109.055 1.83179C109.322 1.5399 109.955 1.66152 110.49 2.43988C110.952 3.09661 110.855 3.87497 110.538 4.48306C110.198 5.16412 107.303 9.29914 104.239 12.8017C103.874 13.2639 103.582 13.6287 103.558 13.6774C102.974 14.553 100.931 17.4476 101.685 18.3232C102.56 19.3205 105.382 16.0368 106.647 14.2368C106.938 13.799 108.082 14.9665 107.182 16.3043C104.92 19.6853 102.39 20.561 101.052 19.1989C100.712 18.8583 100.517 18.4935 100.395 18.1286C100.031 17.18 99.9576 15.9395 100.468 14.9179C101.563 12.8017 107.425 3.48579 109.055 1.83179ZM111.226 11.5856C110.788 12.3396 109.718 13.726 109.207 14.4314C108.21 15.8422 107.31 17.8854 107.772 18.2989C108.477 18.8827 111.226 15.9881 112.491 14.1882C112.782 13.7747 113.926 14.9179 113.026 16.2557C110.764 19.661 108.356 20.3177 107.31 19.3691C104.561 16.8395 106.215 14.7963 107.747 12.5828C108.672 11.245 109.718 10.1261 109.815 9.9802C110.326 9.42076 111.493 11.0991 111.226 11.5856ZM114.023 5.62627C114.607 6.01545 114.704 6.93975 114.218 7.66946C113.731 8.42349 112.855 8.69105 112.272 8.30187C111.664 7.93702 111.591 7.01272 112.077 6.28301C112.539 5.52898 113.415 5.26142 114.023 5.62627ZM116.949 8.81267C117.338 8.71537 117.946 8.66673 118.457 9.0559C120.33 10.3937 120.403 11.0504 119.795 12.6315C118.944 14.772 117.363 16.2557 115.636 16.6206C115.003 16.7422 114.298 16.1827 113.884 15.7935C113.52 16.8638 113.544 17.9584 114.006 18.2746C115.271 19.1259 118.725 17.6908 121.303 13.8963C121.546 13.5315 122.811 14.4801 121.838 15.9881C120.257 18.4691 116.122 21.0475 113.155 19.0772C112.206 18.4691 111.671 17.8854 111.671 16.4503C111.671 13.872 114.736 9.42076 116.949 8.81267ZM115.247 13.5071C114.614 14.3828 114.225 15.1368 114.444 15.2584C114.809 15.453 115.83 14.5774 116.73 13.5071C117.922 12.0964 118.433 10.7586 118.238 10.6126C118.019 10.4424 116.706 11.4396 115.247 13.5071ZM127.493 8.30187C127.882 8.66673 128.149 9.12888 127.833 9.51805C125.79 12.1207 126.35 13.945 126.155 16.4989C126.058 17.5692 126.398 19.2962 125.036 19.8556C123.187 20.6096 121.071 19.8799 120.025 18.1529C119.928 18.007 119.928 17.9584 119.879 17.8611C119.539 17.934 118.104 17.7881 118.493 17.3989C120.852 15.1125 124.379 9.12888 125.522 7.76675C125.936 7.25596 126.958 7.76675 127.493 8.30187ZM122.604 18.7854C123.747 18.8827 123.99 16.7422 124.136 14.7963C124.185 14.3341 124.209 13.872 124.258 13.4342C123.187 14.7476 122.19 15.9395 121.266 16.9124C121.509 17.6665 121.825 18.7367 122.604 18.7854Z"
        fill="#334155" />
</svg>
    