<svg width="100" height="40" viewBox="0 0 100 40" fill="none" xmlns="http://www.w3.org/2000/svg">
    <path
        d="M42.0781 15.2159H40.4753L36.9197 9.63165V15.2159H35.3044V6.9021H37.1451L40.4506 12.2485V6.9021H42.0781V15.2159Z"
        fill="#334155" />
    <path
        d="M46.019 14.0138C47.008 14.0138 47.5089 13.3878 47.5089 12.1357C47.5089 10.8836 47.008 10.2701 46.019 10.2701C45.0297 10.2701 44.5291 10.8836 44.5291 12.1357C44.5291 13.3878 45.0297 14.0138 46.019 14.0138ZM46.019 15.3786C44.0282 15.3786 42.8511 14.0514 42.8511 12.1357C42.8511 10.1825 44.0658 8.89282 46.019 8.89282C47.9472 8.89282 49.1493 10.1699 49.1493 12.1357C49.1493 14.0889 47.9346 15.3786 46.019 15.3786Z"
        fill="#334155" />
    <path
        d="M51.6189 15.2158H49.9911V9.05557H51.5186V9.79429C52.0571 8.96793 52.6831 8.89282 53.3468 8.89282H53.5596V10.5581C53.4094 10.533 53.259 10.5205 53.1088 10.5205C52.1073 10.5205 51.6189 11.0213 51.6189 12.0105V15.2158Z"
        fill="#334155" />
    <path
        d="M57.7557 12.7618V11.1591H59.2707V12.912C59.2707 14.2142 58.5197 15.3787 56.7793 15.3787C54.9762 15.3787 54.2625 14.2267 54.2625 12.8995V7.39038H55.8652V9.05564H59.2707V10.2076H55.8652V12.7368C55.8652 13.5131 56.1408 13.9638 56.8044 13.9638C57.4554 13.9638 57.7557 13.5256 57.7557 12.7618Z"
        fill="#334155" />
    <path
        d="M65.7699 15.216H64.1295V11.3971C64.1295 10.4706 63.8167 10.1826 63.0778 10.1826C62.2641 10.1826 61.8133 10.8587 61.8133 11.6851V15.216H60.1855V6.802H61.8133V9.85709C62.0512 9.30617 62.8023 8.89299 63.6289 8.89299C64.8935 8.89299 65.7699 9.6317 65.7699 10.8587V15.216Z"
        fill="#334155" />
    <path
        d="M76.3291 9.35598H74.6765C74.5887 8.50457 74.0756 8.09139 73.0236 8.09139C72.0471 8.09139 71.5337 8.44197 71.5337 9.06803C71.5337 9.5939 71.8967 9.89439 72.8233 10.1198C73.7624 10.3451 74.6765 10.5705 75.2899 10.846C76.0162 11.1715 76.5921 11.6849 76.5921 12.8618C76.5921 14.6898 75.2147 15.5037 73.274 15.5037C71.2208 15.5037 69.7933 14.5897 69.7557 12.7241H71.4337C71.4584 13.5755 72.1722 14.1014 73.2866 14.1014C74.3132 14.1014 74.9019 13.6631 74.9019 12.9244C74.9019 12.4361 74.6514 12.098 73.6123 11.8727C72.5853 11.6473 71.9217 11.4971 71.3334 11.2341C70.4444 10.8334 69.9434 10.2324 69.9434 9.18069C69.9434 7.69072 70.9578 6.62646 72.9863 6.62646C75.0896 6.62646 76.2667 7.76586 76.3291 9.35598Z"
        fill="#334155" />
    <path
        d="M80.8027 12.7618V11.1591H82.3177V12.912C82.3177 14.2142 81.5663 15.3787 79.826 15.3787C78.0232 15.3787 77.3094 14.2267 77.3094 12.8995V7.39038H78.9122V9.05564H82.3177V10.2076H78.9122V12.7368C78.9122 13.5131 79.1874 13.9638 79.851 13.9638C80.5021 13.9638 80.8027 13.5256 80.8027 12.7618Z"
        fill="#334155" />
    <path
        d="M86.9651 12.8744L86.9776 12.1983C86.8146 12.3611 86.5268 12.4487 85.9259 12.5614C84.9993 12.7367 84.6987 12.9996 84.6987 13.5255C84.6987 13.9888 84.9742 14.2141 85.4877 14.2141C86.3265 14.2141 86.9525 13.6006 86.9651 12.8744ZM88.6051 15.2158H87.0901C87.04 15.0656 87.0027 14.8527 86.9901 14.6649C86.6017 15.0906 85.9507 15.3786 85.1244 15.3786C83.7222 15.3786 83.0712 14.6899 83.0712 13.6883C83.0712 11.9103 84.2605 11.71 85.9008 11.4846C86.7146 11.3719 86.94 11.2092 86.94 10.7834C86.94 10.3828 86.5394 10.1449 85.9008 10.1449C85.162 10.1449 84.8614 10.508 84.7865 11.0589H83.2715C83.2966 9.78178 83.9975 8.89282 85.9758 8.89282C87.929 8.89282 88.6051 9.76928 88.6051 11.3218V15.2158Z"
        fill="#334155" />
    <path
        d="M91.2007 15.2158H89.5729V9.05557H91.1004V9.79429C91.6389 8.96793 92.2649 8.89282 92.9285 8.89282H93.1414V10.5581C92.9909 10.533 92.8408 10.5205 92.6906 10.5205C91.6888 10.5205 91.2007 11.0213 91.2007 12.0105V15.2158Z"
        fill="#334155" />
    <path
        d="M36.9946 28.409H38.4347C39.9497 28.409 40.6007 27.4574 40.6007 25.5793C40.6007 23.7011 39.9497 22.9499 38.2842 22.9499H36.9946V28.409ZM38.7851 29.8238H35.3044V21.51H38.5221C40.776 21.51 42.3787 23.0501 42.3787 25.5793C42.3787 28.1085 40.9386 29.8238 38.7851 29.8238Z"
        fill="#334155" />
    <path
        d="M44.8644 29.8239H43.2369V23.6636H44.8644V29.8239ZM44.8644 22.9249H43.2369V21.4099H44.8644V22.9249Z"
        fill="#334155" />
    <path
        d="M48.8104 28.5969C49.5991 28.5969 50.2 27.9333 50.2 26.8941C50.2 25.5544 49.7367 24.9158 48.8104 24.9158C47.8963 24.9158 47.4205 25.5293 47.4205 26.7939C47.4205 27.8958 48.0089 28.5969 48.8104 28.5969ZM50.1499 30.0118V28.9976C49.9245 29.5485 49.2609 29.8741 48.4596 29.8741C46.4312 29.8741 45.7303 28.3215 45.7303 26.7063C45.7303 24.7906 46.9321 23.501 48.422 23.501C49.1985 23.501 49.7618 23.8015 50.1499 24.4275V23.6637H51.7777V29.8866C51.7777 31.7396 50.4254 32.7411 48.7101 32.7411C46.9948 32.7411 45.7303 31.7522 45.7303 30.162H47.2453C47.2453 30.9008 47.7835 31.339 48.5976 31.339C49.4615 31.339 50.1499 30.8256 50.1499 30.0118Z"
        fill="#334155" />
    <path
        d="M54.4104 29.8239H52.7825V23.6636H54.4104V29.8239ZM54.4104 22.9249H52.7825V21.4099H54.4104V22.9249Z"
        fill="#334155" />
    <path
        d="M58.8989 27.3697V25.767H60.4139V27.52C60.4139 28.8221 59.6625 29.9866 57.9222 29.9866C56.1191 29.9866 55.4056 28.8346 55.4056 27.5074V21.9983H57.0081V23.6636H60.4139V24.8155H57.0081V27.3447C57.0081 28.121 57.2836 28.5717 57.9472 28.5717C58.5983 28.5717 58.8989 28.1335 58.8989 27.3697Z"
        fill="#334155" />
    <path
        d="M65.0616 27.4826L65.0742 26.8065C64.9112 26.9692 64.6234 27.0569 64.0222 27.1695C63.0959 27.3448 62.7953 27.6078 62.7953 28.1336C62.7953 28.5969 63.0708 28.8223 63.5839 28.8223C64.4231 28.8223 65.0491 28.2088 65.0616 27.4826ZM66.7017 29.824H65.1867C65.1365 29.6737 65.0989 29.4609 65.0867 29.273C64.6983 29.6988 64.0472 29.9867 63.2209 29.9867C61.8185 29.9867 61.1674 29.2981 61.1674 28.2964C61.1674 26.5185 62.357 26.3181 63.9971 26.0928C64.8112 25.9801 65.0365 25.8173 65.0365 25.3916C65.0365 24.991 64.6359 24.753 63.9971 24.753C63.2586 24.753 62.9579 25.1161 62.883 25.6671H61.3677C61.3928 24.3899 62.094 23.501 64.0723 23.501C66.0255 23.501 66.7017 24.3774 66.7017 25.93V29.824Z"
        fill="#334155" />
    <path d="M69.2966 29.8239H67.6691V21.4099H69.2966V29.8239Z" fill="#334155" />
    <path
        d="M6.77972 19.6354C15.4523 15.2991 15.4523 15.2991 19.7886 6.62646C24.1249 15.2991 24.1249 15.2991 32.7975 19.6354C24.1249 23.9716 24.1249 23.9716 19.7886 32.6443C15.4523 23.9716 15.4523 23.9716 6.77972 19.6354Z"
        fill="#334155" />
</svg>
    