<?xml version="1.0" encoding="UTF-8"?>
<svg version="1.1" xmlns="http://www.w3.org/2000/svg" width="500" height="500">
<path d="M0 0 C1.06798828 -0.00128906 2.13597656 -0.00257812 3.23632812 -0.00390625 C4.33783203 -0.00003906 5.43933594 0.00382812 6.57421875 0.0078125 C7.66412109 0.00394531 8.75402344 0.00007813 9.87695312 -0.00390625 C26.35727313 0.01591374 26.35727313 0.01591374 34.26171875 4.1328125 C35.6076588 4.4603521 36.96348451 4.74850743 38.32421875 5.0078125 C46.23146086 6.60537075 54.60537249 9.51034982 61.26171875 14.1328125 C61.26171875 14.7928125 61.26171875 15.4528125 61.26171875 16.1328125 C67.20171875 16.4628125 73.14171875 16.7928125 79.26171875 17.1328125 C79.92171875 13.8328125 80.58171875 10.5328125 81.26171875 7.1328125 C85.88171875 7.1328125 90.50171875 7.1328125 95.26171875 7.1328125 C96.38701749 13.88460492 96.38701749 13.88460492 96.39111328 17.25 C96.39421509 18.00914703 96.39731689 18.76829407 96.4005127 19.55044556 C96.39853882 20.36137665 96.39656494 21.17230774 96.39453125 22.0078125 C96.39594116 22.87377045 96.39735107 23.73972839 96.39880371 24.63192749 C96.40094326 27.46559694 96.39462619 30.29915428 96.38671875 33.1328125 C96.38516785 34.10035461 96.38361694 35.06789673 96.38201904 36.0647583 C96.35705775 49.3899766 96.24418689 62.71363141 95.94232178 76.03564453 C95.90548145 77.67360345 95.87146939 79.31162862 95.84039307 80.94970703 C95.79537371 83.22725323 95.73765196 85.50410678 95.67578125 87.78125 C95.64436035 89.06177246 95.61293945 90.34229492 95.58056641 91.66162109 C95.26403007 95.10764993 94.49666916 97.91203706 93.26171875 101.1328125 C91.13678734 101.15974825 89.01175963 101.17917878 86.88671875 101.1953125 C85.70335937 101.20691406 84.52 101.21851563 83.30078125 101.23046875 C80.26171875 101.1328125 80.26171875 101.1328125 78.26171875 100.1328125 C77.85449219 98.37719727 77.85449219 98.37719727 77.62109375 96.07421875 C77.52344727 95.22214844 77.42580078 94.37007813 77.32519531 93.4921875 C77.17002441 92.10773438 77.17002441 92.10773438 77.01171875 90.6953125 C74.38417548 70.26041364 66.99168459 49.29823873 51.26171875 35.1328125 C49.66071324 34.43237259 48.05636663 33.73825941 46.43359375 33.08984375 C42.72865045 31.45726981 39.24257141 29.41815156 35.71484375 27.4375 C33.23570963 26.03176883 33.23570963 26.03176883 30.26171875 25.1328125 C30.26171875 24.4728125 30.26171875 23.8128125 30.26171875 23.1328125 C20.66601846 22.44132634 11.13064184 21.92993083 1.51171875 22.3828125 C0.78678223 22.40915771 0.0618457 22.43550293 -0.68505859 22.46264648 C-7.49953611 22.86270591 -12.78971895 25.23548668 -18.30078125 29.1328125 C-20.87573971 30.92655475 -23.0037097 32.24210657 -25.92578125 33.4453125 C-31.80338764 36.97187634 -34.85096307 43.6521621 -37.1953125 49.91796875 C-41.23651593 66.40258993 -39.54260164 83.79874698 -31.4921875 98.578125 C-29.92994105 101.40399293 -29.92994105 101.40399293 -26.73828125 102.1328125 C-26.36617705 103.45584967 -26.03197952 104.79019185 -25.73828125 106.1328125 C-24.74828125 106.6278125 -24.74828125 106.6278125 -23.73828125 107.1328125 C-23.73828125 107.7928125 -23.73828125 108.4528125 -23.73828125 109.1328125 C-22.99578125 109.4009375 -22.25328125 109.6690625 -21.48828125 109.9453125 C-18.84766176 111.08558001 -16.88275281 112.22661556 -14.73828125 114.1328125 C-14.73828125 114.7928125 -14.73828125 115.4528125 -14.73828125 116.1328125 C-12.75828125 116.6278125 -12.75828125 116.6278125 -10.73828125 117.1328125 C-10.73828125 117.7928125 -10.73828125 118.4528125 -10.73828125 119.1328125 C-10.06410156 119.20113281 -9.38992187 119.26945312 -8.6953125 119.33984375 C-4.74609395 120.39888122 -1.75944068 122.54231189 1.57421875 124.8203125 C8.50010403 129.42639201 15.55942264 133.72312861 22.76171875 137.8828125 C31.48436935 142.92958925 40.17595215 148.0221601 48.82421875 153.1953125 C50.38462891 154.1239209 50.38462891 154.1239209 51.9765625 155.07128906 C67.45891355 164.35155657 67.45891355 164.35155657 70.26171875 169.1328125 C70.26171875 169.7928125 70.26171875 170.4528125 70.26171875 171.1328125 C71.58171875 171.4628125 72.90171875 171.7928125 74.26171875 172.1328125 C74.26171875 173.1228125 74.26171875 174.1128125 74.26171875 175.1328125 C74.86532227 175.24367187 75.46892578 175.35453125 76.09082031 175.46875 C79.62991476 176.551334 81.63475475 179.43252398 84.01171875 182.1328125 C84.53741455 182.71716064 85.06311035 183.30150879 85.60473633 183.90356445 C86.66489412 185.0841984 87.72134019 186.26817656 88.77392578 187.45556641 C90.10303004 188.95391663 91.44518761 190.44066449 92.7890625 191.92578125 C99.17371486 199.00316262 99.17371486 199.00316262 99.4765625 202.890625 C99.23931673 206.47087939 98.33951478 208.77117453 96.82421875 212.0078125 C94.76367407 216.76336336 93.38492407 220.93178805 93.26171875 226.1328125 C93.20371094 227.81697266 93.20371094 227.81697266 93.14453125 229.53515625 C92.82351794 247.1017178 96.5436797 260.96963911 108.1328125 274.421875 C109.64139278 276.70823543 110.02835192 278.40081117 110.26171875 281.1328125 C107.89643994 291.29634387 101.91897274 299.92714067 96.27270508 308.51928711 C95.16799062 310.21470662 95.16799062 310.21470662 94.13671875 312.484375 C93.26171875 314.1328125 93.26171875 314.1328125 90.44921875 315.9453125 C87.15351271 318.20707155 85.66508484 320.10676351 83.6328125 323.44921875 C81.82210789 325.67261957 79.74514226 326.71685759 77.26171875 328.1328125 C75.67335061 329.31356961 74.09008658 330.5012205 72.51171875 331.6953125 C67.78069808 335.06243532 63.97690315 336.30318896 58.26171875 337.1328125 C58.26171875 337.7928125 58.26171875 338.4528125 58.26171875 339.1328125 C57.52566406 339.26558594 56.78960937 339.39835937 56.03125 339.53515625 C55.05542969 339.71175781 54.07960937 339.88835937 53.07421875 340.0703125 C51.62982422 340.33134766 51.62982422 340.33134766 50.15625 340.59765625 C44.64545273 341.61030377 44.64545273 341.61030377 39.26171875 343.1328125 C39.26171875 343.7928125 39.26171875 344.4528125 39.26171875 345.1328125 C23.36284996 346.87175127 5.90283515 347.98682859 -9.73828125 344.1328125 C-10.67353638 343.90803223 -10.67353638 343.90803223 -11.62768555 343.67871094 C-13.67849452 343.14827614 -15.67006931 342.5320146 -17.6796875 341.86328125 C-18.7944043 341.4928772 -18.7944043 341.4928772 -19.93164062 341.11499023 C-23.86943432 339.79414126 -27.80555725 338.46868738 -31.73828125 337.1328125 C-33.36056641 336.58367187 -33.36056641 336.58367187 -35.015625 336.0234375 C-41.18670686 333.86311616 -46.9607542 331.19076608 -52.73828125 328.1328125 C-52.73828125 327.4728125 -52.73828125 326.8128125 -52.73828125 326.1328125 C-56.69828125 326.1328125 -60.65828125 326.1328125 -64.73828125 326.1328125 C-66.78931659 330.4912626 -67.87691005 333.28080466 -67.73828125 338.1328125 C-69.73828125 340.1328125 -69.73828125 340.1328125 -72.48828125 340.36328125 C-73.56078125 340.34910156 -74.63328125 340.33492188 -75.73828125 340.3203125 C-76.81078125 340.31386719 -77.88328125 340.30742187 -78.98828125 340.30078125 C-81.73828125 340.1328125 -81.73828125 340.1328125 -83.73828125 339.1328125 C-83.78498347 325.36395776 -83.82012843 311.59511528 -83.84190559 297.82619762 C-83.85235596 291.43317613 -83.86653804 285.04020773 -83.88916016 278.6472168 C-83.91084382 272.48105152 -83.92284043 266.31493741 -83.92803574 260.14873695 C-83.93173955 257.79273994 -83.93897186 255.43674581 -83.94974136 253.08077049 C-83.96419669 249.7884039 -83.96626168 246.49625049 -83.96533203 243.20385742 C-83.97252258 242.22346497 -83.97971313 241.24307251 -83.98712158 240.23297119 C-83.98437225 239.33694687 -83.98162292 238.44092255 -83.97879028 237.51774597 C-83.98063387 236.7388309 -83.98247746 235.95991583 -83.98437691 235.15739727 C-83.73828125 233.1328125 -83.73828125 233.1328125 -81.73828125 230.1328125 C-78.76953125 229.8046875 -78.76953125 229.8046875 -75.23828125 229.8828125 C-74.07296875 229.89828125 -72.90765625 229.91375 -71.70703125 229.9296875 C-68.73828125 230.1328125 -68.73828125 230.1328125 -66.73828125 231.1328125 C-66.25512695 233.39160156 -66.25512695 233.39160156 -65.9140625 236.3984375 C-65.77637451 237.50622559 -65.63868652 238.61401367 -65.49682617 239.75537109 C-65.34963135 240.95242676 -65.20243652 242.14948242 -65.05078125 243.3828125 C-62.49454588 262.16661105 -57.30687738 279.2799183 -46.73828125 295.1328125 C-45.74828125 295.4628125 -44.75828125 295.7928125 -43.73828125 296.1328125 C-43.07161458 297.79947917 -42.40494792 299.46614583 -41.73828125 301.1328125 C-40.74828125 301.4628125 -39.75828125 301.7928125 -38.73828125 302.1328125 C-38.24328125 303.6178125 -38.24328125 303.6178125 -37.73828125 305.1328125 C-35.744563 306.47552071 -33.74482505 307.80934744 -31.73828125 309.1328125 C-31.73828125 309.7928125 -31.73828125 310.4528125 -31.73828125 311.1328125 C-30.59359375 311.4421875 -30.59359375 311.4421875 -29.42578125 311.7578125 C-24.23929531 313.69175641 -19.54795041 316.4113271 -14.73828125 319.1328125 C-14.73828125 319.7928125 -14.73828125 320.4528125 -14.73828125 321.1328125 C1.34284808 324.88507601 14.89684961 325.80852833 31.26171875 323.1328125 C31.26171875 322.4728125 31.26171875 321.8128125 31.26171875 321.1328125 C32.33550781 320.62492187 33.40929687 320.11703125 34.515625 319.59375 C47.24700831 313.47754685 56.06330891 308.08453639 61.359375 294.26953125 C67.06472528 274.43664695 65.44391719 252.5205544 55.7890625 234.36328125 C54.39136788 231.84042532 54.39136788 231.84042532 51.26171875 231.1328125 C50.59505208 229.79947917 49.92838542 228.46614583 49.26171875 227.1328125 C48.56046875 226.6378125 47.85921875 226.1428125 47.13671875 225.6328125 C46.51796875 225.1378125 45.89921875 224.6428125 45.26171875 224.1328125 C45.26171875 222.8128125 45.26171875 221.4928125 45.26171875 220.1328125 C44.47796875 220.0709375 43.69421875 220.0090625 42.88671875 219.9453125 C41.58734375 219.543125 41.58734375 219.543125 40.26171875 219.1328125 C39.59505208 217.46614583 38.92838542 215.79947917 38.26171875 214.1328125 C35.71396569 213.23895086 35.71396569 213.23895086 33.26171875 213.1328125 C33.26171875 212.4728125 33.26171875 211.8128125 33.26171875 211.1328125 C31.94171875 210.8028125 30.62171875 210.4728125 29.26171875 210.1328125 C29.26171875 209.4728125 29.26171875 208.8128125 29.26171875 208.1328125 C28.20404297 207.99746094 28.20404297 207.99746094 27.125 207.859375 C23.65727491 206.97943384 21.42249458 205.50495626 18.44921875 203.5078125 C17.21090755 202.68817897 15.9712124 201.87063417 14.73046875 201.0546875 C14.03308594 200.59513672 13.33570313 200.13558594 12.6171875 199.66210938 C7.93852952 196.62447322 3.18675082 193.70239373 -1.55078125 190.7578125 C-14.35482988 182.77227841 -27.07424837 174.68549645 -39.55078125 166.1953125 C-40.54754883 165.52193848 -40.54754883 165.52193848 -41.56445312 164.83496094 C-44.92103351 162.52927254 -48.11921135 160.29284897 -50.73828125 157.1328125 C-50.73828125 156.1428125 -50.73828125 155.1528125 -50.73828125 154.1328125 C-51.43953125 154.1328125 -52.14078125 154.1328125 -52.86328125 154.1328125 C-56.72161704 152.79078266 -57.85899359 150.65919444 -60.13671875 147.37109375 C-61.71057132 145.17153882 -63.40362304 143.24199131 -65.23828125 141.2578125 C-71.93061026 133.62414491 -75.58416181 125.48002246 -78.73461914 115.93383789 C-79.81350563 112.66587395 -80.8165425 110.01542063 -82.73828125 107.1328125 C-82.86328125 103.9453125 -82.86328125 103.9453125 -82.73828125 101.1328125 C-83.06828125 101.1328125 -83.39828125 101.1328125 -83.73828125 101.1328125 C-84.56406611 96.0724029 -84.93050321 91.13999751 -84.92578125 86.0078125 C-84.92642578 85.2744165 -84.92707031 84.54102051 -84.92773438 83.78540039 C-84.86389012 77.09844021 -84.01778795 70.70170849 -82.73828125 64.1328125 C-82.07828125 64.1328125 -81.41828125 64.1328125 -80.73828125 64.1328125 C-80.57328125 62.9778125 -80.40828125 61.8228125 -80.23828125 60.6328125 C-77.71688072 49.45401574 -71.43672505 39.17727333 -63.95703125 30.66015625 C-61.74036801 28.1351895 -59.75154622 25.50866037 -57.73828125 22.8203125 C-49.32679738 12.46897092 -33.98396826 5.28926091 -20.765625 3.44140625 C-19.26708984 3.28865234 -19.26708984 3.28865234 -17.73828125 3.1328125 C-16.97515625 2.9265625 -16.21203125 2.7203125 -15.42578125 2.5078125 C-13.73828125 2.1328125 -13.73828125 2.1328125 -11.73828125 3.1328125 C-11.73828125 2.4728125 -11.73828125 1.8128125 -11.73828125 1.1328125 C-7.77690142 0.39538585 -4.02765685 0.00473882 0 0 Z M-0.73828125 19.1328125 C-0.73828125 19.4628125 -0.73828125 19.7928125 -0.73828125 20.1328125 C6.85171875 20.1328125 14.44171875 20.1328125 22.26171875 20.1328125 C22.26171875 19.8028125 22.26171875 19.4728125 22.26171875 19.1328125 C14.67171875 19.1328125 7.08171875 19.1328125 -0.73828125 19.1328125 Z M69.26171875 20.1328125 C69.26171875 20.4628125 69.26171875 20.7928125 69.26171875 21.1328125 C71.24171875 21.1328125 73.22171875 21.1328125 75.26171875 21.1328125 C75.26171875 20.8028125 75.26171875 20.4728125 75.26171875 20.1328125 C73.28171875 20.1328125 71.30171875 20.1328125 69.26171875 20.1328125 Z M-83.73828125 91.1328125 C-82.73828125 94.1328125 -82.73828125 94.1328125 -82.73828125 94.1328125 Z M-82.73828125 239.1328125 C-81.73828125 241.1328125 -81.73828125 241.1328125 -81.73828125 241.1328125 Z " fill="#010100" transform="translate(140.73828125,74.8671875)"/>
<path d="M0 0 C4.67732363 -0.02492221 9.35460767 -0.04296415 14.03198242 -0.05493164 C15.61955439 -0.05992654 17.20712183 -0.06672475 18.79467773 -0.07543945 C40.09458262 -0.18934269 40.09458262 -0.18934269 49.6875 2.9375 C50.74324219 3.27652344 51.79898438 3.61554688 52.88671875 3.96484375 C53.91410156 4.30644531 54.94148437 4.64804688 56 5 C56.95003906 5.28875 57.90007812 5.5775 58.87890625 5.875 C62.83988715 7.3027378 66.50637366 9.14611985 70.25 11.0625 C71.32894531 11.60874023 71.32894531 11.60874023 72.4296875 12.16601562 C74.28811648 13.10741083 76.14422315 14.05338737 78 15 C78.99 15.495 78.99 15.495 80 16 C80 16.66 80 17.32 80 18 C83.96 18.33 87.92 18.66 92 19 C92.99 15.04 93.98 11.08 95 7 C97.29160319 6.97307516 99.58329546 6.95363876 101.875 6.9375 C103.15117187 6.92589844 104.42734375 6.91429688 105.7421875 6.90234375 C109 7 109 7 111 8 C111.02685938 10.14576637 111.04633088 12.29162645 111.0625 14.4375 C111.07410156 15.63246094 111.08570313 16.82742187 111.09765625 18.05859375 C111 21 111 21 110 22 C109.90501354 24.43396019 109.87441583 26.83942952 109.88647461 29.27368164 C109.88625557 30.41506844 109.88625557 30.41506844 109.8860321 31.57951355 C109.88673138 34.10642298 109.89452445 36.63325962 109.90234375 39.16015625 C109.90420788 40.9075059 109.9056318 42.65485607 109.90663147 44.40220642 C109.91045707 49.01031934 109.92028771 53.61840095 109.93133545 58.22650146 C109.94154866 62.92508521 109.9461289 67.62367399 109.95117188 72.32226562 C109.96190995 81.54819087 109.97898687 90.77409284 110 100 C107.02958551 101.48520725 104.30235553 101.1705822 101 101.1875 C99.1128125 101.20876953 99.1128125 101.20876953 97.1875 101.23046875 C94 101 94 101 92 99 C91.50097656 96.94726563 91.50097656 96.94726563 91.140625 94.40625 C90.99778076 93.46692627 90.85493652 92.52760254 90.70776367 91.55981445 C90.55670166 90.55007568 90.40563965 89.54033691 90.25 88.5 C87.18240026 69.67922666 81.84407742 50.14761143 67 37 C62.01637497 33.93129513 56.80689976 31.34101177 51.5625 28.75 C50.46518555 28.20472656 50.46518555 28.20472656 49.34570312 27.6484375 C47.56472339 26.76376783 45.78249279 25.88161708 44 25 C44 24.34 44 23.68 44 23 C35.75 22.01 27.5 21.02 19 20 C19 20.66 19 21.32 19 22 C10.09 22.99 10.09 22.99 1 24 C1 24.66 1 25.32 1 26 C-1.45570175 27.33838733 -3.91429916 28.67086232 -6.375 30 C-7.42300781 30.57234375 -7.42300781 30.57234375 -8.4921875 31.15625 C-13.7734375 34 -13.7734375 34 -16 34 C-16.25523437 34.53496094 -16.51046875 35.06992188 -16.7734375 35.62109375 C-18 38 -18 38 -19.7265625 40.72265625 C-24.62004927 49.33156815 -25.67532697 56.79691458 -25.6875 66.6875 C-25.69410645 67.81486572 -25.70071289 68.94223145 -25.70751953 70.10375977 C-25.53962638 78.03700067 -23.8965348 84.64163454 -21 92 C-20.67539795 92.84522217 -20.3507959 93.69044434 -20.01635742 94.5612793 C-18.80645902 97.66583516 -17.55615713 100.75272668 -16.29296875 103.8359375 C-15.99519531 104.58101563 -15.69742188 105.32609375 -15.390625 106.09375 C-15.12282227 106.75052734 -14.85501953 107.40730469 -14.57910156 108.08398438 C-14 110 -14 110 -14 114 C-12.02 114 -10.04 114 -8 114 C-4.63438409 120.0605925 -2.38669459 125.03949747 -2 132 C-1.34 132 -0.68 132 0 132 C0.05392397 134.77109307 0.09363455 137.54113818 0.125 140.3125 C0.15013672 141.49102539 0.15013672 141.49102539 0.17578125 142.69335938 C0.18222656 143.45068359 0.18867188 144.20800781 0.1953125 144.98828125 C0.20578613 145.68477783 0.21625977 146.38127441 0.22705078 147.09887695 C0 149 0 149 -2 152 C-2.77312483 153.86558382 -3.52017631 155.74205487 -4.25 157.625 C-8.17016781 167.09021676 -13.59221364 173.92171995 -20.6328125 181.32421875 C-23.08842766 184.09995536 -25.01649611 186.87849503 -27 190 C-26.443125 189.67 -25.88625 189.34 -25.3125 189 C-22.45340426 187.76363428 -21.07330385 187.32537233 -18 188 C-16.74731075 189.68124084 -15.50616445 191.37568753 -14.38671875 193.1484375 C-12.89202435 195.14417031 -11.56664468 196.05044835 -9.4375 197.3125 C-5.53261678 199.90169902 -4.47743578 202.88579409 -2.9765625 207.21875 C-1.90172382 210.27989056 -0.60880571 213.17965579 0.75 216.125 C1.17796875 217.05570313 1.6059375 217.98640625 2.046875 218.9453125 C2.51867187 219.96238281 2.51867187 219.96238281 3 221 C3.33 221 3.66 221 4 221 C5.01629322 225.21964946 5.16598183 229.22873996 5.1875 233.5625 C5.20167969 234.86316406 5.21585937 236.16382813 5.23046875 237.50390625 C5.01117029 240.83055233 4.65380564 242.22643012 3 245 C2.26659343 246.87334562 1.53784229 248.74851723 0.8125 250.625 C-1.73411043 256.75765369 -5.00840858 261.72823683 -9 267 C-9.75023437 268.05058594 -10.50046875 269.10117187 -11.2734375 270.18359375 C-12.05658109 271.26874234 -12.84042597 272.35338518 -13.625 273.4375 C-14.33914063 274.42621094 -15.05328125 275.41492188 -15.7890625 276.43359375 C-18.02958553 279.03434222 -20.04811044 280.31810944 -23 282 C-23.66 282.99 -24.32 283.98 -25 285 C-26.32 285 -27.64 285 -29 285 C-29.66 286.65 -30.32 288.3 -31 290 C-31.99 290 -32.98 290 -34 290 C-34.66 291.32 -35.32 292.64 -36 294 C-37.32 294 -38.64 294 -40 294 C-40.20625 294.763125 -40.4125 295.52625 -40.625 296.3125 C-42.44307706 299.86601425 -44.46362642 300.23181321 -48 302 C-54.78702788 307.73748749 -58.25468803 316.76406409 -61 325 C-61.14889747 326.84466442 -61.2479101 328.69357275 -61.31640625 330.54296875 C-61.35830078 331.61611328 -61.40019531 332.68925781 -61.44335938 333.79492188 C-61.48267578 334.91447266 -61.52199219 336.03402344 -61.5625 337.1875 C-61.60568359 338.31865234 -61.64886719 339.44980469 -61.69335938 340.61523438 C-61.79949099 343.41003354 -61.90154385 346.20492162 -62 349 C-63.92089844 348.63623047 -63.92089844 348.63623047 -66 348 C-67.265625 345.8203125 -67.265625 345.8203125 -68.25 343.125 C-68.58515625 342.24070312 -68.9203125 341.35640625 -69.265625 340.4453125 C-70 338 -70 338 -70 335 C-70.66 335 -71.32 335 -72 335 C-72 333.02 -72 331.04 -72 329 C-72.33 329 -72.66 329 -73 329 C-73.02721176 327.10424749 -73.04649136 325.20838021 -73.0625 323.3125 C-73.07410156 322.25675781 -73.08570313 321.20101563 -73.09765625 320.11328125 C-72.87046632 312.87046632 -72.87046632 312.87046632 -70 310 C-69.42091183 308.53507894 -68.88527444 307.05278749 -68.375 305.5625 C-64.51680609 295.69006264 -57.36445515 288.04782582 -50.19921875 280.41015625 C-47.99314709 278.09994964 -47.99314709 278.09994964 -46.39453125 275.68359375 C-45.93433594 275.12800781 -45.47414063 274.57242187 -45 274 C-44.01 274 -43.02 274 -42 274 C-41.67 273.01 -41.34 272.02 -41 271 C-39.04402816 269.60287726 -37.04563599 268.26220093 -35 267 C-38.3 266.67 -41.6 266.34 -45 266 C-45 266.66 -45 267.32 -45 268 C-45.99 268.33 -46.98 268.66 -48 269 C-47.938125 269.928125 -47.87625 270.85625 -47.8125 271.8125 C-48 275 -48 275 -49.1875 276.875 C-51.62403585 278.3873326 -53.16180642 278.22739236 -56 278 C-63.87721272 274.53949037 -66.69753216 267.42821378 -70 260 C-70.90807903 258.20396557 -71.82414144 256.41193401 -72.75 254.625 C-74.49050837 251.15517624 -75.91728441 247.74029023 -77 244 C-77.33 244 -77.66 244 -78 244 C-78.85976146 240.26519624 -79.1632868 236.76802846 -79.1875 232.9375 C-79.20876953 231.40416016 -79.20876953 231.40416016 -79.23046875 229.83984375 C-78.99458238 226.93324385 -78.40845645 225.50113796 -77 223 C-76.40147669 221.29692913 -75.81935003 219.58804439 -75.25 217.875 C-71.71950774 208.15970378 -66.50948913 201.07217872 -59.3671875 193.640625 C-56.88519336 191.00813534 -56.88519336 191.00813534 -54.859375 187.70703125 C-53 185 -53 185 -50.375 184.4375 C-49.59125 184.293125 -48.8075 184.14875 -48 184 C-46.62533375 181.52363988 -46.62533375 181.52363988 -46 179 C-44.68 179 -43.36 179 -42 179 C-41.7525 178.21625 -41.505 177.4325 -41.25 176.625 C-39.78786435 173.55451513 -38.98117578 173.3550799 -36 172 C-35.54625 171.360625 -35.0925 170.72125 -34.625 170.0625 C-33 168 -33 168 -30.25 166.75 C-21.26132787 161.90994577 -16.67411459 152.14885756 -13 143 C-12.28652562 139.86324579 -12.05569871 137.23052534 -12 134 C-14.49832779 137.03831219 -15.9063067 139.96213224 -17.3125 143.625 C-19.01700801 147.79157514 -20.81701554 151.81052676 -23 155.75 C-23.45375 156.56984375 -23.9075 157.3896875 -24.375 158.234375 C-26 160 -26 160 -28.6875 160.265625 C-29.450625 160.17796875 -30.21375 160.0903125 -31 160 C-31.33 159.01 -31.66 158.02 -32 157 C-32.8971875 156.8453125 -32.8971875 156.8453125 -33.8125 156.6875 C-36 156 -36 156 -37.875 153.0625 C-39.72004985 149.74005817 -39.72004985 149.74005817 -43.125 149 C-44.07375 148.67 -45.0225 148.34 -46 148 C-47.125 145 -47.125 145 -48 142 C-48.639375 141.690625 -49.27875 141.38125 -49.9375 141.0625 C-52.70335714 139.63766451 -53.03191774 137.77976481 -54.15893555 134.99926758 C-54.98996617 133.02385109 -55.91474135 131.13971809 -56.90234375 129.23828125 C-61.00571172 121.32692394 -64.52329535 113.60328982 -67 105 C-67.33 105 -67.66 105 -68 105 C-69.10228696 100.59085217 -69.07654536 96.51617599 -69 92 C-69.33 92 -69.66 92 -70 92 C-70.48991935 65.73487903 -70.48991935 65.73487903 -66 59 C-65.05553955 56.65307269 -64.14396284 54.3033381 -63.25 51.9375 C-61.06487704 46.29577375 -58.57829091 41.15814634 -55.296875 36.05078125 C-53.95626943 34.02388685 -53.95626943 34.02388685 -52.96484375 31.8046875 C-52 30 -52 30 -49.8125 28.8125 C-46.88527581 26.92606663 -45.55492705 25.2712415 -43.5 22.5 C-40.90490193 19.03428838 -38.88953666 16.9922017 -35 15 C-33.87376238 14.04312142 -32.74893872 13.08457779 -31.625 12.125 C-22.9775461 5.48203254 -10.61319989 3.23820665 0 2 C0 1.34 0 0.68 0 0 Z M83 20 C83 20.33 83 20.66 83 21 C84.98 21 86.96 21 89 21 C89 20.67 89 20.34 89 20 C87.02 20 85.04 20 83 20 Z M-69 73 C-68 77 -68 77 -68 77 Z M-36 195 C-37.17574711 197.09989652 -37.17574711 197.09989652 -38 199 C-38.61875 199.12375 -39.2375 199.2475 -39.875 199.375 C-42.32346632 199.84664995 -42.32346632 199.84664995 -43.8125 202.75 C-45.78485668 205.68035849 -46.82054787 206.75536524 -49.625 208.625 C-52.35442702 210.44851441 -54.02146538 211.73821792 -55 215 C-55 215.99 -55 216.98 -55 218 C-55.99 218 -56.98 218 -58 218 C-62.2197539 225.59555703 -62.28495075 230.70435979 -63 240 C-52.77 240 -42.54 240 -32 240 C-32 240.33 -32 240.66 -32 241 C-27.38 241 -22.76 241 -18 241 C-18 242.65 -18 244.3 -18 246 C-22.29605732 246.82222554 -26.33966603 247.11770795 -30.7109375 247.09765625 C-31.95488281 247.09443359 -33.19882812 247.09121094 -34.48046875 247.08789062 C-35.76566406 247.07951172 -37.05085938 247.07113281 -38.375 247.0625 C-39.68339844 247.05798828 -40.99179687 247.05347656 -42.33984375 247.04882812 C-45.55994281 247.03707594 -48.7799477 247.02064543 -52 247 C-52 247.99 -52 248.98 -52 250 C-54.97 250 -57.94 250 -61 250 C-60.51675181 255.15464734 -57.81389239 258.81550319 -55 263 C-54.67 262.01 -54.34 261.02 -54 260 C-47.73 260 -41.46 260 -35 260 C-35 261.65 -35 263.3 -35 265 C-26.52719726 263.26198918 -20.75390971 256.52432632 -16.125 249.625 C-12.39716752 243.39171731 -9.18674836 237.25300656 -11 230 C-26.18 230.33 -41.36 230.66 -57 231 C-57 228.36 -57 225.72 -57 223 C-56.28972656 223.01160156 -55.57945312 223.02320313 -54.84765625 223.03515625 C-53.92855469 223.04417969 -53.00945312 223.05320312 -52.0625 223.0625 C-50.68771484 223.07990234 -50.68771484 223.07990234 -49.28515625 223.09765625 C-47.03406673 223.25949049 -47.03406673 223.25949049 -46 222 C-43.48323327 221.7688199 -40.9873602 221.59663561 -38.46484375 221.46484375 C-37.71159317 221.42186661 -36.95834259 221.37888947 -36.18226624 221.33460999 C-33.76756711 221.19785278 -31.35256554 221.06761019 -28.9375 220.9375 C-27.30401248 220.84613078 -25.67054851 220.75433947 -24.03710938 220.66210938 C-20.02499685 220.43650067 -16.01260125 220.21673536 -12 220 C-12.72241198 215.88295306 -14.02353711 212.69512628 -16 209 C-16.33 209.66 -16.66 210.32 -17 211 C-25.25 211 -33.5 211 -42 211 C-41.67 208.69 -41.34 206.38 -41 204 C-32.09 203.01 -32.09 203.01 -23 202 C-24.32 200.02 -25.64 198.04 -27 196 C-27.75 193.125 -27.75 193.125 -28 191 C-30.74400211 191 -33.76819154 193.43242025 -36 195 Z M-40 205 C-40 205.33 -40 205.66 -40 206 C-37.03 206 -34.06 206 -31 206 C-31 205.67 -31 205.34 -31 205 C-33.97 205 -36.94 205 -40 205 Z M-26 222 C-26 222.33 -26 222.66 -26 223 C-21.38 223 -16.76 223 -12 223 C-12 222.67 -12 222.34 -12 222 C-16.62 222 -21.24 222 -26 222 Z M3 226 C4 228 4 228 4 228 Z M-78 235 C-77 239 -77 239 -77 239 Z M-29 246 C-29 246.33 -29 246.66 -29 247 C-27.35 247 -25.7 247 -24 247 C-24 246.67 -24 246.34 -24 246 C-25.65 246 -27.3 246 -29 246 Z M-52 265 C-52 265.33 -52 265.66 -52 266 C-49.69 266 -47.38 266 -45 266 C-45 265.67 -45 265.34 -45 265 C-47.31 265 -49.62 265 -52 265 Z M-72 317 C-71 321 -71 321 -71 321 Z " fill="#010100" transform="translate(314,75)"/>
<path d="M0 0 C5.4263499 1.42330489 9.40811294 3.08866841 13.875 6.5 C18.65757383 10.14165469 23.59209891 13.21022745 28.8125 16.1875 C29.61792236 16.64705078 30.42334473 17.10660156 31.25317383 17.58007812 C32.95167223 18.54791357 34.65049281 19.51518379 36.34960938 20.48193359 C43.72101131 24.70405751 51.0174877 29.05650272 58.31640625 33.40234375 C60.09127768 34.45899938 61.86730272 35.51371993 63.64453125 36.56640625 C66.12202007 38.03635788 68.59311652 39.51648236 71.0625 41 C72.1599353 41.6487207 72.1599353 41.6487207 73.27954102 42.31054688 C77.42020606 44.81713763 80.81928463 47.32946687 84 51 C84 51.66 84 52.32 84 53 C85.32 53.33 86.64 53.66 88 54 C88 54.99 88 55.98 88 57 C88.7528125 57.07734375 89.505625 57.1546875 90.28125 57.234375 C93.68763906 58.19364548 94.49102219 59.38815425 96.5 62.25 C101.17267217 68.95578217 101.17267217 68.95578217 108 73 C108.69919234 74.57318276 109.38177968 76.15498991 110 77.76171875 C111.1794052 80.40155929 112.68972454 82.69055235 114.25 85.125 C119.42496674 93.75362259 122.0720487 103.42935166 125 113 C125.33 113 125.66 113 126 113 C127.32594359 118.96674616 127.0884587 124.92583615 127 131 C127.33 131 127.66 131 128 131 C128.125 136.75 128.125 136.75 127 139 C126.92965885 141.73011585 127.00290626 144.44564282 127.0625 147.17578125 C127.00197404 149.91079811 126.61983945 152.34146987 126 155 C125.34 155 124.68 155 124 155 C123.938125 156.03125 123.87625 157.0625 123.8125 158.125 C121.93672186 172.49751631 114.35153191 185.23156932 105 196 C104.67 196.99 104.34 197.98 104 199 C103.34 199 102.68 199 102 199 C102 199.66 102 200.32 102 201 C101.236875 201.433125 100.47375 201.86625 99.6875 202.3125 C96.88045992 203.76770485 96.88045992 203.76770485 95.75 206.3125 C89.75364058 215.52119483 74.39679754 220.61333437 64 223 C62.08561511 223.3662999 60.16876151 223.71986402 58.25 224.0625 C56.77273438 224.32740234 56.77273438 224.32740234 55.265625 224.59765625 C54.51796875 224.73042969 53.7703125 224.86320313 53 225 C53 225.66 53 226.32 53 227 C34.88400983 228.65496811 17.92597446 228.17340749 0 225 C0 224.34 0 223.68 0 223 C-0.61488281 222.87882813 -1.22976563 222.75765625 -1.86328125 222.6328125 C-3.07564453 222.38144531 -3.07564453 222.38144531 -4.3125 222.125 C-5.51326172 221.88136719 -5.51326172 221.88136719 -6.73828125 221.6328125 C-9 221 -9 221 -12 219 C-13.52801161 218.49801785 -15.07218537 218.04401347 -16.625 217.625 C-23.0893576 215.7631894 -29.00785998 213.02294059 -35 210 C-35 209.34 -35 208.68 -35 208 C-42.425 208.99 -42.425 208.99 -50 210 C-50.7115625 212.9390625 -50.7115625 212.9390625 -51.4375 215.9375 C-52.875 221.875 -52.875 221.875 -54 223 C-59.52941176 223.23529412 -59.52941176 223.23529412 -62 222 C-62.05422947 220.5629191 -62.09289723 219.12524538 -62.125 217.6875 C-62.14820313 216.88699219 -62.17140625 216.08648437 -62.1953125 215.26171875 C-62 213 -62 213 -60 210 C-59.19871956 207.97008954 -58.43193486 205.92643938 -57.6875 203.875 C-52.03369499 189.01925428 -52.03369499 189.01925428 -45 185 C-43.82013481 183.48422025 -42.67781253 181.93888878 -41.5625 180.375 C-38.42655301 176.13184366 -38.42655301 176.13184366 -34.5625 174.9375 C-33.2940625 174.9684375 -33.2940625 174.9684375 -32 175 C-28 179.625 -28 179.625 -28 183 C-27.01 183 -26.02 183 -25 183 C-24.5875 183.70125 -24.175 184.4025 -23.75 185.125 C-19.75461854 191.68884097 -13.48875116 195.10590622 -6.625 198.125 C-5.49964844 198.63365601 -5.49964844 198.63365601 -4.3515625 199.15258789 C-2.88381635 199.81495293 -1.41416464 200.4731162 0.05761719 201.12646484 C1.64864047 201.84198537 3.2217618 202.59719169 4.7890625 203.36328125 C9.3058196 205.55781871 13.22411985 206.51882673 18.25 206.82421875 C20 207 20 207 21 208 C23.61949744 207.93488255 26.20085441 207.80779234 28.8125 207.625 C29.53759766 207.58117187 30.26269531 207.53734375 31.00976562 207.4921875 C38.36722684 207.09559885 38.36722684 207.09559885 44 203 C46.234375 202.0078125 46.234375 202.0078125 48.75 201.125 C52.18220489 199.83417075 54.96398159 198.4805206 57.875 196.25 C61 194 61 194 65 194 C65.2475 193.030625 65.495 192.06125 65.75 191.0625 C66.1625 190.051875 66.575 189.04125 67 188 C68.32303717 187.6278958 69.65737935 187.29369827 71 187 C71.73116024 185.36060166 72.38808804 183.68753844 73 182 C73.33 181.27683594 73.66 180.55367187 74 179.80859375 C81.10706856 162.95706791 80.85387466 140.87640561 74.75 123.75 C71.22847508 115.7316007 66.97898898 110.32765323 59.82421875 105.3125 C57.64890453 103.7473917 55.85683545 101.92560713 54 100 C52.515 99.01 52.515 99.01 51 98 C51 97.34 51 96.68 51 96 C49.02 95.505 49.02 95.505 47 95 C47 94.34 47 93.68 47 93 C46.4438501 92.8443457 45.8877002 92.68869141 45.31469727 92.52832031 C39.44930863 90.75104249 34.91465206 88.27817408 29.9375 84.75 C21.42181344 78.88044634 12.70142765 73.39441347 3.88452148 67.98925781 C2.90298096 67.38307617 1.92144043 66.77689453 0.91015625 66.15234375 C0.03496338 65.61601318 -0.84022949 65.07968262 -1.74194336 64.52709961 C-3.79855659 63.13623403 -5.43602245 61.92271937 -7 60 C-8.19297438 52.9747064 -5.36862816 47.68253057 -2.41015625 41.46484375 C0.03800532 35.44955479 0.13762626 29.62057907 0.125 23.1875 C0.1237915 22.48971436 0.12258301 21.79192871 0.12133789 21.07299805 C0.08568558 16.32794945 -0.27249203 11.70103789 -0.84375 6.99609375 C-1.03735053 4.52284694 -0.71155745 2.37185817 0 0 Z M0 7 C1 10 1 10 1 10 Z M125 119 C126 121 126 121 126 121 Z M-45 205 C-45 205.33 -45 205.66 -45 206 C-42.69 206 -40.38 206 -38 206 C-38 205.67 -38 205.34 -38 205 C-40.31 205 -42.62 205 -45 205 Z " fill="#010100" transform="translate(316,193)"/>
<path d="M0 0 C2.23828125 -0.3046875 2.23828125 -0.3046875 5 0 C7.10546875 2.0546875 7.10546875 2.0546875 9.1875 4.875 C16.55531562 14.78659206 16.55531562 14.78659206 26.24609375 22.11328125 C26.82488281 22.40589844 27.40367187 22.69851563 28 23 C28.75 25.625 28.75 25.625 29 28 C29.99 28 30.98 28 32 28 C32.0825 28.61875 32.165 29.2375 32.25 29.875 C32.81258459 32.18437567 32.81258459 32.18437567 35.0625 33.25 C35.701875 33.4975 36.34125 33.745 37 34 C37 34.99 37 35.98 37 37 C37.99 37.33 38.98 37.66 40 38 C40.66399359 39.78229858 41.31659655 41.56932525 41.92578125 43.37109375 C43.27782917 46.67992375 45.05555765 49.68411197 46.875 52.75 C50.53017508 58.94491326 53.43599321 65.26948219 56 72 C56.33 72 56.66 72 57 72 C57.86603643 75.75513397 58.16336696 79.27336758 58.1875 83.125 C58.20167969 84.15882813 58.21585937 85.19265625 58.23046875 86.2578125 C58 89 58 89 56 92 C55.06887382 93.86786156 54.15409235 95.74390463 53.25 97.625 C45.17462779 113.77574442 45.17462779 113.77574442 37 117 C36.27039063 117.29648437 35.54078125 117.59296875 34.7890625 117.8984375 C23.75488849 121.79075131 12.55063152 120.96403936 2 116 C-0.75 113.875 -0.75 113.875 -3 111 C-3.97066406 109.88044922 -3.97066406 109.88044922 -4.9609375 108.73828125 C-10.19469168 102.56925331 -14 97.35791641 -14 89 C-14.66 89 -15.32 89 -16 89 C-16 85.7 -16 82.4 -16 79 C-15.34 79 -14.68 79 -14 79 C-13.89421631 78.13052734 -13.78843262 77.26105469 -13.67944336 76.36523438 C-12.96573606 72.83029314 -11.83443903 70.32258713 -10.12890625 67.15625 C-9.55462891 66.07472656 -8.98035156 64.99320312 -8.38867188 63.87890625 C-7.78603516 62.76386719 -7.18339844 61.64882813 -6.5625 60.5 C-5.37221891 58.2834378 -4.1858818 56.06475222 -3.00390625 53.84375 C-2.47611572 52.86599609 -1.9483252 51.88824219 -1.40454102 50.88085938 C4.60785946 38.54880208 4.29479267 23.63818442 1.51171875 10.453125 C0.78872673 6.98717853 0.39808649 3.51643068 0 0 Z M16 24 C16 25.98 16 27.96 16 30 C15.34 30 14.68 30 14 30 C14 28.35 14 26.7 14 25 C13.67 25 13.34 25 13 25 C12.76925781 26.22074219 12.53851563 27.44148438 12.30078125 28.69921875 C9.49749044 43.05657404 5.30570954 55.34114967 -2.23046875 67.90625 C-5.60313684 73.80283526 -6.36400307 78.17786918 -6.375 84.875 C-6.39949219 85.65230469 -6.42398437 86.42960937 -6.44921875 87.23046875 C-6.47813613 92.96574877 -5.20620079 96.24772611 -2 101 C-1.34 101 -0.68 101 0 101 C0 101.66 0 102.32 0 103 C1.79143207 103.9795958 3.58315304 104.9586633 5.375 105.9375 C6.87160156 106.75541016 6.87160156 106.75541016 8.3984375 107.58984375 C9.92070346 108.4149759 11.45128783 109.22564391 13 110 C13 109.34 13 108.68 13 108 C15.97 108 18.94 108 22 108 C21.34 107.34 20.68 106.68 20 106 C19.01 106 18.02 106 17 106 C17.4375 103.75 17.4375 103.75 19 101 C23.05943663 98.58499269 27.40735101 97.04855 32 96 C32 94.68 32 93.36 32 92 C32.99 92 33.98 92 35 92 C37.49428183 86.24547579 37.22806703 80.76938083 37.125 74.625 C37.11597656 73.60277344 37.10695313 72.58054687 37.09765625 71.52734375 C37.0742043 69.01798478 37.04138355 66.50911664 37 64 C38.32 64 39.64 64 41 64 C41.99 67.63 42.98 71.26 44 75 C44.33 74.01 44.66 73.02 45 72 C45.66 72 46.32 72 47 72 C46.36614254 67.42214053 44.55946242 63.58355239 42.5 59.5 C42.15195312 58.80455078 41.80390625 58.10910156 41.4453125 57.39257812 C37.89478087 50.48666819 33.61394197 44.23736599 29 38 C28.67 38.66 28.34 39.32 28 40 C27.34 40 26.68 40 26 40 C26.26554687 39.46890625 26.53109375 38.9378125 26.8046875 38.390625 C27.27461893 35.72420998 27.27461893 35.72420998 24.9453125 32.984375 C24.01812144 31.89512476 23.07738897 30.81728844 22.125 29.75 C21.65191406 29.19570313 21.17882812 28.64140625 20.69140625 28.0703125 C19.49350367 26.68470439 18.25020668 25.33860513 17 24 C16.67 24 16.34 24 16 24 Z M47 72 C48 76 48 76 48 76 Z M48 77 C48 80.96 48 84.92 48 89 C48.33 89 48.66 89 49 89 C49 85.04 49 81.08 49 77 C48.67 77 48.34 77 48 77 Z M56 77 C57 80 57 80 57 80 Z M-7 81 C-7 84.3 -7 87.6 -7 91 C-6.67 91 -6.34 91 -6 91 C-6 87.7 -6 84.4 -6 81 C-6.33 81 -6.66 81 -7 81 Z M44 88 C43.78085937 88.556875 43.56171875 89.11375 43.3359375 89.6875 C40.93582851 95.46337205 37.95321345 100.16390222 34 105 C34.66 105.33 35.32 105.66 36 106 C41.65488104 102.30257778 45.81411796 99.0137546 47.8125 92.25 C48.19923562 89.96518212 48.19923562 89.96518212 47 88 C46.01 88 45.02 88 44 88 Z M28 108 C28.33 108.66 28.66 109.32 29 110 C29.33 109.34 29.66 108.68 30 108 C29.34 108 28.68 108 28 108 Z M13 110 C13 110.33 13 110.66 13 111 C17.62 111 22.24 111 27 111 C27 110.67 27 110.34 27 110 C22.38 110 17.76 110 13 110 Z " fill="#030301" transform="translate(320,279)"/>
<path d="M0 0 C0.66 0 1.32 0 2 0 C2 4.95 2 9.9 2 15 C1.01 15.495 1.01 15.495 0 16 C-0.1958009 14.08416353 -0.38132214 12.16727461 -0.5625 10.25 C-0.66691406 9.18265625 -0.77132813 8.1153125 -0.87890625 7.015625 C-0.98560074 4.35858796 -0.81930395 2.50039428 0 0 Z " fill="#AB7D5A" transform="translate(365,351)"/>
<path d="M0 0 C6.27 0 12.54 0 19 0 C19 0.33 19 0.66 19 1 C12.73 1 6.46 1 0 1 C0 0.67 0 0.34 0 0 Z " fill="#000000" transform="translate(260,333)"/>
<path d="M0 0 C3.96 0 7.92 0 12 0 C12 0.33 12 0.66 12 1 C8.04 1 4.08 1 0 1 C0 0.67 0 0.34 0 0 Z " fill="#898A44" transform="translate(252,313)"/>
<path d="M0 0 C3.96 0 7.92 0 12 0 C12 0.33 12 0.66 12 1 C8.04 1 4.08 1 0 1 C0 0.67 0 0.34 0 0 Z " fill="#B98860" transform="translate(59,303)"/>
<path d="M0 0 C3.96 0 7.92 0 12 0 C12 0.33 12 0.66 12 1 C8.04 1 4.08 1 0 1 C0 0.67 0 0.34 0 0 Z " fill="#000000" transform="translate(409,177)"/>
<path d="M0 0 C3.96 0 7.92 0 12 0 C12 0.33 12 0.66 12 1 C8.04 1 4.08 1 0 1 C0 0.67 0 0.34 0 0 Z " fill="#CC986E" transform="translate(410,80)"/>
<path d="M0 0 C3.96 0 7.92 0 12 0 C12 0.33 12 0.66 12 1 C8.04 1 4.08 1 0 1 C0 0.67 0 0.34 0 0 Z " fill="#CA7F68" transform="translate(223,80)"/>
<path d="M0 0 C1.65 0 3.3 0 5 0 C5 0.66 5 1.32 5 2 C3.02 2 1.04 2 -1 2 C-0.67 1.34 -0.34 0.68 0 0 Z " fill="#000000" transform="translate(229,177)"/>
<path d="M0 0 C3.3 0 6.6 0 10 0 C10 0.33 10 0.66 10 1 C6.7 1 3.4 1 0 1 C0 0.67 0 0.34 0 0 Z " fill="#000000" transform="translate(60,416)"/>
<path d="M0 0 C0.33 0 0.66 0 1 0 C1 2.64 1 5.28 1 8 C0.67 8 0.34 8 0 8 C0 5.36 0 2.72 0 0 Z " fill="#000000" transform="translate(333,309)"/>
<path d="M0 0 C2.31 0 4.62 0 7 0 C7 0.33 7 0.66 7 1 C4.69 1 2.38 1 0 1 C0 0.67 0 0.34 0 0 Z " fill="#000000" transform="translate(295,306)"/>
<path d="M0 0 C1.98 0 3.96 0 6 0 C6 0.33 6 0.66 6 1 C4.02 1 2.04 1 0 1 C0 0.67 0 0.34 0 0 Z " fill="#7D7F2F" transform="translate(290,287)"/>
<path d="M0 0 C1.98 0 3.96 0 6 0 C6 0.33 6 0.66 6 1 C4.02 1 2.04 1 0 1 C0 0.67 0 0.34 0 0 Z " fill="#000000" transform="translate(222,177)"/>
<path d="M0 0 C3 1 3 1 3 1 Z " fill="#000000" transform="translate(257,417)"/>
<path d="M0 0 C3 1 3 1 3 1 Z " fill="#000000" transform="translate(259,354)"/>
</svg>
