<svg width="20" height="20" viewBox="0 0 20 20" fill="none" xmlns="http://www.w3.org/2000/svg">
<path fill-rule="evenodd" clip-rule="evenodd" d="M6.45964 14.5834C6.45964 14.2382 6.17981 13.9584 5.83464 13.9584H1.66797C1.32279 13.9584 1.04297 14.2382 1.04297 14.5834C1.04297 14.9285 1.32279 15.2084 1.66797 15.2084H5.83464C6.17981 15.2084 6.45964 14.9285 6.45964 14.5834Z" fill="#686868"/>
<path fill-rule="evenodd" clip-rule="evenodd" d="M13.543 5.41663C13.543 5.07145 13.8228 4.79163 14.168 4.79163H18.3346C18.6798 4.79163 18.9596 5.07145 18.9596 5.41663C18.9596 5.7618 18.6798 6.04163 18.3346 6.04163H14.168C13.8228 6.04163 13.543 5.7618 13.543 5.41663Z" fill="#686868"/>
<path fill-rule="evenodd" clip-rule="evenodd" d="M18.9609 14.5834C18.9609 14.2382 18.6811 13.9584 18.3359 13.9584H10.8359C10.4908 13.9584 10.2109 14.2382 10.2109 14.5834C10.2109 14.9285 10.4908 15.2084 10.8359 15.2084H18.3359C18.6811 15.2084 18.9609 14.9285 18.9609 14.5834Z" fill="#686868"/>
<path fill-rule="evenodd" clip-rule="evenodd" d="M1.04297 5.41663C1.04297 5.07145 1.32279 4.79163 1.66797 4.79163H9.16797C9.51313 4.79163 9.79297 5.07145 9.79297 5.41663C9.79297 5.7618 9.51313 6.04163 9.16797 6.04163H1.66797C1.32279 6.04163 1.04297 5.7618 1.04297 5.41663Z" fill="#686868"/>
<path fill-rule="evenodd" clip-rule="evenodd" d="M8.33594 12.6249C9.37144 12.6249 10.2109 13.4644 10.2109 14.4999C10.2109 15.5354 9.37144 16.3749 8.33594 16.3749C7.3004 16.3749 6.46094 15.5354 6.46094 14.4999C6.46094 13.4644 7.3004 12.6249 8.33594 12.6249ZM11.4609 14.4999C11.4609 12.774 10.0619 11.3749 8.33594 11.3749C6.61005 11.3749 5.21094 12.774 5.21094 14.4999C5.21094 16.2258 6.61005 17.6249 8.33594 17.6249C10.0619 17.6249 11.4609 16.2258 11.4609 14.4999Z" fill="#686868"/>
<path fill-rule="evenodd" clip-rule="evenodd" d="M11.668 3.45825C10.6325 3.45825 9.79297 4.29772 9.79297 5.33325C9.79297 6.36879 10.6325 7.20825 11.668 7.20825C12.7035 7.20825 13.543 6.36879 13.543 5.33325C13.543 4.29772 12.7035 3.45825 11.668 3.45825ZM8.54297 5.33325C8.54297 3.60736 9.94205 2.20825 11.668 2.20825C13.3939 2.20825 14.793 3.60736 14.793 5.33325C14.793 7.05914 13.3939 8.45825 11.668 8.45825C9.94205 8.45825 8.54297 7.05914 8.54297 5.33325Z" fill="#686868"/>
</svg>
