<svg width="21" height="21" viewBox="0 0 21 21" fill="none" xmlns="http://www.w3.org/2000/svg">
<path d="M15.4621 12.1111C15.4214 12.0916 13.898 11.3415 13.6274 11.244C13.5168 11.2043 13.3985 11.1656 13.2725 11.1656C13.0668 11.1656 12.894 11.2681 12.7594 11.4695C12.6073 11.6957 12.1466 12.2341 12.0043 12.395C11.9857 12.4162 11.9603 12.4416 11.9451 12.4416C11.9315 12.4416 11.6957 12.3445 11.6244 12.3135C9.99024 11.6037 8.74988 9.89668 8.5798 9.60883C8.55551 9.56744 8.55449 9.54865 8.55429 9.54865C8.56026 9.52674 8.61521 9.47165 8.64357 9.44322C8.72654 9.36113 8.81643 9.25293 8.90341 9.14824C8.94459 9.09865 8.98584 9.04899 9.02634 9.00218C9.15253 8.85537 9.2087 8.74139 9.27383 8.60937L9.30795 8.54078C9.46698 8.22484 9.33115 7.95822 9.28726 7.87213C9.25124 7.80008 8.60802 6.2477 8.53964 6.08461C8.37519 5.69106 8.15789 5.50781 7.85592 5.50781C7.8279 5.50781 7.85592 5.50781 7.73842 5.51276C7.59534 5.5188 6.81616 5.62138 6.47166 5.83854C6.10633 6.06887 5.48828 6.80306 5.48828 8.09424C5.48828 9.25632 6.22573 10.3535 6.54235 10.7708C6.55022 10.7814 6.56467 10.8027 6.58563 10.8334C7.79818 12.6042 9.30978 13.9166 10.8421 14.5287C12.3174 15.118 13.016 15.1861 13.4131 15.1861H13.4132C13.5801 15.1861 13.7136 15.173 13.8315 15.1614L13.9063 15.1543C14.4159 15.1091 15.5358 14.5288 15.7906 13.8208C15.9913 13.2632 16.0442 12.654 15.9107 12.4329C15.8192 12.2826 15.6616 12.2069 15.4621 12.1111Z" fill="white"/>
<path d="M10.6332 0.104492C4.97406 0.104492 0.369998 4.67396 0.369998 10.2906C0.369998 12.1072 0.856157 13.8854 1.77712 15.4417L0.0143669 20.6415C-0.0184689 20.7385 0.00595439 20.8457 0.077664 20.9187C0.129428 20.9715 0.199645 21 0.271354 21C0.298831 21 0.32651 20.9959 0.353512 20.9872L5.77549 19.2643C7.25921 20.0571 8.93614 20.4755 10.6333 20.4755C16.2919 20.4756 20.8955 15.9066 20.8955 10.2906C20.8955 4.67396 16.2919 0.104492 10.6332 0.104492ZM10.6332 18.3537C9.03627 18.3537 7.48953 17.8926 6.15995 17.0202C6.11524 16.9908 6.06334 16.9757 6.01111 16.9757C5.98349 16.9757 5.95581 16.9799 5.92888 16.9885L3.2128 17.8518L4.0896 15.2651C4.11796 15.1813 4.10378 15.089 4.05154 15.0176C3.03906 13.6342 2.50385 11.9997 2.50385 10.2906C2.50385 5.84397 6.15066 2.22634 10.6332 2.22634C15.1151 2.22634 18.7615 5.84397 18.7615 10.2906C18.7616 14.7366 15.1152 18.3537 10.6332 18.3537Z" fill="white"/>
</svg>
