<?xml version="1.0" encoding="utf-8"?>
<svg xmlns="http://www.w3.org/2000/svg" width="500" height="250" viewBox="0 0 500 250" fill="none">
  <path fill="#ffffff" d="M125.1 142.2c0 14.7 3.2 25.8 7.4 32.7 5.5 8.9 13.6 12.7 22.1 12.7 10.8 0 20.7-2.7 39.6-29 15.2-21.1 33.2-50.8 45.4-69.3l20.4-31.5c14.2-21.9 30.7-46.2 49.6-62.6 15.3-13.5 32-20.9 48.7-20.9 28.1 0 54.8 16.3 75.4 46.9 22.4 33.4 33.2 75.6 33.2 119.1 0 25.8-5.1 44.8-13.8 59.9-8.4 14.5-24.6 29-52.1 29l0-41.3c23.5 0 29.3-21.6 29.3-46.3 0-35.2-8.2-74.3-26.3-102.2-12.8-19.8-29.5-31.9-47.7-31.9-19.8 0-35.7 15-53.6 41.5-9.5 14.1-19.2 31.4-30.2 50.9l-12.1 21.4c-24.3 43-30.4 52.8-42.5 68.9-21.2 28.3-39.4 39.1-63.4 39.1-28.3 0-46.3-12.3-57.4-30.8-9.1-15-13.5-34.9-13.5-57.4s4.4-42.5 13.5-57.4c11.1-18.5 29.1-30.8 57.4-30.8 23.9 0 42.2 10.8 63.4 39.1 12.1 16.1 18.2 25.9 42.5 68.9l12.1 21.4c11 19.5 20.7 36.8 30.2 50.9 17.9 26.5 33.8 41.5 53.6 41.5 18.2 0 34.9-12.1 47.7-31.9 18.1-27.9 26.3-67 26.3-102.2 0-24.7-5.8-46.3-29.3-46.3l0-41.3c27.5 0 43.7 14.5 52.1 29 8.7 15.1 13.8 34.1 13.8 59.9 0 43.5-10.8 85.7-33.2 119.1-20.6 30.6-47.3 46.9-75.4 46.9-16.7 0-33.4-7.4-48.7-20.9-18.9-16.4-35.4-40.7-49.6-62.6l-20.4-31.5c-12.2-18.5-30.2-48.2-45.4-69.3-18.9-26.3-28.8-29-39.6-29-8.5 0-16.6 3.8-22.1 12.7-4.2 6.9-7.4 18-7.4 32.7z"/>
</svg>
