<?xml version="1.0" encoding="UTF-8" standalone="no"?>
<svg
   xmlns:dc="http://purl.org/dc/elements/1.1/"
   xmlns:cc="http://creativecommons.org/ns#"
   xmlns:rdf="http://www.w3.org/1999/02/22-rdf-syntax-ns#"
   xmlns:svg="http://www.w3.org/2000/svg"
   xmlns="http://www.w3.org/2000/svg"
   width="250"
   height="215"
   viewBox="0 0 250 215"
   version="1.1">
  <g transform="translate(-203.68,-357.24)">
    <g transform="matrix(4.424,0,0,-4.424,-537.19,2164.26)">
      <path d="m 167.54,368.96 c 0.57,0.64 0.38,3.82 1.44,4.44 1.36,0.66 4.94,-0.11 6.59,-2.04 3.28,0.8 6.9,0.74 7.91,-0.23 0.17,-1.33 -0.69,-1.41 -0.48,-1.8 0.96,-2.28 -0.65,-2.15 -1.2,-2.63 4.73,-3.39 20.29,-3.76 27.36,-0.24 -3,1.28 -0.9,1.76 -1.2,3 -0.13,0.59 -0.61,0.91 -0.24,1.56 2.31,0.66 3.68,0.78 5.75,0.48 0.74,-0.03 1.14,-0.11 1.92,-0.36 -0.49,0.6 6.19,4.16 7.2,1.44 0.68,-1.46 1.36,-3.64 1.32,-3.6 -0.95,-1.29 -2.03,-1.36 -3.12,-0.72 -0.45,0.23 -0.26,0.79 -1.08,1.92 -0.25,-0.24 -0.62,-0.24 -1.2,-0.84 0.13,-0.21 0.94,-0.9 0.96,-0.96 -0.76,-0.63 -1.69,-2.63 -2.52,-3 -2.55,0.67 -2.55,2.8 -2.52,2.76 -1.03,0.04 -2.34,0.48 -2.4,0.47 -0.32,-1.31 0.86,-1.93 0.84,-1.91 0.46,-1.07 1.27,-2.26 0.24,-3 -11.71,-6.39 -29.65,-3.76 -35.15,0.11 -1.24,1.42 0.5,2.92 0.48,2.88 0.84,0.98 0.34,1.92 0.35,1.91 -0.89,0.06 -2.01,-0.43 -2.04,-0.47 -0.35,-1.64 -0.85,-2.33 -2.28,-2.88 -0.63,-0.01 -2.51,2.42 -2.87,3.24 0.36,0.37 0.55,0.99 0.6,0.96 -0.29,0.16 -0.79,0.59 -0.84,0.59 0.04,0 -0.57,-2.06 -0.6,-2.15 -1.54,-0.46 -2.47,-0.15 -3.24,1.08" fill="#ffffff"/>
    </g>
  </g>
</svg>
