<svg xmlns="http://www.w3.org/2000/svg" viewBox="0 0 100 100" fill="none">
  <path fill="#ffffff" d="M50 15c-2.8 0-5 2.2-5 5v15c0 2.8 2.2 5 5 5s5-2.2 5-5V20c0-2.8-2.2-5-5-5zm0 50c-2.8 0-5 2.2-5 5v15c0 2.8 2.2 5 5 5s5-2.2 5-5V70c0-2.8-2.2-5-5-5zm30.3-39.7c-2.4-1.4-5.5-.6-6.9 1.8L65.9 40c-1.4 2.4-.6 5.5 1.8 6.9 2.4 1.4 5.5.6 6.9-1.8l7.5-12.9c1.4-2.4.6-5.5-1.8-6.9zm-60.6 0c-2.4 1.4-3.2 4.5-1.8 6.9l7.5 12.9c1.4 2.4 4.5 3.2 6.9 1.8 2.4-1.4 3.2-4.5 1.8-6.9L24.1 27.1c-1.4-2.4-4.5-3.2-6.9-1.8zm45.3 35.8c-2.4-1.4-5.5-.6-6.9 1.8-1.4 2.4-.6 5.5 1.8 6.9l12.9 7.5c2.4 1.4 5.5.6 6.9-1.8 1.4-2.4.6-5.5-1.8-6.9L65 61.1zM35 61.1L22.1 68.6c-2.4 1.4-3.2 4.5-1.8 6.9 1.4 2.4 4.5 3.2 6.9 1.8l12.9-7.5c2.4-1.4 3.2-4.5 1.8-6.9-1.4-2.4-4.5-3.2-6.9-1.8z"/>
</svg>
