<svg width="20" height="19" viewBox="0 0 20 19" fill="none" xmlns="http://www.w3.org/2000/svg">
    <path fill-rule="evenodd" clip-rule="evenodd"
        d="M5.10696 18.9186C4.69996 18.9041 4.17541 18.8723 3.93699 18.8242C3.57305 18.7507 3.22936 18.6392 2.94354 18.4936C2.60772 18.3224 2.30674 18.1041 2.04686 17.8446C1.78638 17.5846 1.56714 17.2833 1.39531 16.947C1.25004 16.6627 1.13868 16.3211 1.06487 15.9593C1.01578 15.7184 0.983315 15.19 0.968598 14.7803C0.96263 14.6129 0.959567 14.3963 0.959567 14.2963L0.95813 5.31028C0.95813 5.21076 0.961161 4.99402 0.967098 4.82641C0.981566 4.41944 1.01341 3.89489 1.06156 3.65647C1.13502 3.29256 1.24648 2.94884 1.39213 2.66302C1.5633 2.32717 1.78163 2.02626 2.04111 1.76634C2.30109 1.50589 2.60238 1.28666 2.93866 1.1148C3.22298 0.969558 3.56458 0.858161 3.92643 0.784354C4.16725 0.735264 4.69574 0.702798 5.10537 0.688111C5.27273 0.682112 5.48943 0.67905 5.58936 0.67905L14.5754 0.677612C14.675 0.677612 14.8917 0.680612 15.0592 0.68658C15.4662 0.701079 15.9908 0.732889 16.2292 0.781042C16.5932 0.854536 16.9369 0.965996 17.2227 1.11161C17.5585 1.28278 17.8595 1.50114 18.1193 1.76059C18.3798 2.0206 18.599 2.32183 18.7709 2.65814C18.9161 2.94247 19.0276 3.28403 19.1013 3.64591C19.1505 3.88674 19.1829 4.41526 19.1976 4.82485C19.2036 4.99224 19.2066 5.20891 19.2066 5.30884L19.2081 14.2949C19.2081 14.3944 19.2051 14.6112 19.1991 14.7788C19.1846 15.1857 19.1528 15.7103 19.1046 15.9487C19.0312 16.3126 18.9197 16.6563 18.7741 16.9421C18.6029 17.278 18.3845 17.5789 18.1251 17.8389C17.8651 18.0993 17.5638 18.3185 17.2275 18.4904C16.9432 18.6356 16.6017 18.747 16.2398 18.8208C15.9989 18.8699 15.4705 18.9024 15.0609 18.9171C14.8934 18.9231 14.6768 18.9261 14.5768 18.9261L5.5908 18.9276C5.49124 18.9276 5.27451 18.9246 5.10696 18.9186Z"
        fill="#A5A5A5" />
    <mask id="mask0_166_1635" style="mask-type:luminance" maskUnits="userSpaceOnUse" x="0" y="0"
        width="20" height="19">
        <path fill-rule="evenodd" clip-rule="evenodd"
            d="M5.10696 18.9186C4.69996 18.9041 4.17541 18.8723 3.93699 18.8242C3.57305 18.7507 3.22936 18.6392 2.94354 18.4936C2.60772 18.3224 2.30674 18.1041 2.04686 17.8446C1.78638 17.5846 1.56714 17.2833 1.39531 16.947C1.25004 16.6627 1.13868 16.3211 1.06487 15.9593C1.01578 15.7184 0.983315 15.19 0.968598 14.7803C0.96263 14.6129 0.959567 14.3963 0.959567 14.2963L0.95813 5.31028C0.95813 5.21076 0.961161 4.99402 0.967098 4.82641C0.981566 4.41944 1.01341 3.89489 1.06156 3.65647C1.13502 3.29256 1.24648 2.94884 1.39213 2.66302C1.5633 2.32717 1.78163 2.02626 2.04111 1.76634C2.30109 1.50589 2.60238 1.28666 2.93866 1.1148C3.22298 0.969558 3.56458 0.858161 3.92643 0.784354C4.16725 0.735264 4.69574 0.702798 5.10537 0.688111C5.27273 0.682112 5.48943 0.67905 5.58936 0.67905L14.5754 0.677612C14.675 0.677612 14.8917 0.680612 15.0592 0.68658C15.4662 0.701079 15.9908 0.732889 16.2292 0.781042C16.5932 0.854536 16.9369 0.965996 17.2227 1.11161C17.5585 1.28278 17.8595 1.50114 18.1193 1.76059C18.3798 2.0206 18.599 2.32183 18.7709 2.65814C18.9161 2.94247 19.0276 3.28403 19.1013 3.64591C19.1505 3.88674 19.1829 4.41526 19.1976 4.82485C19.2036 4.99224 19.2066 5.20891 19.2066 5.30884L19.2081 14.2949C19.2081 14.3944 19.2051 14.6112 19.1991 14.7788C19.1846 15.1857 19.1528 15.7103 19.1046 15.9487C19.0312 16.3126 18.9197 16.6563 18.7741 16.9421C18.6029 17.278 18.3845 17.5789 18.1251 17.8389C17.8651 18.0993 17.5638 18.3185 17.2275 18.4904C16.9432 18.6356 16.6017 18.747 16.2398 18.8208C15.9989 18.8699 15.4705 18.9024 15.0609 18.9171C14.8934 18.9231 14.6768 18.9261 14.5768 18.9261L5.5908 18.9276C5.49124 18.9276 5.27451 18.9246 5.10696 18.9186Z"
            fill="white" />
    </mask>
    <g mask="url(#mask0_166_1635)">
        <path fill-rule="evenodd" clip-rule="evenodd"
            d="M10.121 3.02539C8.28764 3.02539 8.05755 3.03345 7.33748 3.0664C6.61881 3.0995 6.12826 3.21391 5.69903 3.38179C5.25503 3.55518 4.87839 3.78712 4.50317 4.1646C4.12766 4.54193 3.89701 4.92067 3.72402 5.36702C3.55666 5.7988 3.44274 6.29225 3.4104 7.01466C3.37819 7.73877 3.36975 7.97029 3.36975 9.81395C3.36975 11.6576 3.37791 11.8883 3.41054 12.6124C3.44359 13.3351 3.55736 13.8284 3.72416 14.26C3.89673 14.7065 4.12738 15.0853 4.50274 15.4626C4.87783 15.8402 5.25446 16.0727 5.69818 16.2461C6.1277 16.414 6.61839 16.5284 7.33692 16.5615C8.05699 16.5945 8.28694 16.6025 10.1202 16.6025C11.9537 16.6025 12.1831 16.5945 12.9032 16.5615C13.6218 16.5284 14.1129 16.414 14.5425 16.2461C14.9863 16.0727 15.3624 15.8402 15.7375 15.4626C16.113 15.0853 16.3436 14.7065 16.5166 14.2602C16.6826 13.8284 16.7965 13.335 16.8302 12.6125C16.8626 11.8884 16.871 11.6576 16.871 9.81395C16.871 7.97029 16.8626 7.73892 16.8302 7.0148C16.7965 6.2921 16.6826 5.7988 16.5166 5.36716C16.3436 4.92067 16.113 4.54193 15.7375 4.1646C15.362 3.78698 14.9865 3.55504 14.542 3.38179C14.1117 3.21391 13.6208 3.0995 12.9022 3.0664C12.1821 3.03345 11.9529 3.02539 10.1189 3.02539H10.121ZM9.51533 4.24882C9.63292 4.24863 9.75942 4.24869 9.89593 4.24875L10.1209 4.24882C11.9234 4.24882 12.137 4.25532 12.8488 4.28785C13.507 4.31812 13.8642 4.42871 14.1022 4.52163C14.4172 4.64468 14.6418 4.79176 14.8779 5.02936C15.1142 5.26696 15.2605 5.49325 15.3831 5.81005C15.4755 6.04906 15.5856 6.40829 15.6156 7.07017C15.6479 7.7858 15.655 8.00077 15.655 9.81247C15.655 11.6242 15.6479 11.8391 15.6156 12.5548C15.5855 13.2167 15.4755 13.5759 15.3831 13.8149C15.2607 14.1317 15.1142 14.3573 14.8779 14.5947C14.6417 14.8323 14.4173 14.9794 14.1022 15.1025C13.8645 15.1958 13.507 15.3061 12.8488 15.3364C12.1371 15.3689 11.9234 15.376 10.1209 15.376C8.31835 15.376 8.10472 15.3689 7.39308 15.3364C6.73488 15.3058 6.37766 15.1952 6.13956 15.1023C5.82452 14.9793 5.5995 14.8322 5.36323 14.5946C5.12695 14.357 4.98069 14.1313 4.85805 13.8143C4.76565 13.5753 4.65553 13.2161 4.62557 12.5542C4.59322 11.8386 4.58675 11.6236 4.58675 9.81077C4.58675 7.99794 4.59322 7.7841 4.62557 7.06848C4.65567 6.40659 4.76565 6.04736 4.85805 5.80807C4.9804 5.49127 5.12695 5.26498 5.36323 5.02738C5.5995 4.78978 5.82452 4.6427 6.13956 4.51937C6.37752 4.42603 6.73488 4.31571 7.39308 4.28531C8.01583 4.25702 8.25717 4.24854 9.51533 4.24712V4.24882ZM12.9142 6.1902C12.9142 5.74032 13.2771 5.37586 13.7243 5.37586V5.37558C14.1716 5.37558 14.5344 5.74046 14.5344 6.1902C14.5344 6.63995 14.1716 7.00483 13.7243 7.00483C13.2771 7.00483 12.9142 6.63995 12.9142 6.1902ZM10.1207 6.3278C8.20626 6.32788 6.6541 7.88879 6.6541 9.81401C6.6541 11.7393 8.20634 13.2995 10.1209 13.2995C12.0354 13.2995 13.5871 11.7393 13.5871 9.81401C13.5871 7.88875 12.0353 6.3278 10.1207 6.3278ZM12.3711 9.81399C12.3711 8.56419 11.3636 7.55114 10.1209 7.55114C8.87807 7.55114 7.87067 8.56419 7.87067 9.81399C7.87067 11.0637 8.87807 12.0768 10.1209 12.0768C11.3636 12.0768 12.3711 11.0637 12.3711 9.81399Z"
            fill="white" />
    </g>
</svg>