<svg width="20" height="20" viewBox="0 0 20 20" fill="none" xmlns="http://www.w3.org/2000/svg">
    <path
        d="M9.99986 0.26178C2.57918 0.26178 0.458984 2.38198 0.458984 9.80266C0.458984 17.2233 2.58448 19.3435 9.99986 19.3435C17.4152 19.3435 19.5407 17.2233 19.5407 9.80266C19.5407 2.38198 17.4152 0.26178 9.99986 0.26178Z"
        fill="#B5B5B5" />
    <path fill-rule="evenodd" clip-rule="evenodd"
        d="M2.92856 2.73135C1.68141 3.9785 1.14048 6.10658 1.14048 9.80266C1.14048 13.4984 1.68263 15.6266 2.93043 16.8739C4.17831 18.1212 6.30659 18.662 9.99986 18.662C13.6931 18.662 15.8214 18.1212 17.0693 16.8739C18.3171 15.6266 18.8593 13.4984 18.8593 9.80266C18.8593 6.10689 18.3171 3.9787 17.0693 2.73146C15.8214 1.48415 13.6931 0.943271 9.99986 0.943271C6.30378 0.943271 4.1757 1.4842 2.92856 2.73135ZM0.458984 9.80266C0.458984 2.38198 2.57918 0.26178 9.99986 0.26178C17.4152 0.26178 19.5407 2.38198 19.5407 9.80266C19.5407 17.2233 17.4152 19.3435 9.99986 19.3435C2.58448 19.3435 0.458984 17.2233 0.458984 9.80266Z"
        fill="#959595" />
    <path fill-rule="evenodd" clip-rule="evenodd"
        d="M9.68535 4.69147H5.57019V16.2768H8.76796V13.8537H9.68535C12.2933 13.8537 14.4296 11.8147 14.4296 9.2726C14.4296 6.73051 12.2933 4.69147 9.68535 4.69147ZM8.76796 10.7492V7.79604H9.68535C10.5517 7.79604 11.2318 8.46913 11.2318 9.2726C11.2318 10.0761 10.5517 10.7492 9.68535 10.7492H8.76796Z"
        fill="#24292E" />
    <path fill-rule="evenodd" clip-rule="evenodd"
        d="M6.59241 4.35071H10.3668C12.7988 4.35071 14.7703 6.2492 14.7703 8.5911C14.7703 10.933 12.7988 12.8315 10.3668 12.8315H9.10868V15.2546H6.59241V4.35071ZM9.10868 10.4084H10.3668C11.4091 10.4084 12.254 9.59477 12.254 8.5911C12.254 7.58743 11.4091 6.77379 10.3668 6.77379H9.10868V10.4084Z"
        fill="white" />
    <path fill-rule="evenodd" clip-rule="evenodd"
        d="M6.25171 4.00995H10.3669C12.9748 4.00995 15.1111 6.04899 15.1111 8.59109C15.1111 11.1332 12.9748 13.1722 10.3669 13.1722H9.44948V15.5953H6.25171V4.00995ZM6.9332 4.69144V14.9138H8.76799V12.4907H10.3669C12.6229 12.4907 14.4296 10.7328 14.4296 8.59109C14.4296 6.44938 12.6229 4.69144 10.3669 4.69144H6.9332ZM8.76799 6.43303H10.3669C11.5851 6.43303 12.5948 7.38722 12.5948 8.59109C12.5948 9.79496 11.5851 10.7491 10.3669 10.7491H8.76799V6.43303ZM9.44948 7.11452V10.0677H10.3669C11.2332 10.0677 11.9133 9.39457 11.9133 8.59109C11.9133 7.78761 11.2332 7.11452 10.3669 7.11452H9.44948Z"
        fill="#24292E" />
</svg>