<svg width="18" height="16" viewBox="0 0 18 16" fill="none" xmlns="http://www.w3.org/2000/svg">
<path fill-rule="evenodd" clip-rule="evenodd" d="M17.965 2.50701C17.2901 2.79928 16.5763 2.99196 15.846 3.07901C16.6124 2.62768 17.1887 1.91341 17.468 1.06901C16.7392 1.48631 15.9471 1.78155 15.123 1.94301C14.776 1.57808 14.3582 1.28779 13.8952 1.08988C13.4321 0.891973 12.9336 0.790615 12.43 0.792006C10.392 0.792006 8.74 2.41801 8.74 4.42201C8.74 4.71001 8.774 4.98601 8.835 5.25201C7.37365 5.18513 5.94237 4.81383 4.6328 4.16189C3.32323 3.50994 2.16423 2.59172 1.23 1.46601C0.91 1.99901 0.73 2.61901 0.73 3.29301C0.73 4.55601 1.383 5.66501 2.371 6.31701C1.78632 6.29864 1.21419 6.14276 0.701 5.86201V5.90701C0.701 7.66801 1.971 9.13701 3.66 9.47101C3.118 9.61375 2.55114 9.63492 2 9.53301C2.24313 10.2597 2.70614 10.8929 3.32495 11.3449C3.94375 11.7969 4.68776 12.0454 5.454 12.056C4.1425 13.0665 2.53265 13.6131 0.877 13.61C0.585 13.61 0.293 13.593 0 13.56C1.69729 14.6284 3.66245 15.1942 5.668 15.192C12.458 15.192 16.166 9.65801 16.166 4.86801C16.166 4.71301 16.166 4.55801 16.156 4.40301C16.8784 3.89153 17.503 3.2544 18 2.52201L17.965 2.50701Z" fill="black"/>
</svg>
